<svg xmlns="http://www.w3.org/2000/svg" width="19.889" height="19.928" viewBox="0 0 19.889 19.928" fill="none">
  <path d="M 19.888 14.92 L 18.888 14.895 C 18.888 14.904 18.888 14.912 18.888 14.92 L 19.888 14.92 Z M 19.888 17.92 L 18.888 17.92 L 18.888 17.924 L 19.888 17.92 Z M 17.708 19.92 L 17.6 20.914 C 17.606 20.915 17.612 20.915 17.618 20.916 L 17.708 19.92 Z M 9.078 16.85 L 9.622 16.011 L 9.614 16.006 L 9.078 16.85 Z M 3.078 10.85 L 3.922 10.314 L 3.917 10.306 L 3.078 10.85 Z M 0.008 2.18 L -0.988 2.27 C -0.987 2.275 -0.987 2.281 -0.986 2.286 L 0.008 2.18 Z M 1.998 0 L 1.998 -1 L 1.997 -1 L 1.998 0 Z M 4.998 0 L 4.998 1 L 5.008 1 L 4.998 0 Z M 6.998 1.72 L 7.99 1.589 L 7.988 1.58 L 6.998 1.72 Z M 7.698 4.53 L 6.761 4.88 L 6.762 4.882 L 7.698 4.53 Z M 7.248 6.64 L 7.955 7.347 L 7.959 7.343 L 7.248 6.64 Z M 5.978 7.91 L 5.271 7.203 C 4.953 7.521 4.886 8.013 5.109 8.404 L 5.978 7.91 Z M 11.978 13.91 L 11.484 14.779 C 11.875 15.002 12.367 14.936 12.685 14.617 L 11.978 13.91 Z M 13.248 12.64 L 12.545 11.929 L 12.541 11.933 L 13.248 12.64 Z M 15.358 12.19 L 15.006 13.126 L 15.009 13.127 L 15.358 12.19 Z M 18.168 12.89 L 18.308 11.9 L 18.299 11.899 L 18.168 12.89 Z M 19.888 14.92 L 18.888 14.92 L 18.888 17.92 L 19.888 17.92 L 20.888 17.92 L 20.888 14.92 L 19.888 14.92 Z M 19.888 17.92 L 18.888 17.924 C 18.889 18.063 18.86 18.201 18.804 18.329 L 19.721 18.729 L 20.637 19.13 C 20.804 18.747 20.89 18.334 20.888 17.916 L 19.888 17.92 Z M 19.721 18.729 L 18.804 18.329 C 18.749 18.456 18.667 18.571 18.564 18.665 L 19.24 19.402 L 19.916 20.139 C 20.224 19.856 20.47 19.513 20.637 19.13 L 19.721 18.729 Z M 19.24 19.402 L 18.564 18.665 C 18.462 18.759 18.34 18.831 18.208 18.876 L 18.529 19.823 L 18.849 20.77 C 19.245 20.636 19.608 20.421 19.916 20.139 L 19.24 19.402 Z M 18.529 19.823 L 18.208 18.876 C 18.077 18.92 17.937 18.937 17.798 18.924 L 17.708 19.92 L 17.618 20.916 C 18.034 20.954 18.453 20.904 18.849 20.77 L 18.529 19.823 Z M 17.708 19.92 L 17.816 18.926 C 14.894 18.608 12.088 17.61 9.622 16.011 L 9.078 16.85 L 8.534 17.689 C 11.262 19.458 14.367 20.563 17.6 20.914 L 17.708 19.92 Z M 9.078 16.85 L 9.614 16.006 C 7.322 14.549 5.379 12.606 3.922 10.314 L 3.078 10.85 L 2.234 11.386 C 3.848 13.926 6.002 16.08 8.542 17.694 L 9.078 16.85 Z M 3.078 10.85 L 3.917 10.306 C 2.313 7.829 1.314 5.009 1.003 2.074 L 0.008 2.18 L -0.986 2.286 C -0.641 5.533 0.463 8.653 2.239 11.394 L 3.078 10.85 Z M 0.008 2.18 L 1.004 2.09 C 0.992 1.952 1.008 1.812 1.052 1.681 L 0.105 1.362 L -0.843 1.043 C -0.976 1.437 -1.025 1.855 -0.988 2.27 L 0.008 2.18 Z M 0.105 1.362 L 1.052 1.681 C 1.097 1.549 1.168 1.428 1.261 1.326 L 0.523 0.652 L -0.216 -0.022 C -0.496 0.285 -0.71 0.648 -0.843 1.043 L 0.105 1.362 Z M 0.523 0.652 L 1.261 1.326 C 1.355 1.223 1.469 1.141 1.596 1.085 L 1.192 0.171 L 0.788 -0.744 C 0.407 -0.576 0.065 -0.33 -0.216 -0.022 L 0.523 0.652 Z M 1.192 0.171 L 1.596 1.085 C 1.723 1.029 1.86 1 1.999 1 L 1.998 0 L 1.997 -1 C 1.581 -1 1.169 -0.912 0.788 -0.744 L 1.192 0.171 Z M 1.998 0 L 1.998 1 L 4.998 1 L 4.998 0 L 4.998 -1 L 1.998 -1 L 1.998 0 Z M 4.998 0 L 5.008 1 C 5.251 0.998 5.486 1.084 5.67 1.242 L 6.322 0.484 L 6.974 -0.275 C 6.422 -0.749 5.716 -1.007 4.988 -1 L 4.998 0 Z M 6.322 0.484 L 5.67 1.242 C 5.854 1.4 5.974 1.62 6.008 1.86 L 6.998 1.72 L 7.988 1.58 C 7.886 0.859 7.526 0.2 6.974 -0.275 L 6.322 0.484 Z M 6.998 1.72 L 6.007 1.851 C 6.143 2.886 6.396 3.902 6.761 4.88 L 7.698 4.53 L 8.635 4.18 C 8.323 3.344 8.106 2.475 7.99 1.589 L 6.998 1.72 Z M 7.698 4.53 L 6.762 4.882 C 6.829 5.061 6.844 5.255 6.804 5.442 L 7.782 5.651 L 8.76 5.86 C 8.88 5.299 8.836 4.715 8.634 4.178 L 7.698 4.53 Z M 7.782 5.651 L 6.804 5.442 C 6.764 5.629 6.671 5.801 6.537 5.937 L 7.248 6.64 L 7.959 7.343 C 8.362 6.935 8.64 6.421 8.76 5.86 L 7.782 5.651 Z M 7.248 6.64 L 6.541 5.933 L 5.271 7.203 L 5.978 7.91 L 6.685 8.617 L 7.955 7.347 L 7.248 6.64 Z M 5.978 7.91 L 5.109 8.404 C 6.621 11.064 8.824 13.267 11.484 14.779 L 11.978 13.91 L 12.472 13.041 C 10.125 11.706 8.182 9.763 6.847 7.416 L 5.978 7.91 Z M 11.978 13.91 L 12.685 14.617 L 13.955 13.347 L 13.248 12.64 L 12.541 11.933 L 11.271 13.203 L 11.978 13.91 Z M 13.248 12.64 L 13.951 13.351 C 14.087 13.217 14.259 13.124 14.446 13.084 L 14.237 12.106 L 14.029 11.128 C 13.468 11.248 12.953 11.526 12.545 11.929 L 13.248 12.64 Z M 14.237 12.106 L 14.446 13.084 C 14.633 13.044 14.827 13.059 15.006 13.126 L 15.358 12.19 L 15.71 11.254 C 15.173 11.052 14.59 11.009 14.029 11.128 L 14.237 12.106 Z M 15.358 12.19 L 15.009 13.127 C 15.986 13.492 17.003 13.745 18.037 13.882 L 18.168 12.89 L 18.299 11.899 C 17.414 11.782 16.544 11.565 15.708 11.253 L 15.358 12.19 Z M 18.168 12.89 L 18.028 13.88 C 18.271 13.915 18.493 14.037 18.652 14.224 L 19.415 13.578 L 20.178 12.931 C 19.702 12.37 19.036 12.003 18.308 11.9 L 18.168 12.89 Z M 19.415 13.578 L 18.652 14.224 C 18.81 14.411 18.895 14.65 18.888 14.895 L 19.888 14.92 L 20.888 14.945 C 20.906 14.209 20.653 13.493 20.178 12.931 L 19.415 13.578 Z" fill="currentColor" fill-rule="nonzero"></path>
</svg>