<svg xmlns="http://www.w3.org/2000/svg" width="23.620" height="21.741" viewBox="0 0 23.620 21.741" fill="none">
  <path d="M 0.591 13.169 L 6.102 13.169 L 6.102 0.591 C 6.102 0.195 6.483 -0.085 6.857 0.024 C 13.261 1.37 24.481 4.36 22.334 13.169 L 23.029 13.169 C 23.355 13.169 23.62 13.433 23.62 13.759 C 23.62 18.109 20.086 21.741 15.638 21.741 L 7.982 21.741 C 3.591 21.741 0 18.15 0 13.759 C 0 13.433 0.264 13.169 0.591 13.169 Z M 1.816 16.62 L 21.803 16.62 C 22.131 15.919 22.343 15.154 22.413 14.35 L 1.207 14.35 C 1.277 15.154 1.488 15.919 1.816 16.62 Z M 21.098 17.801 L 2.522 17.801 C 3.806 19.528 5.821 20.56 7.982 20.56 L 15.638 20.56 C 17.799 20.56 19.814 19.528 21.098 17.801 Z M 9.55 1.864 C 12.746 4.208 18.303 8.708 17.793 13.169 L 21.114 13.169 C 23.056 6.031 14.93 3.267 9.55 1.864 Z M 16.603 13.169 C 17.245 8.818 10.345 3.802 7.283 1.7 L 7.283 13.169 L 16.603 13.169 Z" fill="currentColor" fill-rule="nonzero"></path>
</svg>