<svg xmlns="http://www.w3.org/2000/svg" width="32.500" height="32.024" viewBox="0 0 32.500 32.024" fill="none">
  <path d="M 0.812 21.67 L 10.647 21.67 L 10.647 0.813 C 10.647 0.155 11.385 -0.221 11.915 0.14 C 18.384 3.967 31.483 12.445 28.041 21.67 L 31.688 21.67 C 32.136 21.67 32.5 22.034 32.5 22.482 L 32.5 22.695 C 32.5 27.828 28.303 32.024 23.171 32.024 L 9.33 32.024 C 4.197 32.024 0 27.828 0 22.695 C 0 22.167 0.18 21.67 0.812 21.67 Z M 15.586 4.377 C 19.178 8.932 23.394 15.641 21.567 21.67 L 26.286 21.67 C 29.5 14.619 20.596 7.78 15.586 4.377 Z M 19.856 21.67 C 22.195 15.308 16.195 7.415 12.271 2.928 L 12.271 21.67 L 19.856 21.67 Z M 30.852 23.294 L 1.648 23.294 C 1.959 27.282 5.324 30.4 9.33 30.4 L 23.171 30.4 C 27.176 30.4 30.541 27.282 30.852 23.294 Z" fill="currentColor" fill-rule="nonzero"></path>
  <path d="M 10.647 21.67 L 10.647 21.87 L 10.847 21.87 L 10.847 21.67 L 10.647 21.67 Z M 11.915 0.14 L 11.802 0.306 L 11.813 0.312 L 11.915 0.14 Z M 28.041 21.67 L 27.854 21.6 L 27.753 21.87 L 28.041 21.87 L 28.041 21.67 Z M 15.586 4.377 L 15.698 4.211 L 15.429 4.501 L 15.586 4.377 Z M 21.567 21.67 L 21.375 21.612 L 21.297 21.87 L 21.567 21.87 L 21.567 21.67 Z M 26.286 21.67 L 26.286 21.87 L 26.415 21.87 L 26.468 21.753 L 26.286 21.67 Z M 19.856 21.67 L 19.856 21.87 L 19.995 21.87 L 20.043 21.739 L 19.856 21.67 Z M 12.271 2.928 L 12.422 2.796 L 12.071 2.396 L 12.071 2.928 L 12.271 2.928 Z M 12.271 21.67 L 12.071 21.67 L 12.071 21.87 L 12.271 21.87 L 12.271 21.67 Z M 30.852 23.294 L 31.051 23.31 L 31.068 23.094 L 30.852 23.094 L 30.852 23.294 Z M 1.648 23.294 L 1.648 23.094 L 1.432 23.094 L 1.449 23.31 L 1.648 23.294 Z M 0.812 21.67 L 0.812 21.87 L 10.647 21.87 L 10.647 21.67 L 10.647 21.47 L 0.812 21.47 L 0.812 21.67 Z M 10.647 21.67 L 10.847 21.67 L 10.847 0.813 L 10.647 0.813 L 10.447 0.813 L 10.447 21.67 L 10.647 21.67 Z M 10.647 0.813 L 10.847 0.813 C 10.847 0.318 11.402 0.033 11.803 0.306 L 11.915 0.14 L 12.027 -0.025 C 11.367 -0.474 10.447 -0.009 10.447 0.813 L 10.647 0.813 Z M 11.915 0.14 L 11.813 0.312 C 15.046 2.225 19.918 5.29 23.551 9.02 C 27.192 12.758 29.532 17.102 27.854 21.6 L 28.041 21.67 L 28.228 21.74 C 29.992 17.012 27.504 12.505 23.838 8.741 C 20.165 4.97 15.253 1.882 12.017 -0.032 L 11.915 0.14 Z M 28.041 21.67 L 28.041 21.87 L 31.688 21.87 L 31.688 21.67 L 31.688 21.47 L 28.041 21.47 L 28.041 21.67 Z M 31.688 21.67 L 31.688 21.87 C 32.026 21.87 32.3 22.144 32.3 22.482 L 32.5 22.482 L 32.7 22.482 C 32.7 21.923 32.247 21.47 31.688 21.47 L 31.688 21.67 Z M 32.5 22.482 L 32.3 22.482 L 32.3 22.695 L 32.5 22.695 L 32.7 22.695 L 32.7 22.482 L 32.5 22.482 Z M 32.5 22.695 L 32.3 22.695 C 32.3 27.717 28.193 31.824 23.171 31.824 L 23.171 32.024 L 23.171 32.224 C 28.414 32.224 32.7 27.938 32.7 22.695 L 32.5 22.695 Z M 23.171 32.024 L 23.171 31.824 L 9.33 31.824 L 9.33 32.024 L 9.33 32.224 L 23.171 32.224 L 23.171 32.024 Z M 9.33 32.024 L 9.33 31.824 C 4.307 31.824 0.2 27.717 0.2 22.695 L 0 22.695 L -0.2 22.695 C -0.2 27.938 4.086 32.224 9.33 32.224 L 9.33 32.024 Z M 0 22.695 L 0.2 22.695 C 0.2 22.448 0.243 22.237 0.337 22.094 C 0.421 21.964 0.558 21.87 0.812 21.87 L 0.812 21.67 L 0.812 21.47 C 0.434 21.47 0.165 21.624 0.002 21.875 C -0.153 22.113 -0.2 22.414 -0.2 22.695 L 0 22.695 Z M 15.586 4.377 L 15.429 4.501 C 17.22 6.772 19.16 9.572 20.424 12.549 C 21.689 15.526 22.27 18.659 21.375 21.612 L 21.567 21.67 L 21.758 21.728 C 22.69 18.651 22.077 15.415 20.792 12.392 C 19.508 9.368 17.544 6.536 15.743 4.253 L 15.586 4.377 Z M 21.567 21.67 L 21.567 21.87 L 26.286 21.87 L 26.286 21.67 L 26.286 21.47 L 21.567 21.47 L 21.567 21.67 Z M 26.286 21.67 L 26.468 21.753 C 28.123 18.123 26.643 14.567 24.175 11.529 C 21.705 8.489 18.206 5.915 15.698 4.211 L 15.586 4.377 L 15.473 4.542 C 17.976 6.242 21.434 8.789 23.865 11.782 C 26.298 14.777 27.663 18.166 26.104 21.587 L 26.286 21.67 Z M 19.856 21.67 L 20.043 21.739 C 21.242 18.479 20.297 14.851 18.591 11.505 C 16.881 8.153 14.387 5.044 12.422 2.796 L 12.271 2.928 L 12.121 3.06 C 14.08 5.3 16.548 8.38 18.234 11.687 C 19.924 14.999 20.809 18.499 19.668 21.601 L 19.856 21.67 Z M 12.271 2.928 L 12.071 2.928 L 12.071 21.67 L 12.271 21.67 L 12.471 21.67 L 12.471 2.928 L 12.271 2.928 Z M 12.271 21.67 L 12.271 21.87 L 19.856 21.87 L 19.856 21.67 L 19.856 21.47 L 12.271 21.47 L 12.271 21.67 Z M 30.852 23.294 L 30.852 23.094 L 1.648 23.094 L 1.648 23.294 L 1.648 23.494 L 30.852 23.494 L 30.852 23.294 Z M 1.648 23.294 L 1.449 23.31 C 1.768 27.401 5.22 30.6 9.33 30.6 L 9.33 30.4 L 9.33 30.2 C 5.429 30.2 2.15 27.162 1.847 23.279 L 1.648 23.294 Z M 9.33 30.4 L 9.33 30.6 L 23.171 30.6 L 23.171 30.4 L 23.171 30.2 L 9.33 30.2 L 9.33 30.4 Z M 23.171 30.4 L 23.171 30.6 C 27.281 30.6 30.732 27.401 31.051 23.31 L 30.852 23.294 L 30.653 23.279 C 30.35 27.162 27.072 30.2 23.171 30.2 L 23.171 30.4 Z" fill="currentColor" fill-rule="nonzero"></path>
</svg>