<svg xmlns="http://www.w3.org/2000/svg" width="347.465" height="56.583" viewBox="0 0 347.465 56.583" fill="none">
  <path d="M 40.616 8.449 L 39.298 15.115 C 36.895 13.565 32.09 11.937 27.051 11.937 C 17.595 11.937 7.596 18.06 7.596 30.617 C 7.596 43.096 17.363 49.22 27.051 49.22 C 32.787 49.22 36.663 48.135 39.686 46.429 L 38.988 53.25 C 35.888 54.878 32.4 55.576 26.199 55.576 C 13.952 55.576 0 47.049 0 30.462 C 0 13.642 14.107 5.271 26.199 5.271 C 32.865 5.271 37.593 6.743 40.616 8.449 Z" fill="currentColor" fill-rule="nonzero"></path>
  <path d="M 79.042 37.671 C 79.042 48.522 70.904 56.041 60.44 56.041 C 49.975 56.041 41.759 48.522 41.759 37.671 C 41.759 26.741 49.975 19.223 60.44 19.223 C 70.904 19.223 79.042 26.741 79.042 37.671 Z M 71.911 37.826 C 71.911 30.462 66.563 25.579 60.44 25.579 C 54.239 25.579 48.89 30.462 48.89 37.826 C 48.89 45.112 54.239 49.995 60.44 49.995 C 66.563 49.995 71.911 45.112 71.911 37.826 Z" fill="currentColor" fill-rule="nonzero"></path>
  <path d="M 112.82 55.188 L 105.767 55.188 L 105.767 32.632 C 105.767 28.989 103.519 25.269 97.628 25.269 C 91.97 25.269 89.179 28.989 89.179 32.632 L 89.179 55.188 L 82.126 55.188 L 82.126 20.075 L 88.559 20.075 L 88.559 24.649 L 88.637 24.649 C 90.187 21.548 93.365 19.223 99.488 19.223 C 107.162 19.223 112.82 24.106 112.82 31.935 L 112.82 55.188 Z" fill="currentColor" fill-rule="nonzero"></path>
  <path d="M 154.278 51.778 L 149.472 56.583 C 147.147 55.963 142.496 53.638 142.496 46.894 C 142.496 46.894 142.496 18.179 142.496 12.455 C 142.496 6.731 137.691 5.891 135.21 5.891 C 129.707 5.891 126.994 9.224 126.994 15.58 L 126.994 20.075 L 134.823 20.075 L 134.823 25.734 L 126.994 25.734 L 126.994 55.188 L 119.94 55.188 L 119.94 25.734 L 113.972 25.734 L 113.972 20.075 L 119.94 20.075 L 119.94 15.192 C 119.94 5.271 125.599 0 134.745 0 C 141.411 0 149.55 2.633 149.55 11.024 L 149.55 45.964 C 149.55 49.22 152.108 51.39 154.278 51.778 Z" fill="currentColor" fill-rule="nonzero"></path>
  <path d="M 186.895 55.188 L 180.462 55.188 L 180.462 50.615 L 180.384 50.615 C 178.834 53.715 175.656 56.041 169.533 56.041 C 161.859 56.041 156.201 51.158 156.201 43.329 L 156.201 20.075 L 163.254 20.075 L 163.254 42.631 C 163.254 46.274 165.502 49.995 171.393 49.995 C 177.051 49.995 179.842 46.274 179.842 42.631 L 179.842 20.075 L 186.895 20.075 L 186.895 55.188 Z" fill="currentColor" fill-rule="nonzero"></path>
  <path d="M 222.617 32.555 C 222.617 33.64 222.54 34.648 222.385 35.423 L 218.431 39.376 L 197.271 39.376 C 197.503 43.716 201.534 49.84 209.75 49.84 C 214.246 49.84 217.501 48.6 219.982 46.972 L 219.207 53.793 C 216.726 55.111 213.548 56.041 208.82 56.041 C 198.821 56.041 189.985 48.6 189.985 37.671 C 189.985 25.734 199.286 19.223 207.425 19.223 C 217.114 19.223 222.617 26.044 222.617 32.555 Z M 215.486 32.71 C 215.486 29.222 212.463 25.269 207.812 25.269 C 203.394 25.269 198.666 28.757 197.736 33.64 L 215.408 33.64 C 215.486 33.33 215.486 33.02 215.486 32.71 Z" fill="currentColor" fill-rule="nonzero"></path>
  <path d="M 256.428 55.188 L 249.375 55.188 L 249.375 32.632 C 249.375 28.989 247.127 25.269 241.236 25.269 C 235.578 25.269 232.787 28.989 232.787 32.632 L 232.787 55.188 L 225.734 55.188 L 225.734 20.075 L 232.167 20.075 L 232.167 24.649 L 232.245 24.649 C 233.795 21.548 236.973 19.223 243.096 19.223 C 250.77 19.223 256.428 24.106 256.428 31.935 L 256.428 55.188 Z" fill="currentColor" fill-rule="nonzero"></path>
  <path d="M 289.36 22.168 L 288.042 28.602 C 284.864 26.586 282.074 25.966 278.741 25.966 C 272.462 25.966 266.649 30.462 266.649 37.826 C 266.649 45.112 272.617 49.607 278.896 49.607 C 282.229 49.607 284.864 48.987 288.042 47.437 L 287.345 53.948 C 284.787 55.111 281.686 55.653 278.276 55.653 C 268.819 55.653 259.518 48.91 259.518 37.671 C 259.518 26.354 268.819 19.61 278.276 19.61 C 282.849 19.61 286.414 20.541 289.36 22.168 Z" fill="currentColor" fill-rule="nonzero"></path>
  <path d="M 322.413 32.555 C 322.413 33.64 322.335 34.648 322.18 35.423 L 318.227 39.376 L 297.067 39.376 C 297.299 43.716 301.33 49.84 309.546 49.84 C 314.042 49.84 317.297 48.6 319.778 46.972 L 319.003 53.793 C 316.522 55.111 313.344 56.041 308.616 56.041 C 298.617 56.041 289.781 48.6 289.781 37.671 C 289.781 25.734 299.082 19.223 307.221 19.223 C 316.91 19.223 322.413 26.044 322.413 32.555 Z M 315.282 32.71 C 315.282 29.222 312.259 25.269 307.608 25.269 C 303.19 25.269 298.462 28.757 297.532 33.64 L 315.204 33.64 C 315.282 33.33 315.282 33.02 315.282 32.71 Z" fill="currentColor" fill-rule="nonzero"></path>
  <path d="M 347.465 45.422 C 347.465 51.003 343.202 55.653 334.831 55.653 C 330.801 55.653 327.468 54.646 325.065 53.095 L 324.212 45.732 C 326.77 47.825 330.801 49.685 334.986 49.685 C 338.242 49.685 340.412 47.902 340.412 45.654 C 340.412 43.251 338.707 41.934 335.529 40.771 C 328.708 38.291 324.832 35.113 324.832 29.532 C 324.832 23.718 329.56 19.61 336.459 19.61 C 340.412 19.61 344.21 21.006 345.528 21.858 L 344.133 27.749 C 342.505 26.664 340.102 25.501 336.381 25.501 C 333.513 25.501 331.653 27.051 331.653 29.299 C 331.653 31.47 333.203 32.477 336.614 33.717 C 343.512 36.198 347.465 39.376 347.465 45.422 Z" fill="currentColor" fill-rule="nonzero"></path>
</svg>