<svg width="512" height="512" viewBox="0 0 512 512" fill="none" xmlns="http://www.w3.org/2000/svg">
<rect width="511.489" height="511.489" rx="255.745" fill="white"></rect>
<path fill-rule="evenodd" clip-rule="evenodd" d="M443.594 162.46C437.741 171.708 426.18 185.582 407.638 198.3C377.712 216.869 335.472 221.378 274.718 213.881C223.812 207.599 189.767 205.726 174.133 207.736C156.565 209.99 132.644 225.173 129.351 235.299C125.574 246.911 128.253 262.898 132.511 269.329C135.133 273.289 139.448 278.488 148.69 269.329C159.706 258.412 176.445 259.579 227.615 265.359C290.301 273.909 310.954 274.981 331.738 268.828C334.703 267.95 337.15 267.213 337.15 267.213C337.15 267.213 327.901 278.077 310.022 288.482C294.091 297.089 268.717 300.694 219.694 298.888C125.574 295.419 190.319 341.665 192.631 367.021C192.85 369.425 197.256 383.287 190.319 397.967C188.007 394.848 152.166 350.915 138.292 332.681C98.9829 278.077 85.3724 252.181 92.046 217.36C97.2149 190.403 119.794 171.711 145.931 165.93C159.103 163.017 172.45 162.965 244.658 174.146C333.123 187.844 380.031 189.959 406.814 180.958C421.059 176.171 435.428 165.928 441.593 161.305C445.828 157.837 446.984 156.681 446.984 156.681C446.984 156.681 446.329 158.138 443.594 162.46Z" fill="#033059"></path>
</svg>