<svg width="512" height="512" viewBox="0 0 512 512" fill="none" xmlns="http://www.w3.org/2000/svg">
<rect width="511.489" height="511.489" fill="#033059"></rect>
<path fill-rule="evenodd" clip-rule="evenodd" d="M473.455 151.832C466.823 162.312 453.722 178.034 432.711 192.446C398.799 213.487 350.934 218.597 282.089 210.102C224.404 202.983 185.825 200.861 168.108 203.138C148.201 205.692 121.094 222.897 117.362 234.372C113.083 247.531 116.119 265.647 120.944 272.934C123.915 277.421 128.805 283.313 139.277 272.934C151.76 260.563 170.729 261.885 228.713 268.436C299.747 278.124 323.151 279.338 346.703 272.366C350.062 271.371 352.835 270.536 352.835 270.536C352.835 270.536 342.354 282.847 322.094 294.638C304.042 304.391 275.289 308.476 219.738 306.429C113.083 302.499 186.45 354.904 189.07 383.636C189.319 386.36 194.311 402.068 186.45 418.703C183.83 415.169 143.216 365.385 127.495 344.723C82.9504 282.847 67.5273 253.503 75.0897 214.044C80.947 183.497 106.533 162.316 136.15 155.765C151.077 152.464 166.202 152.404 248.026 165.075C348.272 180.597 401.427 182.994 431.777 172.794C447.919 167.369 464.201 155.763 471.188 150.524C475.987 146.594 477.297 145.284 477.297 145.284C477.297 145.284 476.554 146.935 473.455 151.832Z" fill="white"></path>
</svg>