<svg width="319" height="245" viewBox="0 0 319 245" fill="none" xmlns="http://www.w3.org/2000/svg">
<rect width="318.399" height="244.922" rx="40" fill="#033059"></rect>
<path fill-rule="evenodd" clip-rule="evenodd" d="M272.971 59.6519C269.63 64.9308 263.031 72.85 252.448 80.1097C235.366 90.7083 211.255 93.2822 176.577 89.003C147.521 85.4171 128.088 84.3482 119.164 85.4955C109.136 86.7818 95.482 95.4481 93.6022 101.228C91.4468 107.857 92.9758 116.982 95.4063 120.652C96.903 122.913 99.3659 125.88 104.641 120.652C110.929 114.421 120.484 115.087 149.691 118.387C185.472 123.267 197.261 123.879 209.124 120.366C210.816 119.865 212.213 119.445 212.213 119.445C212.213 119.445 206.934 125.646 196.729 131.585C187.635 136.498 173.152 138.556 145.17 137.524C91.4468 135.545 128.403 161.942 129.722 176.415C129.848 177.787 132.362 185.699 128.403 194.078C127.083 192.298 106.625 167.221 98.7059 156.814C76.2685 125.646 68.4996 110.865 72.3089 90.9886C75.2593 75.6018 88.1471 64.9326 103.066 61.6329C110.585 59.97 118.203 59.9401 159.419 66.3224C209.915 74.1412 236.689 75.3483 251.977 70.2108C260.108 67.4781 268.31 61.6317 271.829 58.9929C274.246 57.0134 274.906 56.3535 274.906 56.3535C274.906 56.3535 274.532 57.1852 272.971 59.6519Z" fill="#D3E7F7"></path>
</svg>