<svg width="134" height="132" viewBox="0 0 134 132" fill="none" xmlns="http://www.w3.org/2000/svg">
<path fill-rule="evenodd" clip-rule="evenodd" d="M132.688 35.0429C130.726 38.144 126.849 42.7962 120.632 47.0609C110.597 53.2872 96.4333 54.7992 76.0614 52.2854C58.9919 50.1788 47.5759 49.5509 42.3335 50.2249C36.4428 50.9805 28.4216 56.0716 27.3173 59.4673C26.051 63.361 26.9493 68.7216 28.3771 70.8779C29.2563 72.2059 30.7032 73.9492 33.8021 70.8779C37.4959 67.2173 43.1088 67.6085 60.267 69.5469C81.2867 72.4137 88.2121 72.7732 95.1813 70.7099C96.1753 70.4157 96.996 70.1684 96.996 70.1684C96.996 70.1684 93.8946 73.8113 87.8994 77.3004C82.5575 80.1864 74.0492 81.3953 57.6111 80.7895C26.051 79.6265 47.761 95.1336 48.5363 103.636C48.6098 104.442 50.087 109.09 47.761 114.012C46.9856 112.967 34.9676 98.235 30.3155 92.1212C17.1345 73.8114 12.5706 65.1281 14.8084 53.4518C16.5416 44.4127 24.1126 38.145 32.8768 36.2066C37.2937 35.2298 41.7694 35.2122 65.9818 38.9615C95.6457 43.5547 111.375 44.2638 120.356 41.2457C125.132 39.6404 129.95 36.2059 132.018 34.6557C133.438 33.4929 133.825 33.1052 133.825 33.1052C133.825 33.1052 133.605 33.5938 132.688 35.0429Z" fill="#033059"></path>
</svg>