<svg width="319" height="245" viewBox="0 0 319 245" fill="none" xmlns="http://www.w3.org/2000/svg">
<rect width="318.399" height="244.922" rx="40" fill="#033059"></rect>
<path fill-rule="evenodd" clip-rule="evenodd" d="M272.967 59.6519C269.626 64.9308 263.027 72.85 252.444 80.1097C235.362 90.7083 211.252 93.2822 176.573 89.003C147.517 85.4171 128.084 84.3482 119.16 85.4955C109.132 86.7818 95.4781 95.4481 93.5983 101.228C91.4429 107.857 92.9719 116.982 95.4024 120.652C96.899 122.913 99.362 125.88 104.637 120.652C110.925 114.421 120.48 115.087 149.687 118.387C185.468 123.267 197.257 123.879 209.12 120.366C210.812 119.865 212.209 119.445 212.209 119.445C212.209 119.445 206.93 125.646 196.725 131.585C187.631 136.498 173.148 138.556 145.166 137.524C91.4429 135.545 128.399 161.942 129.719 176.415C129.844 177.787 132.358 185.699 128.399 194.078C127.079 192.298 106.621 167.221 98.702 156.814C76.2645 125.646 68.4957 110.865 72.305 90.9886C75.2554 75.6018 88.1432 64.9326 103.062 61.6329C110.581 59.97 118.2 59.9401 159.415 66.3224C209.911 74.1412 236.686 75.3483 251.973 70.2108C260.104 67.4781 268.306 61.6317 271.825 58.9929C274.242 57.0134 274.902 56.3535 274.902 56.3535C274.902 56.3535 274.528 57.1852 272.967 59.6519Z" fill="#F4A700"></path>
</svg>