<svg width="604" height="88" viewBox="0 0 604 88" fill="none" xmlns="http://www.w3.org/2000/svg">
<path d="M258.863 27.6311L257.381 35.1289C254.679 33.3852 249.273 31.5544 243.606 31.5544C232.97 31.5544 221.723 38.4418 221.723 52.5655C221.723 66.6019 232.709 73.4894 243.606 73.4894C250.058 73.4894 254.417 72.2688 257.817 70.3508L257.033 78.0229C253.545 79.8537 249.622 80.6384 242.647 80.6384C228.873 80.6384 213.18 71.0483 213.18 52.3911C213.18 33.4724 229.047 24.0566 242.647 24.0566C250.145 24.0566 255.463 25.7131 258.863 27.6311Z" fill="#033059"></path>
<path d="M302.084 60.4991C302.084 72.7047 292.93 81.1615 281.161 81.1615C269.391 81.1615 260.149 72.7047 260.149 60.4991C260.149 48.2063 269.391 39.7496 281.161 39.7496C292.93 39.7496 302.084 48.2063 302.084 60.4991ZM294.064 60.6735C294.064 52.3911 288.048 46.8986 281.161 46.8986C274.186 46.8986 268.17 52.3911 268.17 60.6735C268.17 68.8687 274.186 74.3612 281.161 74.3612C288.048 74.3612 294.064 68.8687 294.064 60.6735Z" fill="#033059"></path>
<path d="M340.077 80.2025H332.144V54.8322C332.144 50.7346 329.615 46.5498 322.989 46.5498C316.625 46.5498 313.486 50.7346 313.486 54.8322V80.2025H305.553V40.7086H312.789V45.8524H312.876C314.62 42.365 318.194 39.7496 325.082 39.7496C333.713 39.7496 340.077 45.2421 340.077 54.0476V80.2025Z" fill="#033059"></path>
<path d="M386.708 76.3664L381.302 81.7718C378.687 81.0743 373.456 78.4588 373.456 70.8739C373.456 70.8739 373.456 38.5759 373.456 32.1377C373.456 25.6995 368.051 24.7541 365.261 24.7541C359.071 24.7541 356.019 28.5029 356.019 35.652V40.7086H364.825V47.0729H356.019V80.2025H348.086V47.0729H341.373V40.7086H348.086V35.216C348.086 24.0566 354.45 18.1282 364.738 18.1282C372.235 18.1282 381.39 21.0896 381.39 30.5281V69.8277C381.39 73.4894 384.267 75.9305 386.708 76.3664Z" fill="#033059"></path>
<path d="M423.395 80.2025H416.159V75.0587H416.071C414.328 78.546 410.753 81.1615 403.866 81.1615C395.235 81.1615 388.87 75.669 388.87 66.8635V40.7086H396.804V66.0788C396.804 70.1764 399.332 74.3612 405.958 74.3612C412.323 74.3612 415.461 70.1764 415.461 66.0788V40.7086H423.395V80.2025Z" fill="#033059"></path>
<path d="M463.574 54.745C463.574 55.9656 463.487 57.099 463.312 57.9708L458.866 62.4171H435.065C435.327 67.2994 439.86 74.1868 449.102 74.1868C454.158 74.1868 457.82 72.7919 460.61 70.9611L459.738 78.6332C456.948 80.1153 453.373 81.1615 448.055 81.1615C436.809 81.1615 426.87 72.7919 426.87 60.4991C426.87 47.0729 437.332 39.7496 446.486 39.7496C457.384 39.7496 463.574 47.4217 463.574 54.745ZM455.553 54.9194C455.553 50.9962 452.153 46.5498 446.922 46.5498C441.953 46.5498 436.634 50.4731 435.588 55.9656H455.466C455.553 55.6169 455.553 55.2681 455.553 54.9194Z" fill="#033059"></path>
<path d="M501.604 80.2025H493.67V54.8322C493.67 50.7346 491.142 46.5498 484.516 46.5498C478.152 46.5498 475.013 50.7346 475.013 54.8322V80.2025H467.08V40.7086H474.316V45.8524H474.403C476.147 42.365 479.721 39.7496 486.609 39.7496C495.24 39.7496 501.604 45.2421 501.604 54.0476V80.2025Z" fill="#033059"></path>
<path d="M538.645 43.0625L537.162 50.2987C533.588 48.0319 530.449 47.3345 526.701 47.3345C519.639 47.3345 513.1 52.3911 513.1 60.6735C513.1 68.8687 519.813 73.9253 526.875 73.9253C530.624 73.9253 533.588 73.2278 537.162 71.4842L536.378 78.8075C533.501 80.1153 530.013 80.7256 526.177 80.7256C515.541 80.7256 505.079 73.1406 505.079 60.4991C505.079 47.7704 515.541 40.1855 526.177 40.1855C531.321 40.1855 535.332 41.2317 538.645 43.0625Z" fill="#033059"></path>
<path d="M575.822 54.745C575.822 55.9656 575.735 57.099 575.56 57.9708L571.114 62.4171H547.313C547.575 67.2994 552.108 74.1868 561.35 74.1868C566.406 74.1868 570.068 72.7919 572.858 70.9611L571.986 78.6332C569.196 80.1153 565.622 81.1615 560.303 81.1615C549.057 81.1615 539.118 72.7919 539.118 60.4991C539.118 47.0729 549.58 39.7496 558.734 39.7496C569.632 39.7496 575.822 47.4217 575.822 54.745ZM567.801 54.9194C567.801 50.9962 564.401 46.5498 559.17 46.5498C554.201 46.5498 548.882 50.4731 547.836 55.9656H567.714C567.801 55.6169 567.801 55.2681 567.801 54.9194Z" fill="#033059"></path>
<path d="M604 69.2174C604 75.4946 599.205 80.7256 589.79 80.7256C585.256 80.7256 581.507 79.5922 578.805 77.8485L577.846 69.5661C580.723 71.9201 585.256 74.0125 589.964 74.0125C593.626 74.0125 596.067 72.0073 596.067 69.479C596.067 66.7763 594.149 65.2942 590.574 63.9864C582.902 61.1966 578.543 57.6221 578.543 51.3449C578.543 44.8062 583.861 40.1855 591.621 40.1855C596.067 40.1855 600.339 41.7548 601.821 42.7138L600.252 49.3397C598.421 48.1191 595.718 46.8114 591.533 46.8114C588.308 46.8114 586.215 48.555 586.215 51.0833C586.215 53.5245 587.959 54.6579 591.795 56.0528C599.554 58.8426 604 62.4171 604 69.2174Z" fill="#033059"></path>
<path d="M105.207 54.9933C105.207 56.2139 105.12 57.3473 104.945 58.2191L100.499 62.6654H76.6981C76.9596 67.5477 81.4931 74.4351 90.7345 74.4351C95.7912 74.4351 99.4528 73.0402 102.243 71.2094L101.371 78.8815C98.581 80.3636 95.0065 81.4098 89.6883 81.4098C78.4417 81.4098 68.5029 73.0402 68.5029 60.7474C68.5029 47.3212 78.9648 39.9979 88.119 39.9979C99.0169 39.9979 105.207 47.67 105.207 54.9933ZM97.1861 55.1677C97.1861 51.2445 93.7859 46.7981 88.555 46.7981C83.5855 46.7981 78.2674 50.7214 77.2212 56.2139H97.0989C97.1861 55.8652 97.1861 55.5164 97.1861 55.1677Z" fill="#033059"></path>
<path d="M132.01 40.9569L130.963 47.3212C130.256 47.3212 130.486 47.3212 129.353 47.3212C124.209 47.3212 116.646 51.3316 116.646 60.4859V80.4508H108.713V40.9569H116.646V48.9777H116.733C118.216 43.3108 122.251 40.9569 127.743 40.9569C128.877 40.9569 131.22 40.9569 132.01 40.9569Z" fill="#033059"></path>
<path d="M159.358 40.9569L157.964 47.3212H145.409V68.3323C145.409 72.8659 147.763 74.4351 151.948 74.4351C153.343 74.4351 154.563 74.2608 155.522 73.912L154.825 80.1892C153.779 80.7123 152.035 80.8867 150.466 80.8867C143.317 80.8867 137.563 76.7891 137.563 69.117V47.3212H129.803V40.9569H137.563V32.936L145.409 28.8384V40.9569H159.358Z" fill="#033059"></path>
<path d="M195.659 54.9933C195.659 56.2139 195.572 57.3473 195.398 58.2191L190.951 62.6654H167.15C167.412 67.5477 171.946 74.4351 181.187 74.4351C186.244 74.4351 189.905 73.0402 192.695 71.2094L191.823 78.8815C189.033 80.3636 185.459 81.4098 180.141 81.4098C168.894 81.4098 158.955 73.0402 158.955 60.7474C158.955 47.3212 169.417 39.9979 178.571 39.9979C189.469 39.9979 195.659 47.67 195.659 54.9933ZM187.638 55.1677C187.638 51.2445 184.238 46.7981 179.007 46.7981C174.038 46.7981 168.72 50.7214 167.674 56.2139H187.551C187.638 55.8652 187.638 55.5164 187.638 55.1677ZM188.685 24.3921C188.685 24.828 188.162 25.5255 187.464 26.2229C184.413 29.5359 180.925 32.1514 177.002 34.5053L172.73 32.6745C176.043 30.1462 180.315 25.9614 183.018 22.2125C183.628 21.3407 184.587 20.9048 185.197 20.9048C186.331 20.9048 188.685 23.3459 188.685 24.3921Z" fill="#033059"></path>
<path fill-rule="evenodd" clip-rule="evenodd" d="M88.0092 23.2432C86.7075 25.3001 84.1362 28.3858 80.0123 31.2145C73.3565 35.3442 63.962 36.3471 50.4498 34.6797C39.128 33.2825 31.556 32.866 28.0788 33.3131C24.1717 33.8143 18.8514 37.1911 18.1189 39.4433C17.2791 42.0259 17.8748 45.5815 18.8219 47.0118C19.405 47.8926 20.3647 49.0488 22.4202 47.0118C24.8702 44.5837 28.5931 44.8432 39.9738 46.1289C53.9156 48.0304 58.5091 48.2688 63.1316 46.9003C63.7909 46.7052 64.3352 46.5412 64.3352 46.5412C64.3352 46.5412 62.2781 48.9574 58.3017 51.2717C54.7585 53.1859 49.1151 53.9877 38.2121 53.5859C17.2791 52.8145 31.6788 63.1 32.193 68.7393C32.2418 69.2739 33.2216 72.3569 31.6788 75.6218C31.1645 74.9283 23.1932 65.1571 20.1076 61.1019C11.3649 48.9574 8.33783 43.198 9.82208 35.4534C10.9717 29.458 15.9934 25.3008 21.8064 24.0151C24.736 23.3672 27.7047 23.3555 43.7642 25.8423C63.4396 28.8889 73.8722 29.3593 79.829 27.3574C82.9973 26.2926 86.1929 24.0146 87.5643 22.9864C88.5061 22.2151 88.7632 21.958 88.7632 21.958C88.7632 21.958 88.6174 22.2821 88.0092 23.2432Z" fill="#033059"></path>
</svg>