<svg width="804" height="340" viewBox="0 0 804 340" fill="none" xmlns="http://www.w3.org/2000/svg">
<path d="M93.7191 173.509L90.6786 188.891C85.1342 185.314 74.0453 181.558 62.4198 181.558C40.5997 181.558 17.5276 195.687 17.5276 224.661C17.5276 253.457 40.0631 267.586 62.4198 267.586C75.6549 267.586 84.5976 265.082 91.5729 261.148L89.9632 276.887C82.8091 280.643 74.7607 282.252 60.4524 282.252C32.1936 282.252 0 262.578 0 224.304C0 185.493 32.5513 166.176 60.4524 166.176C75.8338 166.176 86.7439 169.575 93.7191 173.509Z" fill="white"></path>
<path d="M182.386 240.937C182.386 265.977 163.606 283.325 139.461 283.325C115.316 283.325 96.3572 265.977 96.3572 240.937C96.3572 215.719 115.316 198.37 139.461 198.37C163.606 198.37 182.386 215.719 182.386 240.937ZM165.931 241.295C165.931 224.304 153.59 213.036 139.461 213.036C125.153 213.036 112.812 224.304 112.812 241.295C112.812 258.107 125.153 269.375 139.461 269.375C153.59 269.375 165.931 258.107 165.931 241.295Z" fill="white"></path>
<path d="M260.327 281.358H244.051V229.312C244.051 220.906 238.864 212.321 225.271 212.321C212.215 212.321 205.776 220.906 205.776 229.312V281.358H189.501V200.337H204.345V210.89H204.524C208.101 203.736 215.434 198.37 229.564 198.37C247.27 198.37 260.327 209.638 260.327 227.702V281.358Z" fill="white"></path>
<path d="M355.988 273.488L344.899 284.577C339.533 283.147 328.802 277.781 328.802 262.221C328.802 262.221 328.802 195.962 328.802 182.754C328.802 169.547 317.713 167.607 311.99 167.607C299.291 167.607 293.032 175.298 293.032 189.964V200.337H311.096V213.394H293.032V281.358H276.756V213.394H262.984V200.337H276.756V189.07C276.756 166.176 289.812 154.014 310.917 154.014C326.298 154.014 345.078 160.09 345.078 179.453V260.074C345.078 267.586 350.98 272.594 355.988 273.488Z" fill="white"></path>
<path d="M431.25 281.358H416.405V270.806H416.227C412.65 277.96 405.317 283.325 391.187 283.325C373.481 283.325 360.424 272.058 360.424 253.993V200.337H376.7V252.384C376.7 260.79 381.887 269.375 395.48 269.375C408.536 269.375 414.975 260.79 414.975 252.384V200.337H431.25V281.358Z" fill="white"></path>
<path d="M513.676 229.133C513.676 231.637 513.498 233.962 513.14 235.75L504.018 244.872H455.191C455.728 254.888 465.028 269.017 483.987 269.017C494.36 269.017 501.872 266.155 507.595 262.4L505.807 278.139C500.084 281.179 492.751 283.325 481.841 283.325C458.768 283.325 438.379 266.155 438.379 240.937C438.379 213.394 459.842 198.37 478.621 198.37C500.978 198.37 513.676 214.109 513.676 229.133ZM497.222 229.491C497.222 221.442 490.247 212.321 479.515 212.321C469.321 212.321 458.411 220.369 456.265 231.637H497.043C497.222 230.921 497.222 230.206 497.222 229.491Z" fill="white"></path>
<path d="M591.694 281.358H575.419V229.312C575.419 220.906 570.232 212.321 556.639 212.321C543.583 212.321 537.144 220.906 537.144 229.312V281.358H520.868V200.337H535.713V210.89H535.892C539.469 203.736 546.802 198.37 560.931 198.37C578.638 198.37 591.694 209.638 591.694 227.702V281.358Z" fill="white"></path>
<path d="M667.682 205.166L664.641 220.011C657.308 215.361 650.869 213.93 643.179 213.93C628.692 213.93 615.278 224.304 615.278 241.295C615.278 258.107 629.049 268.481 643.537 268.481C651.227 268.481 657.308 267.05 664.641 263.473L663.031 278.496C657.129 281.179 649.975 282.431 642.106 282.431C620.286 282.431 598.823 266.871 598.823 240.937C598.823 214.825 620.286 199.264 642.106 199.264C652.658 199.264 660.885 201.411 667.682 205.166Z" fill="white"></path>
<path d="M743.95 229.133C743.95 231.637 743.771 233.962 743.413 235.75L734.292 244.872H685.465C686.002 254.888 695.302 269.017 714.26 269.017C724.634 269.017 732.146 266.155 737.869 262.4L736.081 278.139C730.357 281.179 723.024 283.325 712.114 283.325C689.042 283.325 668.653 266.155 668.653 240.937C668.653 213.394 690.115 198.37 708.895 198.37C731.251 198.37 743.95 214.109 743.95 229.133ZM727.496 229.491C727.496 221.442 720.52 212.321 709.789 212.321C699.594 212.321 688.684 220.369 686.538 231.637H727.317C727.496 230.921 727.496 230.206 727.496 229.491Z" fill="white"></path>
<path d="M801.757 258.822C801.757 271.7 791.92 282.431 772.604 282.431C763.304 282.431 755.613 280.106 750.069 276.529L748.101 259.538C754.004 264.367 763.304 268.659 772.962 268.659C780.474 268.659 785.482 264.546 785.482 259.359C785.482 253.815 781.547 250.774 774.214 248.091C758.475 242.368 749.532 235.035 749.532 222.158C749.532 208.744 760.442 199.264 776.36 199.264C785.482 199.264 794.245 202.484 797.286 204.451L794.067 218.044C790.311 215.54 784.766 212.857 776.181 212.857C769.564 212.857 765.271 216.434 765.271 221.621C765.271 226.629 768.848 228.954 776.718 231.816C792.636 237.539 801.757 244.872 801.757 258.822Z" fill="white"></path>
<path d="M3.7251 339.604V311.868H15.1366C17.5933 311.868 19.6933 312.264 21.4367 313.056C23.2066 313.849 24.567 314.985 25.5179 316.464C26.4689 317.943 26.9444 319.7 26.9444 321.734C26.9444 323.768 26.4689 325.525 25.5179 327.004C24.567 328.483 23.2066 329.619 21.4367 330.411C19.6933 331.204 17.5933 331.6 15.1366 331.6H6.57798L8.87613 329.183V339.604H3.7251ZM8.87613 329.738L6.57798 327.242H14.8989C17.1706 327.242 18.8744 326.766 20.0103 325.815C21.1726 324.838 21.7537 323.477 21.7537 321.734C21.7537 319.964 21.1726 318.604 20.0103 317.653C18.8744 316.702 17.1706 316.226 14.8989 316.226H6.57798L8.87613 313.69V329.738Z" fill="white"></path>
<path d="M54.9813 340C52.8152 340 50.8208 339.644 48.9982 338.93C47.1755 338.217 45.5906 337.227 44.2434 335.959C42.8962 334.664 41.8528 333.159 41.1131 331.442C40.3735 329.698 40.0037 327.796 40.0037 325.736C40.0037 323.675 40.3735 321.787 41.1131 320.07C41.8528 318.326 42.8962 316.821 44.2434 315.553C45.5906 314.258 47.1755 313.254 48.9982 312.541C50.8208 311.828 52.802 311.471 54.9417 311.471C57.1077 311.471 59.0889 311.828 60.8852 312.541C62.7078 313.254 64.2928 314.258 65.64 315.553C66.9872 316.821 68.0306 318.326 68.7702 320.07C69.5098 321.787 69.8797 323.675 69.8797 325.736C69.8797 327.796 69.5098 329.698 68.7702 331.442C68.0306 333.185 66.9872 334.691 65.64 335.959C64.2928 337.227 62.7078 338.217 60.8852 338.93C59.0889 339.644 57.1209 340 54.9813 340ZM54.9417 335.483C56.3417 335.483 57.6361 335.245 58.8248 334.77C60.0134 334.294 61.0437 333.621 61.9154 332.749C62.7871 331.851 63.4607 330.821 63.9362 329.659C64.4381 328.47 64.689 327.162 64.689 325.736C64.689 324.309 64.4381 323.015 63.9362 321.853C63.4607 320.664 62.7871 319.634 61.9154 318.762C61.0437 317.864 60.0134 317.177 58.8248 316.702C57.6361 316.226 56.3417 315.988 54.9417 315.988C53.5416 315.988 52.2473 316.226 51.0586 316.702C49.8963 317.177 48.8661 317.864 47.968 318.762C47.0962 319.634 46.4094 320.664 45.9075 321.853C45.4321 323.015 45.1943 324.309 45.1943 325.736C45.1943 327.136 45.4321 328.43 45.9075 329.619C46.4094 330.808 47.0962 331.851 47.968 332.749C48.8397 333.621 49.8699 334.294 51.0586 334.77C52.2473 335.245 53.5416 335.483 54.9417 335.483Z" fill="white"></path>
<path d="M84.8492 339.604V311.868H96.2608C98.7174 311.868 100.817 312.264 102.561 313.056C104.331 313.849 105.691 314.985 106.642 316.464C107.593 317.943 108.069 319.7 108.069 321.734C108.069 323.768 107.593 325.525 106.642 327.004C105.691 328.457 104.331 329.579 102.561 330.372C100.817 331.138 98.7174 331.521 96.2608 331.521H87.7021L90.0003 329.183V339.604H84.8492ZM102.997 339.604L95.9834 329.54H101.491L108.544 339.604H102.997ZM90.0003 329.738L87.7021 327.281H96.023C98.2948 327.281 99.9986 326.792 101.134 325.815C102.297 324.838 102.878 323.477 102.878 321.734C102.878 319.964 102.297 318.604 101.134 317.653C99.9986 316.702 98.2948 316.226 96.023 316.226H87.7021L90.0003 313.69V329.738Z" fill="white"></path>
<path d="M128.581 339.604V316.226H119.388V311.868H142.924V316.226H133.732V339.604H128.581Z" fill="white"></path>
<path d="M176.76 339.604V311.868H181.911V335.245H196.413V339.604H176.76Z" fill="white"></path>
<path d="M222.483 340C220.317 340 218.322 339.644 216.5 338.93C214.677 338.217 213.092 337.227 211.745 335.959C210.398 334.664 209.354 333.159 208.615 331.442C207.875 329.698 207.505 327.796 207.505 325.736C207.505 323.675 207.875 321.787 208.615 320.07C209.354 318.326 210.398 316.821 211.745 315.553C213.092 314.258 214.677 313.254 216.5 312.541C218.322 311.828 220.303 311.471 222.443 311.471C224.609 311.471 226.59 311.828 228.387 312.541C230.209 313.254 231.794 314.258 233.141 315.553C234.489 316.821 235.532 318.326 236.272 320.07C237.011 321.787 237.381 323.675 237.381 325.736C237.381 327.796 237.011 329.698 236.272 331.442C235.532 333.185 234.489 334.691 233.141 335.959C231.794 337.227 230.209 338.217 228.387 338.93C226.59 339.644 224.622 340 222.483 340ZM222.443 335.483C223.843 335.483 225.137 335.245 226.326 334.77C227.515 334.294 228.545 333.621 229.417 332.749C230.289 331.851 230.962 330.821 231.438 329.659C231.94 328.47 232.19 327.162 232.19 325.736C232.19 324.309 231.94 323.015 231.438 321.853C230.962 320.664 230.289 319.634 229.417 318.762C228.545 317.864 227.515 317.177 226.326 316.702C225.137 316.226 223.843 315.988 222.443 315.988C221.043 315.988 219.749 316.226 218.56 316.702C217.398 317.177 216.368 317.864 215.469 318.762C214.598 319.634 213.911 320.664 213.409 321.853C212.934 323.015 212.696 324.309 212.696 325.736C212.696 327.136 212.934 328.43 213.409 329.619C213.911 330.808 214.598 331.851 215.469 332.749C216.341 333.621 217.371 334.294 218.56 334.77C219.749 335.245 221.043 335.483 222.443 335.483Z" fill="white"></path>
<path d="M252.351 339.604V311.868H257.502V339.604H252.351Z" fill="white"></path>
<path d="M283.112 340C280.946 340 278.872 339.696 276.891 339.089C274.91 338.455 273.338 337.649 272.176 336.672L273.959 332.67C275.068 333.542 276.442 334.268 278.08 334.849C279.717 335.43 281.395 335.721 283.112 335.721C284.565 335.721 285.74 335.562 286.638 335.245C287.536 334.928 288.197 334.506 288.619 333.977C289.042 333.423 289.253 332.802 289.253 332.115C289.253 331.27 288.95 330.596 288.342 330.094C287.734 329.566 286.942 329.157 285.965 328.866C285.014 328.549 283.944 328.259 282.755 327.994C281.593 327.73 280.417 327.426 279.229 327.083C278.066 326.713 276.996 326.251 276.019 325.696C275.068 325.115 274.289 324.349 273.681 323.398C273.074 322.447 272.77 321.232 272.77 319.753C272.77 318.247 273.166 316.873 273.959 315.632C274.778 314.364 276.006 313.36 277.644 312.621C279.308 311.854 281.408 311.471 283.944 311.471C285.608 311.471 287.259 311.683 288.897 312.105C290.534 312.528 291.961 313.136 293.176 313.928L291.551 317.93C290.31 317.19 289.029 316.649 287.708 316.305C286.387 315.936 285.119 315.751 283.904 315.751C282.478 315.751 281.315 315.922 280.417 316.266C279.546 316.609 278.898 317.058 278.476 317.613C278.08 318.168 277.881 318.802 277.881 319.515C277.881 320.36 278.172 321.047 278.753 321.575C279.361 322.077 280.14 322.474 281.091 322.764C282.068 323.055 283.151 323.345 284.34 323.636C285.529 323.9 286.704 324.204 287.866 324.547C289.055 324.891 290.125 325.34 291.076 325.894C292.053 326.449 292.833 327.202 293.414 328.153C294.021 329.104 294.325 330.306 294.325 331.759C294.325 333.238 293.916 334.611 293.097 335.879C292.304 337.121 291.076 338.125 289.412 338.891C287.748 339.63 285.648 340 283.112 340Z" fill="white"></path>
<path d="M308.942 339.604V311.868H314.093V339.604H308.942Z" fill="white"></path>
<path d="M331.105 339.604V311.868H342.517C344.973 311.868 347.073 312.264 348.817 313.056C350.587 313.849 351.947 314.985 352.898 316.464C353.849 317.943 354.324 319.7 354.324 321.734C354.324 323.768 353.849 325.525 352.898 327.004C351.947 328.457 350.587 329.579 348.817 330.372C347.073 331.138 344.973 331.521 342.517 331.521H333.958L336.256 329.183V339.604H331.105ZM349.253 339.604L342.239 329.54H347.747L354.8 339.604H349.253ZM336.256 329.738L333.958 327.281H342.279C344.551 327.281 346.254 326.792 347.39 325.815C348.553 324.838 349.134 323.477 349.134 321.734C349.134 319.964 348.553 318.604 347.39 317.653C346.254 316.702 344.551 316.226 342.279 316.226H333.958L336.256 313.69V329.738Z" fill="white"></path>
<path d="M378.195 340C376.029 340 373.956 339.696 371.974 339.089C369.993 338.455 368.422 337.649 367.259 336.672L369.042 332.67C370.152 333.542 371.525 334.268 373.163 334.849C374.801 335.43 376.478 335.721 378.195 335.721C379.648 335.721 380.824 335.562 381.722 335.245C382.62 334.928 383.28 334.506 383.703 333.977C384.126 333.423 384.337 332.802 384.337 332.115C384.337 331.27 384.033 330.596 383.426 330.094C382.818 329.566 382.026 329.157 381.048 328.866C380.097 328.549 379.027 328.259 377.839 327.994C376.676 327.73 375.501 327.426 374.312 327.083C373.15 326.713 372.08 326.251 371.103 325.696C370.152 325.115 369.373 324.349 368.765 323.398C368.157 322.447 367.854 321.232 367.854 319.753C367.854 318.247 368.25 316.873 369.042 315.632C369.861 314.364 371.09 313.36 372.727 312.621C374.391 311.854 376.492 311.471 379.027 311.471C380.692 311.471 382.343 311.683 383.98 312.105C385.618 312.528 387.045 313.136 388.26 313.928L386.635 317.93C385.394 317.19 384.112 316.649 382.792 316.305C381.471 315.936 380.203 315.751 378.988 315.751C377.561 315.751 376.399 315.922 375.501 316.266C374.629 316.609 373.982 317.058 373.559 317.613C373.163 318.168 372.965 318.802 372.965 319.515C372.965 320.36 373.256 321.047 373.837 321.575C374.444 322.077 375.224 322.474 376.175 322.764C377.152 323.055 378.235 323.345 379.424 323.636C380.612 323.9 381.788 324.204 382.95 324.547C384.139 324.891 385.209 325.34 386.16 325.894C387.137 326.449 387.916 327.202 388.497 328.153C389.105 329.104 389.409 330.306 389.409 331.759C389.409 333.238 388.999 334.611 388.18 335.879C387.388 337.121 386.16 338.125 384.495 338.891C382.831 339.63 380.731 340 378.195 340Z" fill="white"></path>
<path d="M424.486 339.604V311.868H436.611C439.622 311.868 442.264 312.449 444.536 313.611C446.807 314.773 448.577 316.385 449.845 318.445C451.113 320.506 451.747 322.936 451.747 325.736C451.747 328.509 451.113 330.94 449.845 333.027C448.577 335.087 446.807 336.698 444.536 337.861C442.264 339.023 439.622 339.604 436.611 339.604H424.486ZM429.637 335.245H436.373C438.46 335.245 440.256 334.849 441.762 334.057C443.294 333.264 444.47 332.155 445.288 330.728C446.134 329.302 446.556 327.638 446.556 325.736C446.556 323.808 446.134 322.143 445.288 320.743C444.47 319.317 443.294 318.207 441.762 317.415C440.256 316.622 438.46 316.226 436.373 316.226H429.637V335.245Z" fill="white"></path>
<path d="M471.486 323.398H485.275V327.638H471.486V323.398ZM471.883 335.285H487.534V339.604H466.731V311.868H486.979V316.187H471.883V335.285Z" fill="white"></path>
<path d="M523.246 339.604V311.868H528.397V335.245H542.899V339.604H523.246Z" fill="white"></path>
<path d="M552.591 339.604L565.073 311.868H570.144L582.665 339.604H577.277L566.539 314.602H568.599L557.901 339.604H552.591ZM558.337 333.185L559.723 329.143H574.701L576.088 333.185H558.337Z" fill="white"></path>
<path d="M616.163 339.604V311.868H620.402L632.527 332.115H630.308L642.235 311.868H646.474L646.514 339.604H641.64L641.601 319.515H642.631L632.487 336.434H630.189L619.887 319.515H621.076V339.604H616.163Z" fill="white"></path>
<path d="M659.593 339.604L672.074 311.868H677.146L689.667 339.604H684.278L673.54 314.602H675.601L664.902 339.604H659.593ZM665.338 333.185L666.725 329.143H681.703L683.089 333.185H665.338Z" fill="white"></path>
<path d="M702.704 339.604V311.868H714.115C716.572 311.868 718.672 312.264 720.416 313.056C722.185 313.849 723.546 314.985 724.497 316.464C725.448 317.943 725.923 319.7 725.923 321.734C725.923 323.768 725.448 325.525 724.497 327.004C723.546 328.457 722.185 329.579 720.416 330.372C718.672 331.138 716.572 331.521 714.115 331.521H705.557L707.855 329.183V339.604H702.704ZM720.851 339.604L713.838 329.54H719.346L726.399 339.604H720.851ZM707.855 329.738L705.557 327.281H713.878C716.149 327.281 717.853 326.792 718.989 325.815C720.151 324.838 720.733 323.477 720.733 321.734C720.733 319.964 720.151 318.604 718.989 317.653C717.853 316.702 716.149 316.226 713.878 316.226H705.557L707.855 313.69V329.738Z" fill="white"></path>
<path d="M741.196 339.604V311.868H745.436L762.83 333.225H760.73V311.868H765.842V339.604H761.602L744.207 318.247H746.307V339.604H741.196Z" fill="white"></path>
<path d="M787.538 323.398H801.327V327.638H787.538V323.398ZM787.934 335.285H803.586V339.604H782.783V311.868H803.031V316.187H787.934V335.285Z" fill="white"></path>
<path d="M419.34 112.82C419.34 115.324 419.161 117.649 418.803 119.437L409.682 128.559H360.855C361.391 138.575 370.692 152.704 389.65 152.704C400.024 152.704 407.536 149.842 413.259 146.087L411.47 161.826C405.747 164.866 398.414 167.012 387.504 167.012C364.432 167.012 344.043 149.842 344.043 124.624C344.043 97.0807 365.505 82.0571 384.285 82.0571C406.641 82.0571 419.34 97.7961 419.34 112.82ZM402.885 113.178C402.885 105.129 395.91 96.0076 385.179 96.0076C374.984 96.0076 364.074 104.056 361.928 115.324H402.707C402.885 114.608 402.885 113.893 402.885 113.178Z" fill="white"></path>
<path d="M474.325 84.0244L472.177 97.0807C470.727 97.0807 471.2 97.0807 468.875 97.0807C458.323 97.0807 442.807 105.308 442.807 124.088V165.045H426.532V84.0244H442.807V100.479H442.986C446.027 88.8535 454.305 84.0244 465.573 84.0244C467.898 84.0244 472.704 84.0244 474.325 84.0244Z" fill="white"></path>
<path d="M530.43 84.0244L527.569 97.0807H501.814V140.184C501.814 149.485 506.643 152.704 515.228 152.704C518.089 152.704 520.593 152.346 522.561 151.631L521.13 164.508C518.984 165.582 515.407 165.939 512.187 165.939C497.521 165.939 485.717 157.533 485.717 141.794V97.0807H469.799V84.0244H485.717V67.5699L501.814 59.1638V84.0244H530.43Z" fill="white"></path>
<path d="M604.9 112.82C604.9 115.324 604.721 117.649 604.364 119.437L595.242 128.559H546.415C546.952 138.575 556.252 152.704 575.211 152.704C585.584 152.704 593.096 149.842 598.819 146.087L597.031 161.826C591.307 164.866 583.974 167.012 573.064 167.012C549.992 167.012 529.603 149.842 529.603 124.624C529.603 97.0807 551.065 82.0571 569.845 82.0571C592.202 82.0571 604.9 97.7961 604.9 112.82ZM588.446 113.178C588.446 105.129 581.47 96.0076 570.739 96.0076C560.545 96.0076 549.635 104.056 547.488 115.324H588.267C588.446 114.608 588.446 113.893 588.446 113.178ZM590.592 50.0423C590.592 50.9366 589.519 52.3674 588.088 53.7982C581.828 60.5947 574.674 65.9603 566.626 70.7893L557.862 67.0334C564.658 61.8466 573.422 53.2617 578.967 45.571C580.219 43.7824 582.186 42.8882 583.438 42.8882C585.763 42.8882 590.592 47.8961 590.592 50.0423Z" fill="white"></path>
<path fill-rule="evenodd" clip-rule="evenodd" d="M384.063 47.6829C381.393 51.9025 376.118 58.2326 367.658 64.0356C354.003 72.5077 334.731 74.5651 307.011 71.1445C283.785 68.2781 268.251 67.4237 261.118 68.3408C253.102 69.369 242.188 76.2964 240.685 80.9169C238.962 86.215 240.184 93.5092 242.127 96.4433C243.324 98.2503 245.292 100.622 249.509 96.4433C254.535 91.4622 262.173 91.9946 285.52 94.6322C314.121 98.533 323.544 99.0221 333.027 96.2147C334.38 95.8143 335.496 95.4779 335.496 95.4779C335.496 95.4779 331.276 100.435 323.119 105.182C315.85 109.109 304.273 110.754 281.906 109.93C238.962 108.347 268.503 129.448 269.558 141.017C269.658 142.113 271.668 148.438 268.503 155.136C267.448 153.713 251.095 133.668 244.765 125.349C226.829 100.435 220.62 88.6196 223.664 72.7317C226.023 60.4323 236.325 51.9039 248.25 49.2663C254.26 47.9371 260.35 47.9132 293.296 53.0148C333.659 59.2648 355.061 60.2297 367.282 56.123C373.781 53.9386 380.337 49.2654 383.15 47.156C385.082 45.5738 385.61 45.0463 385.61 45.0463C385.61 45.0463 385.311 45.711 384.063 47.6829Z" fill="white"></path>
</svg>