<svg width="461" height="221" viewBox="0 0 461 221" fill="none" xmlns="http://www.w3.org/2000/svg">
<rect width="460.079" height="220.038" fill="#033059"></rect>
<path d="M42.3867 179.696V166.655H47.7523C48.9074 166.655 49.8949 166.841 50.7146 167.213C51.5468 167.586 52.1864 168.12 52.6336 168.816C53.0807 169.511 53.3043 170.337 53.3043 171.294C53.3043 172.25 53.0807 173.076 52.6336 173.771C52.1864 174.467 51.5468 175.001 50.7146 175.374C49.8949 175.746 48.9074 175.933 47.7523 175.933H43.7281L44.8087 174.796V179.696H42.3867ZM44.8087 175.057L43.7281 173.883H47.6406C48.7087 173.883 49.5098 173.66 50.0439 173.213C50.5904 172.753 50.8636 172.113 50.8636 171.294C50.8636 170.461 50.5904 169.822 50.0439 169.375C49.5098 168.928 48.7087 168.704 47.6406 168.704H43.7281L44.8087 167.512V175.057Z" fill="#F4A700"></path>
<path d="M66.487 179.882C65.4685 179.882 64.5308 179.715 63.6738 179.379C62.8168 179.044 62.0716 178.578 61.4381 177.982C60.8047 177.373 60.3141 176.665 59.9663 175.858C59.6185 175.038 59.4446 174.144 59.4446 173.175C59.4446 172.206 59.6185 171.318 59.9663 170.511C60.3141 169.691 60.8047 168.983 61.4381 168.387C62.0716 167.779 62.8168 167.307 63.6738 166.971C64.5308 166.636 65.4623 166.468 66.4684 166.468C67.4869 166.468 68.4184 166.636 69.263 166.971C70.12 167.307 70.8652 167.779 71.4987 168.387C72.1321 168.983 72.6227 169.691 72.9705 170.511C73.3182 171.318 73.4921 172.206 73.4921 173.175C73.4921 174.144 73.3182 175.038 72.9705 175.858C72.6227 176.678 72.1321 177.386 71.4987 177.982C70.8652 178.578 70.12 179.044 69.263 179.379C68.4184 179.715 67.4931 179.882 66.487 179.882ZM66.4684 177.758C67.1267 177.758 67.7353 177.647 68.2942 177.423C68.8531 177.199 69.3375 176.883 69.7474 176.473C70.1573 176.051 70.474 175.566 70.6975 175.02C70.9335 174.461 71.0515 173.846 71.0515 173.175C71.0515 172.505 70.9335 171.896 70.6975 171.349C70.474 170.791 70.1573 170.306 69.7474 169.896C69.3375 169.474 68.8531 169.151 68.2942 168.928C67.7353 168.704 67.1267 168.592 66.4684 168.592C65.8101 168.592 65.2015 168.704 64.6426 168.928C64.0961 169.151 63.6117 169.474 63.1894 169.896C62.7795 170.306 62.4566 170.791 62.2206 171.349C61.997 171.896 61.8853 172.505 61.8853 173.175C61.8853 173.834 61.997 174.442 62.2206 175.001C62.4566 175.56 62.7795 176.051 63.1894 176.473C63.5993 176.883 64.0837 177.199 64.6426 177.423C65.2015 177.647 65.8101 177.758 66.4684 177.758Z" fill="#F4A700"></path>
<path d="M80.5307 179.696V166.655H85.8963C87.0514 166.655 88.0389 166.841 88.8586 167.213C89.6908 167.586 90.3304 168.12 90.7776 168.816C91.2247 169.511 91.4483 170.337 91.4483 171.294C91.4483 172.25 91.2247 173.076 90.7776 173.771C90.3304 174.455 89.6908 174.982 88.8586 175.355C88.0389 175.715 87.0514 175.895 85.8963 175.895H81.8721L82.9527 174.796V179.696H80.5307ZM89.0635 179.696L85.7659 174.964H88.3556L91.6718 179.696H89.0635ZM82.9527 175.057L81.8721 173.902H85.7846C86.8527 173.902 87.6538 173.672 88.1879 173.213C88.7344 172.753 89.0076 172.113 89.0076 171.294C89.0076 170.461 88.7344 169.822 88.1879 169.375C87.6538 168.928 86.8527 168.704 85.7846 168.704H81.8721L82.9527 167.512V175.057Z" fill="#F4A700"></path>
<path d="M101.093 179.696V168.704H96.7707V166.655H107.837V168.704H103.515V179.696H101.093Z" fill="#F4A700"></path>
<path d="M123.746 179.696V166.655H126.168V177.647H132.987V179.696H123.746Z" fill="#F4A700"></path>
<path d="M145.245 179.882C144.227 179.882 143.289 179.715 142.432 179.379C141.575 179.044 140.83 178.578 140.196 177.982C139.563 177.373 139.072 176.665 138.724 175.858C138.377 175.038 138.203 174.144 138.203 173.175C138.203 172.206 138.377 171.318 138.724 170.511C139.072 169.691 139.563 168.983 140.196 168.387C140.83 167.779 141.575 167.307 142.432 166.971C143.289 166.636 144.22 166.468 145.226 166.468C146.245 166.468 147.176 166.636 148.021 166.971C148.878 167.307 149.623 167.779 150.257 168.387C150.89 168.983 151.381 169.691 151.728 170.511C152.076 171.318 152.25 172.206 152.25 173.175C152.25 174.144 152.076 175.038 151.728 175.858C151.381 176.678 150.89 177.386 150.257 177.982C149.623 178.578 148.878 179.044 148.021 179.379C147.176 179.715 146.251 179.882 145.245 179.882ZM145.226 177.758C145.885 177.758 146.493 177.647 147.052 177.423C147.611 177.199 148.096 176.883 148.505 176.473C148.915 176.051 149.232 175.566 149.456 175.02C149.692 174.461 149.81 173.846 149.81 173.175C149.81 172.505 149.692 171.896 149.456 171.349C149.232 170.791 148.915 170.306 148.505 169.896C148.096 169.474 147.611 169.151 147.052 168.928C146.493 168.704 145.885 168.592 145.226 168.592C144.568 168.592 143.96 168.704 143.401 168.928C142.854 169.151 142.37 169.474 141.947 169.896C141.538 170.306 141.215 170.791 140.979 171.349C140.755 171.896 140.643 172.505 140.643 173.175C140.643 173.834 140.755 174.442 140.979 175.001C141.215 175.56 141.538 176.051 141.947 176.473C142.357 176.883 142.842 177.199 143.401 177.423C143.96 177.647 144.568 177.758 145.226 177.758Z" fill="#F4A700"></path>
<path d="M159.289 179.696V166.655H161.711V179.696H159.289Z" fill="#F4A700"></path>
<path d="M173.752 179.882C172.734 179.882 171.759 179.739 170.827 179.454C169.896 179.156 169.157 178.777 168.61 178.317L169.449 176.436C169.97 176.846 170.616 177.187 171.386 177.46C172.156 177.734 172.945 177.87 173.752 177.87C174.435 177.87 174.988 177.796 175.41 177.647C175.833 177.498 176.143 177.299 176.342 177.05C176.541 176.79 176.64 176.498 176.64 176.175C176.64 175.777 176.497 175.461 176.212 175.225C175.926 174.976 175.553 174.784 175.094 174.647C174.647 174.498 174.144 174.361 173.585 174.237C173.038 174.113 172.485 173.97 171.927 173.809C171.38 173.635 170.877 173.417 170.417 173.157C169.97 172.883 169.604 172.523 169.318 172.076C169.033 171.629 168.89 171.058 168.89 170.362C168.89 169.654 169.076 169.008 169.449 168.424C169.834 167.828 170.411 167.356 171.181 167.009C171.964 166.648 172.951 166.468 174.144 166.468C174.926 166.468 175.702 166.568 176.472 166.766C177.242 166.965 177.913 167.251 178.485 167.623L177.721 169.505C177.137 169.157 176.535 168.903 175.913 168.741C175.292 168.567 174.696 168.48 174.125 168.48C173.454 168.48 172.908 168.561 172.485 168.723C172.076 168.884 171.771 169.095 171.573 169.356C171.386 169.617 171.293 169.915 171.293 170.25C171.293 170.648 171.43 170.971 171.703 171.219C171.989 171.455 172.355 171.641 172.802 171.778C173.262 171.915 173.771 172.051 174.33 172.188C174.889 172.312 175.442 172.455 175.988 172.616C176.547 172.778 177.05 172.989 177.497 173.25C177.957 173.511 178.323 173.865 178.596 174.312C178.882 174.759 179.025 175.324 179.025 176.007C179.025 176.703 178.832 177.349 178.447 177.945C178.075 178.528 177.497 179 176.715 179.361C175.932 179.708 174.945 179.882 173.752 179.882Z" fill="#F4A700"></path>
<path d="M185.898 179.696V166.655H188.32V179.696H185.898Z" fill="#F4A700"></path>
<path d="M196.319 179.696V166.655H201.684C202.839 166.655 203.827 166.841 204.646 167.213C205.479 167.586 206.118 168.12 206.565 168.816C207.013 169.511 207.236 170.337 207.236 171.294C207.236 172.25 207.013 173.076 206.565 173.771C206.118 174.455 205.479 174.982 204.646 175.355C203.827 175.715 202.839 175.895 201.684 175.895H197.66L198.741 174.796V179.696H196.319ZM204.851 179.696L201.554 174.964H204.143L207.46 179.696H204.851ZM198.741 175.057L197.66 173.902H201.572C202.641 173.902 203.442 173.672 203.976 173.213C204.522 172.753 204.795 172.113 204.795 171.294C204.795 170.461 204.522 169.822 203.976 169.375C203.442 168.928 202.641 168.704 201.572 168.704H197.66L198.741 167.512V175.057Z" fill="#F4A700"></path>
<path d="M218.46 179.882C217.442 179.882 216.467 179.739 215.535 179.454C214.603 179.156 213.864 178.777 213.318 178.317L214.156 176.436C214.678 176.846 215.324 177.187 216.094 177.46C216.864 177.734 217.653 177.87 218.46 177.87C219.143 177.87 219.696 177.796 220.118 177.647C220.54 177.498 220.851 177.299 221.05 177.05C221.248 176.79 221.348 176.498 221.348 176.175C221.348 175.777 221.205 175.461 220.919 175.225C220.634 174.976 220.261 174.784 219.801 174.647C219.354 174.498 218.851 174.361 218.292 174.237C217.746 174.113 217.193 173.97 216.634 173.809C216.088 173.635 215.585 173.417 215.125 173.157C214.678 172.883 214.312 172.523 214.026 172.076C213.74 171.629 213.597 171.058 213.597 170.362C213.597 169.654 213.784 169.008 214.156 168.424C214.541 167.828 215.119 167.356 215.889 167.009C216.671 166.648 217.659 166.468 218.851 166.468C219.634 166.468 220.41 166.568 221.18 166.766C221.95 166.965 222.621 167.251 223.192 167.623L222.428 169.505C221.845 169.157 221.242 168.903 220.621 168.741C220 168.567 219.404 168.48 218.833 168.48C218.162 168.48 217.615 168.561 217.193 168.723C216.783 168.884 216.479 169.095 216.28 169.356C216.094 169.617 216.001 169.915 216.001 170.25C216.001 170.648 216.137 170.971 216.411 171.219C216.696 171.455 217.063 171.641 217.51 171.778C217.969 171.915 218.479 172.051 219.038 172.188C219.596 172.312 220.149 172.455 220.696 172.616C221.255 172.778 221.758 172.989 222.205 173.25C222.664 173.511 223.031 173.865 223.304 174.312C223.59 174.759 223.732 175.324 223.732 176.007C223.732 176.703 223.54 177.349 223.155 177.945C222.782 178.528 222.205 179 221.422 179.361C220.64 179.708 219.652 179.882 218.46 179.882Z" fill="#F4A700"></path>
<path d="M240.226 179.696V166.655H245.927C247.343 166.655 248.585 166.928 249.653 167.474C250.721 168.021 251.553 168.778 252.149 169.747C252.745 170.716 253.044 171.859 253.044 173.175C253.044 174.479 252.745 175.622 252.149 176.603C251.553 177.572 250.721 178.33 249.653 178.876C248.585 179.423 247.343 179.696 245.927 179.696H240.226ZM242.648 177.647H245.815C246.796 177.647 247.641 177.46 248.349 177.088C249.069 176.715 249.622 176.193 250.007 175.523C250.404 174.852 250.603 174.07 250.603 173.175C250.603 172.269 250.404 171.486 250.007 170.828C249.622 170.157 249.069 169.635 248.349 169.263C247.641 168.89 246.796 168.704 245.815 168.704H242.648V177.647Z" fill="#F4A700"></path>
<path d="M262.325 172.076H268.808V174.07H262.325V172.076ZM262.511 177.665H269.87V179.696H260.089V166.655H269.609V168.685H262.511V177.665Z" fill="#F4A700"></path>
<path d="M286.662 179.696V166.655H289.084V177.647H295.903V179.696H286.662Z" fill="#F4A700"></path>
<path d="M300.46 179.696L306.328 166.655H308.713L314.6 179.696H312.067L307.018 167.94H307.987L302.956 179.696H300.46ZM303.161 176.678L303.813 174.778H310.856L311.508 176.678H303.161Z" fill="#F4A700"></path>
<path d="M330.351 179.696V166.655H332.344L338.045 176.175H337.002L342.609 166.655H344.603L344.622 179.696H342.33L342.311 170.25H342.796L338.026 178.206H336.946L332.102 170.25H332.661V179.696H330.351Z" fill="#F4A700"></path>
<path d="M350.771 179.696L356.64 166.655H359.025L364.912 179.696H362.378L357.329 167.94H358.298L353.268 179.696H350.771ZM353.473 176.678L354.125 174.778H361.167L361.819 176.678H353.473Z" fill="#F4A700"></path>
<path d="M371.042 179.696V166.655H376.407C377.562 166.655 378.55 166.841 379.37 167.213C380.202 167.586 380.841 168.12 381.288 168.816C381.736 169.511 381.959 170.337 381.959 171.294C381.959 172.25 381.736 173.076 381.288 173.771C380.841 174.455 380.202 174.982 379.37 175.355C378.55 175.715 377.562 175.895 376.407 175.895H372.383L373.464 174.796V179.696H371.042ZM379.574 179.696L376.277 174.964H378.867L382.183 179.696H379.574ZM373.464 175.057L372.383 173.902H376.295C377.364 173.902 378.165 173.672 378.699 173.213C379.245 172.753 379.519 172.113 379.519 171.294C379.519 170.461 379.245 169.822 378.699 169.375C378.165 168.928 377.364 168.704 376.295 168.704H372.383L373.464 167.512V175.057Z" fill="#F4A700"></path>
<path d="M389.14 179.696V166.655H391.134L399.313 176.696H398.325V166.655H400.729V179.696H398.735L390.556 169.654H391.544V179.696H389.14Z" fill="#F4A700"></path>
<path d="M410.93 172.076H417.414V174.07H410.93V172.076ZM411.116 177.665H418.476V179.696H408.694V166.655H418.215V168.685H411.116V177.665Z" fill="#F4A700"></path>
<path d="M84.6989 101.33L83.2693 108.562C80.6623 106.88 75.4484 105.114 69.9822 105.114C59.7225 105.114 48.8742 111.757 48.8742 125.381C48.8742 138.92 59.4702 145.564 69.9822 145.564C76.2052 145.564 80.41 144.386 83.6898 142.536L82.9329 149.937C79.5691 151.703 75.7848 152.46 69.0571 152.46C55.77 152.46 40.6328 143.209 40.6328 125.213C40.6328 106.964 55.9382 97.8816 69.0571 97.8816C76.2893 97.8816 81.4192 99.4794 84.6989 101.33Z" fill="white"></path>
<path d="M126.389 133.034C126.389 144.807 117.559 152.964 106.206 152.964C94.8534 152.964 85.9393 144.807 85.9393 133.034C85.9393 121.176 94.8534 113.019 106.206 113.019C117.559 113.019 126.389 121.176 126.389 133.034ZM118.652 133.202C118.652 125.213 112.85 119.915 106.206 119.915C99.4787 119.915 93.6761 125.213 93.6761 133.202C93.6761 141.107 99.4787 146.405 106.206 146.405C112.85 146.405 118.652 141.107 118.652 133.202Z" fill="white"></path>
<path d="M163.037 152.039H155.384V127.567C155.384 123.615 152.945 119.578 146.554 119.578C140.415 119.578 137.387 123.615 137.387 127.567V152.039H129.735V113.944H136.715V118.905H136.799C138.481 115.542 141.929 113.019 148.572 113.019C156.898 113.019 163.037 118.317 163.037 126.81V152.039Z" fill="white"></path>
<path d="M208.016 148.339L202.802 153.553C200.279 152.88 195.233 150.357 195.233 143.041C195.233 143.041 195.233 111.887 195.233 105.676C195.233 99.4663 190.019 98.5543 187.328 98.5543C181.358 98.5543 178.414 102.17 178.414 109.066V113.944H186.908V120.083H178.414V152.039H170.762V120.083H164.286V113.944H170.762V108.646C170.762 97.8816 176.9 92.1631 186.824 92.1631C194.056 92.1631 202.886 95.0197 202.886 104.124V142.032C202.886 145.564 205.661 147.918 208.016 148.339Z" fill="white"></path>
<path d="M243.404 152.039H236.424V147.078H236.34C234.658 150.441 231.21 152.964 224.566 152.964C216.241 152.964 210.102 147.666 210.102 139.173V113.944H217.755V138.416C217.755 142.368 220.193 146.405 226.585 146.405C232.724 146.405 235.751 142.368 235.751 138.416V113.944H243.404V152.039Z" fill="white"></path>
<path d="M282.16 127.483C282.16 128.661 282.076 129.754 281.908 130.595L277.619 134.884H254.661C254.913 139.593 259.286 146.237 268.2 146.237C273.078 146.237 276.61 144.891 279.301 143.125L278.46 150.525C275.769 151.955 272.321 152.964 267.191 152.964C256.343 152.964 246.756 144.891 246.756 133.034C246.756 120.083 256.847 113.019 265.677 113.019C276.189 113.019 282.16 120.419 282.16 127.483ZM274.423 127.651C274.423 123.867 271.143 119.578 266.098 119.578C261.304 119.578 256.174 123.363 255.165 128.661H274.339C274.423 128.324 274.423 127.988 274.423 127.651Z" fill="white"></path>
<path d="M318.843 152.039H311.191V127.567C311.191 123.615 308.752 119.578 302.361 119.578C296.222 119.578 293.194 123.615 293.194 127.567V152.039H285.541V113.944H292.521V118.905H292.606C294.287 115.542 297.735 113.019 304.379 113.019C312.704 113.019 318.843 118.317 318.843 126.81V152.039Z" fill="white"></path>
<path d="M354.572 116.214L353.142 123.194C349.695 121.008 346.667 120.335 343.051 120.335C336.239 120.335 329.932 125.213 329.932 133.202C329.932 141.107 336.407 145.984 343.219 145.984C346.835 145.984 349.695 145.311 353.142 143.63L352.386 150.694C349.61 151.955 346.247 152.544 342.546 152.544C332.287 152.544 322.195 145.227 322.195 133.034C322.195 120.756 332.287 113.439 342.546 113.439C347.508 113.439 351.376 114.448 354.572 116.214Z" fill="white"></path>
<path d="M390.433 127.483C390.433 128.661 390.349 129.754 390.181 130.595L385.892 134.884H362.934C363.186 139.593 367.559 146.237 376.473 146.237C381.351 146.237 384.883 144.891 387.574 143.125L386.733 150.525C384.042 151.955 380.594 152.964 375.464 152.964C364.616 152.964 355.029 144.891 355.029 133.034C355.029 120.083 365.12 113.019 373.95 113.019C384.462 113.019 390.433 120.419 390.433 127.483ZM382.696 127.651C382.696 123.867 379.416 119.578 374.371 119.578C369.577 119.578 364.447 123.363 363.438 128.661H382.612C382.696 128.324 382.696 127.988 382.696 127.651Z" fill="white"></path>
<path d="M417.614 141.443C417.614 147.498 412.988 152.544 403.906 152.544C399.533 152.544 395.917 151.45 393.31 149.769L392.385 141.779C395.16 144.05 399.533 146.068 404.074 146.068C407.606 146.068 409.961 144.134 409.961 141.695C409.961 139.088 408.111 137.659 404.663 136.397C397.262 133.706 393.058 130.258 393.058 124.204C393.058 117.896 398.187 113.439 405.672 113.439C409.961 113.439 414.082 114.953 415.511 115.878L413.997 122.269C412.231 121.092 409.625 119.831 405.588 119.831C402.476 119.831 400.458 121.512 400.458 123.951C400.458 126.306 402.14 127.399 405.84 128.745C413.325 131.436 417.614 134.884 417.614 141.443Z" fill="white"></path>
<path d="M237.803 72.793C237.803 73.9703 237.719 75.0636 237.55 75.9045L233.262 80.1934H210.303C210.556 84.9028 214.929 91.5463 223.843 91.5463C228.72 91.5463 232.252 90.2008 234.943 88.4348L234.102 95.8352C231.411 97.2648 227.963 98.274 222.834 98.274C211.985 98.274 202.398 90.2008 202.398 78.3433C202.398 65.3926 212.49 58.3286 221.32 58.3286C231.832 58.3286 237.803 65.729 237.803 72.793ZM230.066 72.9612C230.066 69.1769 226.786 64.888 221.74 64.888C216.947 64.888 211.817 68.6723 210.808 73.9703H229.982C230.066 73.6339 230.066 73.2976 230.066 72.9612Z" fill="white"></path>
<path d="M263.656 59.2536L262.646 65.3926C261.964 65.3926 262.187 65.3926 261.094 65.3926C256.132 65.3926 248.837 69.261 248.837 78.091V97.3489H241.184V59.2536H248.837V66.9904H248.921C250.351 61.5242 254.243 59.2536 259.541 59.2536C260.634 59.2536 262.894 59.2536 263.656 59.2536Z" fill="white"></path>
<path d="M290.037 59.2536L288.691 65.3926H276.581V85.6596C276.581 90.0326 278.852 91.5463 282.888 91.5463C284.234 91.5463 285.411 91.3781 286.336 91.0417L285.664 97.0966C284.654 97.6012 282.973 97.7694 281.459 97.7694C274.563 97.7694 269.013 93.8169 269.013 86.4165V65.3926H261.528V59.2536H269.013V51.5168L276.581 47.5643V59.2536H290.037Z" fill="white"></path>
<path d="M325.052 72.793C325.052 73.9703 324.968 75.0636 324.8 75.9045L320.511 80.1934H297.553C297.805 84.9028 302.178 91.5463 311.092 91.5463C315.97 91.5463 319.502 90.2008 322.193 88.4348L321.352 95.8352C318.661 97.2648 315.213 98.274 310.083 98.274C299.235 98.274 289.648 90.2008 289.648 78.3433C289.648 65.3926 299.739 58.3286 308.569 58.3286C319.081 58.3286 325.052 65.729 325.052 72.793ZM317.315 72.9612C317.315 69.1769 314.035 64.888 308.99 64.888C304.196 64.888 299.066 68.6723 298.057 73.9703H317.231C317.315 73.6339 317.315 73.2976 317.315 72.9612ZM318.324 43.2754C318.324 43.6959 317.82 44.3687 317.147 45.0414C314.204 48.2371 310.84 50.76 307.055 53.0305L302.935 51.2645C306.13 48.8258 310.251 44.7892 312.858 41.1731C313.447 40.3321 314.372 39.9116 314.96 39.9116C316.054 39.9116 318.324 42.2663 318.324 43.2754Z" fill="white"></path>
<path fill-rule="evenodd" clip-rule="evenodd" d="M221.264 42.0858C220.007 44.0721 217.524 47.0519 213.542 49.7835C207.114 53.7715 198.042 54.74 184.994 53.1298C174.06 51.7806 166.748 51.3784 163.39 51.8101C159.617 52.2941 154.48 55.555 153.772 57.73C152.961 60.2239 153.537 63.6575 154.451 65.0386C155.014 65.8892 155.941 67.0058 157.926 65.0386C160.292 62.6939 163.887 62.9445 174.877 64.1861C188.341 66.0223 192.776 66.2525 197.24 64.931C197.877 64.7425 198.403 64.5842 198.403 64.5842C198.403 64.5842 196.416 66.9175 192.576 69.1523C189.154 71.0009 183.705 71.7751 173.176 71.3871C152.961 70.6422 166.867 80.5747 167.363 86.0205C167.411 86.5367 168.357 89.5139 166.867 92.6668C166.37 91.9971 158.673 82.5612 155.693 78.6452C147.25 66.9175 144.327 61.3558 145.76 53.877C146.87 48.0873 151.72 44.0728 157.333 42.8312C160.162 42.2055 163.029 42.1942 178.538 44.5957C197.538 47.5378 207.612 47.992 213.365 46.0588C216.424 45.0306 219.51 42.8308 220.834 41.8378C221.744 41.093 221.992 40.8447 221.992 40.8447C221.992 40.8447 221.851 41.1577 221.264 42.0858Z" fill="white"></path>
</svg>