<svg width="593" height="284" viewBox="0 0 593 284" fill="none" xmlns="http://www.w3.org/2000/svg">
<rect width="593" height="283.609" fill="#033059"></rect>
<path d="M109.168 130.605L107.326 139.926C103.965 137.759 97.2452 135.482 90.1997 135.482C76.976 135.482 62.9935 144.045 62.9935 161.605C62.9935 179.056 76.6508 187.619 90.1997 187.619C98.2207 187.619 103.64 186.101 107.868 183.717L106.892 193.255C102.556 195.531 97.6787 196.507 89.0074 196.507C71.8816 196.507 52.3711 184.584 52.3711 161.388C52.3711 137.867 72.0983 126.161 89.0074 126.161C98.3291 126.161 104.941 128.22 109.168 130.605Z" fill="white"></path>
<path d="M162.903 171.468C162.903 186.643 151.522 197.157 136.889 197.157C122.257 197.157 110.767 186.643 110.767 171.468C110.767 156.185 122.257 145.671 136.889 145.671C151.522 145.671 162.903 156.185 162.903 171.468ZM152.931 171.685C152.931 161.388 145.452 154.559 136.889 154.559C128.218 154.559 120.739 161.388 120.739 171.685C120.739 181.874 128.218 188.703 136.889 188.703C145.452 188.703 152.931 181.874 152.931 171.685Z" fill="white"></path>
<path d="M210.138 195.965H200.275V164.423C200.275 159.328 197.131 154.126 188.894 154.126C180.981 154.126 177.079 159.328 177.079 164.423V195.965H167.215V146.863H176.212V153.259H176.32C178.488 148.923 182.932 145.671 191.495 145.671C202.226 145.671 210.138 152.5 210.138 163.447V195.965Z" fill="white"></path>
<path d="M268.112 191.196L261.392 197.916C258.14 197.049 251.637 193.797 251.637 184.367C251.637 184.367 251.637 144.212 251.637 136.208C251.637 128.203 244.917 127.028 241.448 127.028C233.752 127.028 229.959 131.689 229.959 140.577V146.863H240.906V154.776H229.959V195.965H220.095V154.776H211.749V146.863H220.095V140.035C220.095 126.161 228.008 118.79 240.798 118.79C250.119 118.79 261.501 122.472 261.501 134.206V183.066C261.501 187.619 265.078 190.654 268.112 191.196Z" fill="white"></path>
<path d="M313.724 195.965H304.728V189.57H304.619C302.451 193.905 298.007 197.157 289.444 197.157C278.714 197.157 270.801 190.328 270.801 179.381V146.863H280.665V178.405C280.665 183.5 283.808 188.703 292.046 188.703C299.958 188.703 303.86 183.5 303.86 178.405V146.863H313.724V195.965Z" fill="white"></path>
<path d="M363.677 164.314C363.677 165.832 363.569 167.241 363.352 168.325L357.824 173.853H328.233C328.559 179.923 334.195 188.486 345.684 188.486C351.971 188.486 356.523 186.752 359.992 184.475L358.908 194.014C355.44 195.856 350.996 197.157 344.384 197.157C330.401 197.157 318.045 186.752 318.045 171.468C318.045 154.776 331.051 145.671 342.433 145.671C355.982 145.671 363.677 155.21 363.677 164.314ZM353.705 164.531C353.705 159.654 349.478 154.126 342.975 154.126C336.796 154.126 330.184 159.003 328.884 165.832H353.597C353.705 165.398 353.705 164.965 353.705 164.531Z" fill="white"></path>
<path d="M410.959 195.965H401.095V164.423C401.095 159.328 397.952 154.126 389.714 154.126C381.802 154.126 377.899 159.328 377.899 164.423V195.965H368.036V146.863H377.032V153.259H377.141C379.309 148.923 383.753 145.671 392.316 145.671C403.046 145.671 410.959 152.5 410.959 163.447V195.965Z" fill="white"></path>
<path d="M457.01 149.79L455.167 158.786C450.723 155.968 446.821 155.101 442.16 155.101C433.381 155.101 425.251 161.388 425.251 171.685C425.251 181.874 433.597 188.161 442.377 188.161C447.038 188.161 450.723 187.293 455.167 185.126L454.192 194.231C450.615 195.856 446.279 196.615 441.51 196.615C428.286 196.615 415.279 187.185 415.279 171.468C415.279 155.643 428.286 146.213 441.51 146.213C447.905 146.213 452.891 147.514 457.01 149.79Z" fill="white"></path>
<path d="M503.231 164.314C503.231 165.832 503.123 167.241 502.906 168.325L497.378 173.853H467.787C468.112 179.923 473.749 188.486 485.238 188.486C491.525 188.486 496.078 186.752 499.546 184.475L498.462 194.014C494.994 195.856 490.55 197.157 483.938 197.157C469.955 197.157 457.599 186.752 457.599 171.468C457.599 154.776 470.606 145.671 481.987 145.671C495.536 145.671 503.231 155.21 503.231 164.314ZM493.259 164.531C493.259 159.654 489.032 154.126 482.529 154.126C476.35 154.126 469.738 159.003 468.438 165.832H493.151C493.259 165.398 493.259 164.965 493.259 164.531Z" fill="white"></path>
<path d="M538.265 182.307C538.265 190.112 532.303 196.615 520.597 196.615C514.96 196.615 510.3 195.206 506.94 193.038L505.747 182.741C509.324 185.668 514.96 188.269 520.814 188.269C525.366 188.269 528.401 185.776 528.401 182.633C528.401 179.272 526.016 177.43 521.572 175.804C512.034 172.335 506.614 167.891 506.614 160.087C506.614 151.958 513.226 146.213 522.873 146.213C528.401 146.213 533.712 148.164 535.555 149.356L533.604 157.594C531.328 156.077 527.967 154.451 522.765 154.451C518.754 154.451 516.153 156.619 516.153 159.762C516.153 162.797 518.321 164.206 523.09 165.94C532.737 169.409 538.265 173.853 538.265 182.307Z" fill="white"></path>
<path d="M54.6289 231.611V214.802H61.5447C63.0335 214.802 64.3062 215.042 65.3628 215.523C66.4354 216.003 67.2598 216.691 67.8361 217.588C68.4125 218.484 68.7006 219.549 68.7006 220.781C68.7006 222.014 68.4125 223.079 67.8361 223.975C67.2598 224.872 66.4354 225.56 65.3628 226.04C64.3062 226.521 63.0335 226.761 61.5447 226.761H56.3579L57.7506 225.296V231.611H54.6289ZM57.7506 225.632L56.3579 224.119H61.4006C62.7774 224.119 63.8099 223.831 64.4983 223.255C65.2027 222.662 65.5549 221.838 65.5549 220.781C65.5549 219.709 65.2027 218.884 64.4983 218.308C63.8099 217.732 62.7774 217.444 61.4006 217.444H56.3579L57.7506 215.907V225.632Z" fill="white"></path>
<path d="M85.692 231.851C84.3793 231.851 83.1706 231.635 82.066 231.203C80.9614 230.771 80.0009 230.171 79.1844 229.402C78.368 228.618 77.7356 227.705 77.2874 226.665C76.8391 225.608 76.615 224.455 76.615 223.207C76.615 221.958 76.8391 220.813 77.2874 219.773C77.7356 218.716 78.368 217.804 79.1844 217.035C80.0009 216.251 80.9614 215.643 82.066 215.21C83.1706 214.778 84.3713 214.562 85.668 214.562C86.9807 214.562 88.1813 214.778 89.2699 215.21C90.3745 215.643 91.3351 216.251 92.1515 217.035C92.968 217.804 93.6003 218.716 94.0486 219.773C94.4968 220.813 94.7209 221.958 94.7209 223.207C94.7209 224.455 94.4968 225.608 94.0486 226.665C93.6003 227.721 92.968 228.634 92.1515 229.402C91.3351 230.171 90.3745 230.771 89.2699 231.203C88.1813 231.635 86.9887 231.851 85.692 231.851ZM85.668 229.114C86.5164 229.114 87.3009 228.97 88.0213 228.682C88.7416 228.394 89.366 227.985 89.8943 227.457C90.4226 226.913 90.8308 226.288 91.119 225.584C91.4231 224.864 91.5752 224.071 91.5752 223.207C91.5752 222.342 91.4231 221.558 91.119 220.853C90.8308 220.133 90.4226 219.509 89.8943 218.98C89.366 218.436 88.7416 218.02 88.0213 217.732C87.3009 217.444 86.5164 217.3 85.668 217.3C84.8195 217.3 84.0351 217.444 83.3147 217.732C82.6103 218.02 81.986 218.436 81.4417 218.98C80.9134 219.509 80.4971 220.133 80.193 220.853C79.9048 221.558 79.7607 222.342 79.7607 223.207C79.7607 224.055 79.9048 224.84 80.193 225.56C80.4971 226.28 80.9134 226.913 81.4417 227.457C81.9699 227.985 82.5943 228.394 83.3147 228.682C84.0351 228.97 84.8195 229.114 85.668 229.114Z" fill="white"></path>
<path d="M103.793 231.611V214.802H110.709C112.198 214.802 113.47 215.042 114.527 215.523C115.599 216.003 116.424 216.691 117 217.588C117.577 218.484 117.865 219.549 117.865 220.781C117.865 222.014 117.577 223.079 117 223.975C116.424 224.856 115.599 225.536 114.527 226.016C113.47 226.481 112.198 226.713 110.709 226.713H105.522L106.915 225.296V231.611H103.793ZM114.791 231.611L110.541 225.512H113.879L118.153 231.611H114.791ZM106.915 225.632L105.522 224.143H110.565C111.941 224.143 112.974 223.847 113.662 223.255C114.367 222.662 114.719 221.838 114.719 220.781C114.719 219.709 114.367 218.884 113.662 218.308C112.974 217.732 111.941 217.444 110.565 217.444H105.522L106.915 215.907V225.632Z" fill="white"></path>
<path d="M130.296 231.611V217.444H124.725V214.802H138.989V217.444H133.418V231.611H130.296Z" fill="white"></path>
<path d="M159.494 231.611V214.802H162.616V228.97H171.405V231.611H159.494Z" fill="white"></path>
<path d="M187.204 231.851C185.891 231.851 184.682 231.635 183.578 231.203C182.473 230.771 181.513 230.171 180.696 229.402C179.88 228.618 179.247 227.705 178.799 226.665C178.351 225.608 178.127 224.455 178.127 223.207C178.127 221.958 178.351 220.813 178.799 219.773C179.247 218.716 179.88 217.804 180.696 217.035C181.513 216.251 182.473 215.643 183.578 215.21C184.682 214.778 185.883 214.562 187.18 214.562C188.493 214.562 189.693 214.778 190.782 215.21C191.886 215.643 192.847 216.251 193.663 217.035C194.48 217.804 195.112 218.716 195.56 219.773C196.009 220.813 196.233 221.958 196.233 223.207C196.233 224.455 196.009 225.608 195.56 226.665C195.112 227.721 194.48 228.634 193.663 229.402C192.847 230.171 191.886 230.771 190.782 231.203C189.693 231.635 188.501 231.851 187.204 231.851ZM187.18 229.114C188.028 229.114 188.813 228.97 189.533 228.682C190.254 228.394 190.878 227.985 191.406 227.457C191.934 226.913 192.343 226.288 192.631 225.584C192.935 224.864 193.087 224.071 193.087 223.207C193.087 222.342 192.935 221.558 192.631 220.853C192.343 220.133 191.934 219.509 191.406 218.98C190.878 218.436 190.254 218.02 189.533 217.732C188.813 217.444 188.028 217.3 187.18 217.3C186.331 217.3 185.547 217.444 184.827 217.732C184.122 218.02 183.498 218.436 182.954 218.98C182.425 219.509 182.009 220.133 181.705 220.853C181.417 221.558 181.273 222.342 181.273 223.207C181.273 224.055 181.417 224.84 181.705 225.56C182.009 226.28 182.425 226.913 182.954 227.457C183.482 227.985 184.106 228.394 184.827 228.682C185.547 228.97 186.331 229.114 187.18 229.114Z" fill="white"></path>
<path d="M205.305 231.611V214.802H208.427V231.611H205.305Z" fill="white"></path>
<path d="M223.947 231.851C222.634 231.851 221.378 231.667 220.177 231.299C218.976 230.915 218.024 230.427 217.32 229.834L218.4 227.409C219.072 227.937 219.905 228.378 220.897 228.73C221.89 229.082 222.907 229.258 223.947 229.258C224.828 229.258 225.54 229.162 226.084 228.97C226.629 228.778 227.029 228.522 227.285 228.201C227.541 227.865 227.669 227.489 227.669 227.073C227.669 226.561 227.485 226.152 227.117 225.848C226.749 225.528 226.268 225.28 225.676 225.104C225.1 224.912 224.451 224.736 223.731 224.575C223.027 224.415 222.314 224.231 221.594 224.023C220.889 223.799 220.241 223.519 219.649 223.183C219.072 222.831 218.6 222.366 218.232 221.79C217.864 221.214 217.68 220.477 217.68 219.581C217.68 218.668 217.92 217.836 218.4 217.083C218.896 216.315 219.641 215.707 220.633 215.258C221.642 214.794 222.915 214.562 224.451 214.562C225.46 214.562 226.461 214.69 227.453 214.946C228.446 215.202 229.31 215.571 230.046 216.051L229.062 218.476C228.31 218.028 227.533 217.7 226.733 217.492C225.932 217.267 225.164 217.155 224.427 217.155C223.563 217.155 222.859 217.259 222.314 217.468C221.786 217.676 221.394 217.948 221.138 218.284C220.897 218.62 220.777 219.004 220.777 219.437C220.777 219.949 220.953 220.365 221.306 220.685C221.674 220.99 222.146 221.23 222.722 221.406C223.315 221.582 223.971 221.758 224.692 221.934C225.412 222.094 226.124 222.278 226.829 222.486C227.549 222.694 228.197 222.967 228.774 223.303C229.366 223.639 229.838 224.095 230.191 224.672C230.559 225.248 230.743 225.976 230.743 226.857C230.743 227.753 230.495 228.586 229.998 229.354C229.518 230.107 228.774 230.715 227.765 231.179C226.757 231.627 225.484 231.851 223.947 231.851Z" fill="white"></path>
<path d="M239.601 231.611V214.802H242.723V231.611H239.601Z" fill="white"></path>
<path d="M253.033 231.611V214.802H259.949C261.437 214.802 262.71 215.042 263.767 215.523C264.839 216.003 265.664 216.691 266.24 217.588C266.816 218.484 267.105 219.549 267.105 220.781C267.105 222.014 266.816 223.079 266.24 223.975C265.664 224.856 264.839 225.536 263.767 226.016C262.71 226.481 261.437 226.713 259.949 226.713H254.762L256.155 225.296V231.611H253.033ZM264.031 231.611L259.781 225.512H263.118L267.393 231.611H264.031ZM256.155 225.632L254.762 224.143H259.805C261.181 224.143 262.214 223.847 262.902 223.255C263.607 222.662 263.959 221.838 263.959 220.781C263.959 219.709 263.607 218.884 262.902 218.308C262.214 217.732 261.181 217.444 259.805 217.444H254.762L256.155 215.907V225.632Z" fill="white"></path>
<path d="M281.571 231.851C280.258 231.851 279.002 231.667 277.801 231.299C276.6 230.915 275.648 230.427 274.944 229.834L276.024 227.409C276.697 227.937 277.529 228.378 278.522 228.73C279.514 229.082 280.531 229.258 281.571 229.258C282.452 229.258 283.164 229.162 283.708 228.97C284.253 228.778 284.653 228.522 284.909 228.201C285.165 227.865 285.293 227.489 285.293 227.073C285.293 226.561 285.109 226.152 284.741 225.848C284.373 225.528 283.892 225.28 283.3 225.104C282.724 224.912 282.075 224.736 281.355 224.575C280.651 224.415 279.938 224.231 279.218 224.023C278.514 223.799 277.865 223.519 277.273 223.183C276.697 222.831 276.224 222.366 275.856 221.79C275.488 221.214 275.304 220.477 275.304 219.581C275.304 218.668 275.544 217.836 276.024 217.083C276.52 216.315 277.265 215.707 278.257 215.258C279.266 214.794 280.539 214.562 282.075 214.562C283.084 214.562 284.085 214.69 285.077 214.946C286.07 215.202 286.934 215.571 287.671 216.051L286.686 218.476C285.934 218.028 285.157 217.7 284.357 217.492C283.556 217.267 282.788 217.155 282.051 217.155C281.187 217.155 280.483 217.259 279.938 217.468C279.41 217.676 279.018 217.948 278.762 218.284C278.522 218.62 278.401 219.004 278.401 219.437C278.401 219.949 278.578 220.365 278.93 220.685C279.298 220.99 279.77 221.23 280.347 221.406C280.939 221.582 281.595 221.758 282.316 221.934C283.036 222.094 283.748 222.278 284.453 222.486C285.173 222.694 285.822 222.967 286.398 223.303C286.99 223.639 287.462 224.095 287.815 224.672C288.183 225.248 288.367 225.976 288.367 226.857C288.367 227.753 288.119 228.586 287.623 229.354C287.142 230.107 286.398 230.715 285.389 231.179C284.381 231.627 283.108 231.851 281.571 231.851Z" fill="white"></path>
<path d="M309.625 231.611V214.802H316.973C318.798 214.802 320.399 215.154 321.776 215.859C323.153 216.563 324.225 217.54 324.994 218.788C325.762 220.037 326.146 221.51 326.146 223.207C326.146 224.888 325.762 226.36 324.994 227.625C324.225 228.874 323.153 229.85 321.776 230.555C320.399 231.259 318.798 231.611 316.973 231.611H309.625ZM312.747 228.97H316.829C318.094 228.97 319.182 228.73 320.095 228.25C321.023 227.769 321.736 227.097 322.232 226.232C322.744 225.368 323 224.359 323 223.207C323 222.038 322.744 221.03 322.232 220.181C321.736 219.317 321.023 218.644 320.095 218.164C319.182 217.684 318.094 217.444 316.829 217.444H312.747V228.97Z" fill="white"></path>
<path d="M338.109 221.79H346.465V224.359H338.109V221.79ZM338.349 228.994H347.834V231.611H335.227V214.802H347.498V217.42H338.349V228.994Z" fill="white"></path>
<path d="M369.477 231.611V214.802H372.599V228.97H381.387V231.611H369.477Z" fill="white"></path>
<path d="M387.261 231.611L394.825 214.802H397.899L405.487 231.611H402.222L395.714 216.459H396.963L390.479 231.611H387.261ZM390.743 227.721L391.584 225.272H400.661L401.501 227.721H390.743Z" fill="white"></path>
<path d="M425.788 231.611V214.802H428.357L435.705 227.073H434.361L441.588 214.802H444.158L444.182 231.611H441.228L441.204 219.437H441.829L435.681 229.69H434.288L428.045 219.437H428.765V231.611H425.788Z" fill="white"></path>
<path d="M452.108 231.611L459.672 214.802H462.746L470.334 231.611H467.068L460.561 216.459H461.809L455.326 231.611H452.108ZM455.59 227.721L456.43 225.272H465.507L466.348 227.721H455.59Z" fill="white"></path>
<path d="M478.235 231.611V214.802H485.151C486.64 214.802 487.912 215.042 488.969 215.523C490.041 216.003 490.866 216.691 491.442 217.588C492.018 218.484 492.307 219.549 492.307 220.781C492.307 222.014 492.018 223.079 491.442 223.975C490.866 224.856 490.041 225.536 488.969 226.016C487.912 226.481 486.64 226.713 485.151 226.713H479.964L481.357 225.296V231.611H478.235ZM489.233 231.611L484.983 225.512H488.32L492.595 231.611H489.233ZM481.357 225.632L479.964 224.143H485.007C486.383 224.143 487.416 223.847 488.104 223.255C488.809 222.662 489.161 221.838 489.161 220.781C489.161 219.709 488.809 218.884 488.104 218.308C487.416 217.732 486.383 217.444 485.007 217.444H479.964L481.357 215.907V225.632Z" fill="white"></path>
<path d="M501.562 231.611V214.802H504.132L514.674 227.745H513.401V214.802H516.499V231.611H513.929L503.387 218.668H504.66V231.611H501.562Z" fill="white"></path>
<path d="M529.648 221.79H538.004V224.359H529.648V221.79ZM529.888 228.994H539.373V231.611H526.766V214.802H539.037V217.42H529.888V228.994Z" fill="white"></path>
<path d="M306.504 93.8244C306.504 95.3419 306.396 96.751 306.179 97.8349L300.651 103.363H271.06C271.385 109.433 277.021 117.996 288.511 117.996C294.798 117.996 299.35 116.261 302.819 113.985L301.735 123.524C298.266 125.366 293.822 126.667 287.21 126.667C273.228 126.667 260.871 116.261 260.871 100.978C260.871 84.286 273.878 75.1811 285.259 75.1811C298.808 75.1811 306.504 84.7195 306.504 93.8244ZM296.532 94.0412C296.532 89.1636 292.305 83.6356 285.801 83.6356C279.623 83.6356 273.011 88.5132 271.71 95.3419H296.424C296.532 94.9083 296.532 94.4748 296.532 94.0412Z" fill="white"></path>
<path d="M339.827 76.3734L338.525 84.286C337.646 84.286 337.933 84.286 336.524 84.286C330.129 84.286 320.726 89.272 320.726 100.653V125.475H310.862V76.3734H320.726V86.3454H320.834C322.677 79.3 327.694 76.3734 334.523 76.3734C335.932 76.3734 338.844 76.3734 339.827 76.3734Z" fill="white"></path>
<path d="M373.829 76.3734L372.094 84.286H356.486V110.408C356.486 116.045 359.413 117.996 364.615 117.996C366.35 117.996 367.867 117.779 369.059 117.345L368.192 125.15C366.892 125.8 364.724 126.017 362.773 126.017C353.885 126.017 346.731 120.922 346.731 111.384V84.286H337.084V76.3734H346.731V66.4014L356.486 61.307V76.3734H373.829Z" fill="white"></path>
<path d="M418.96 93.8244C418.96 95.3419 418.852 96.751 418.635 97.8349L413.107 103.363H383.516C383.841 109.433 389.478 117.996 400.967 117.996C407.254 117.996 411.806 116.261 415.275 113.985L414.191 123.524C410.722 125.366 406.278 126.667 399.666 126.667C385.684 126.667 373.327 116.261 373.327 100.978C373.327 84.286 386.334 75.1811 397.715 75.1811C411.264 75.1811 418.96 84.7195 418.96 93.8244ZM408.988 94.0412C408.988 89.1636 404.761 83.6356 398.257 83.6356C392.079 83.6356 385.467 88.5132 384.166 95.3419H408.88C408.988 94.9083 408.988 94.4748 408.988 94.0412ZM410.289 55.779C410.289 56.321 409.638 57.1881 408.771 58.0552C404.978 62.1741 400.642 65.4259 395.764 68.3524L390.453 66.0762C394.572 62.9329 399.883 57.7301 403.243 53.0692C404.002 51.9853 405.194 51.4434 405.953 51.4434C407.362 51.4434 410.289 54.4783 410.289 55.779Z" fill="white"></path>
<path fill-rule="evenodd" clip-rule="evenodd" d="M285.19 54.2452C283.57 56.8053 280.37 60.646 275.237 64.1668C266.953 69.307 255.259 70.5552 238.441 68.4799C224.349 66.7408 214.925 66.2224 210.597 66.7788C205.734 67.4027 199.112 71.6057 198.2 74.409C197.155 77.6235 197.896 82.0491 199.075 83.8292C199.801 84.9256 200.995 86.3647 203.554 83.8292C206.603 80.8071 211.237 81.1301 225.402 82.7304C242.755 85.0971 248.472 85.3939 254.226 83.6905C255.046 83.4476 255.724 83.2435 255.724 83.2435C255.724 83.2435 253.164 86.2509 248.214 89.1314C243.804 91.514 236.78 92.512 223.209 92.0119C197.155 91.0517 215.077 103.854 215.718 110.873C215.778 111.538 216.998 115.376 215.077 119.439C214.437 118.576 204.516 106.414 200.675 101.367C189.793 86.2509 186.026 79.0824 187.873 69.4429C189.304 61.9805 195.554 56.8062 202.79 55.2059C206.436 54.3994 210.131 54.3849 230.12 57.4802C254.609 61.2722 267.594 61.8576 275.009 59.366C278.952 58.0407 282.93 55.2053 284.637 53.9256C285.809 52.9656 286.129 52.6455 286.129 52.6455C286.129 52.6455 285.947 53.0488 285.19 54.2452Z" fill="white"></path>
</svg>