<svg width="968" height="140" viewBox="0 0 968 140" fill="none" xmlns="http://www.w3.org/2000/svg">
<path d="M414.698 44.2638L412.324 56.275C407.994 53.4817 399.335 50.5487 390.257 50.5487C373.218 50.5487 355.201 61.5822 355.201 84.2079C355.201 106.694 372.799 117.727 390.257 117.727C400.592 117.727 407.575 115.772 413.022 112.699L411.765 124.99C406.178 127.923 399.893 129.18 388.72 129.18C366.653 129.18 341.514 113.817 341.514 83.9286C341.514 53.6214 366.933 38.5376 388.72 38.5376C400.731 38.5376 409.251 41.1912 414.698 44.2638Z" fill="white"></path>
<path d="M483.937 96.9174C483.937 116.47 469.272 130.018 450.417 130.018C431.562 130.018 416.758 116.47 416.758 96.9174C416.758 77.2247 431.562 63.6772 450.417 63.6772C469.272 63.6772 483.937 77.2247 483.937 96.9174ZM471.087 97.1967C471.087 83.9286 461.451 75.1297 450.417 75.1297C439.244 75.1297 429.607 83.9286 429.607 97.1967C429.607 110.325 439.244 119.124 450.417 119.124C461.451 119.124 471.087 110.325 471.087 97.1967Z" fill="white"></path>
<path d="M544.8 128.482H532.09V87.8392C532.09 81.275 528.04 74.5711 517.426 74.5711C507.23 74.5711 502.202 81.275 502.202 87.8392V128.482H489.493V65.2135H501.085V73.4537H501.224C504.018 67.8672 509.744 63.6772 520.778 63.6772C534.604 63.6772 544.8 72.4761 544.8 86.5822V128.482Z" fill="white"></path>
<path d="M619.501 122.336L610.842 130.996C606.652 129.878 598.272 125.688 598.272 113.537C598.272 113.537 598.272 61.797 598.272 51.4832C598.272 41.1694 589.613 39.6549 585.143 39.6549C575.227 39.6549 570.339 45.6605 570.339 57.113V65.2135H584.445V75.409H570.339V128.482H557.629V75.409H546.875V65.2135H557.629V56.4147C557.629 38.5376 567.825 29.0404 584.305 29.0404C596.316 29.0404 610.981 33.7846 610.981 48.9047V111.861C610.981 117.727 615.59 121.638 619.501 122.336Z" fill="white"></path>
<path d="M678.272 128.482H666.68V120.241H666.54C663.747 125.828 658.021 130.018 646.987 130.018C633.161 130.018 622.965 121.219 622.965 107.113V65.2135H635.675V105.856C635.675 112.42 639.725 119.124 650.339 119.124C660.535 119.124 665.563 112.42 665.563 105.856V65.2135H678.272V128.482Z" fill="white"></path>
<path d="M742.638 87.6995C742.638 89.6548 742.498 91.4705 742.219 92.8671L735.096 99.99H696.968C697.387 107.811 704.649 118.845 719.454 118.845C727.554 118.845 733.42 116.61 737.889 113.677L736.493 125.968C732.023 128.342 726.297 130.018 717.778 130.018C699.761 130.018 683.839 116.61 683.839 96.9174C683.839 75.409 700.599 63.6772 715.264 63.6772C732.722 63.6772 742.638 75.9677 742.638 87.6995ZM729.789 87.9788C729.789 81.6939 724.342 74.5711 715.962 74.5711C708.001 74.5711 699.482 80.856 697.806 89.6548H729.649C729.789 89.0962 729.789 88.5375 729.789 87.9788Z" fill="white"></path>
<path d="M803.561 128.482H790.852V87.8392C790.852 81.275 786.801 74.5711 776.187 74.5711C765.991 74.5711 760.963 81.275 760.963 87.8392V128.482H748.254V65.2135H759.846V73.4537H759.986C762.779 67.8672 768.505 63.6772 779.539 63.6772C793.366 63.6772 803.561 72.4761 803.561 86.5822V128.482Z" fill="white"></path>
<path d="M862.899 68.9845L860.525 80.5766C854.798 76.9453 849.771 75.828 843.765 75.828C832.452 75.828 821.977 83.9286 821.977 97.1967C821.977 110.325 832.731 118.426 844.044 118.426C850.05 118.426 854.798 117.308 860.525 114.515L859.268 126.247C854.659 128.342 849.072 129.32 842.927 129.32C825.888 129.32 809.128 117.169 809.128 96.9174C809.128 76.5264 825.888 64.3755 842.927 64.3755C851.167 64.3755 857.592 66.0515 862.899 68.9845Z" fill="white"></path>
<path d="M922.456 87.6995C922.456 89.6548 922.316 91.4705 922.037 92.8671L914.914 99.99H876.786C877.205 107.811 884.467 118.845 899.272 118.845C907.372 118.845 913.238 116.61 917.707 113.677L916.311 125.968C911.842 128.342 906.115 130.018 897.596 130.018C879.579 130.018 863.657 116.61 863.657 96.9174C863.657 75.409 880.417 63.6772 895.082 63.6772C912.54 63.6772 922.456 75.9677 922.456 87.6995ZM909.607 87.9788C909.607 81.6939 904.16 74.5711 895.78 74.5711C887.819 74.5711 879.3 80.856 877.624 89.6548H909.467C909.607 89.0962 909.607 88.5375 909.607 87.9788Z" fill="white"></path>
<path d="M967.597 110.884C967.597 120.94 959.916 129.32 944.832 129.32C937.569 129.32 931.564 127.504 927.234 124.711L925.698 111.442C930.307 115.213 937.569 118.565 945.111 118.565C950.977 118.565 954.888 115.353 954.888 111.303C954.888 106.973 951.815 104.599 946.089 102.504C933.798 98.0347 926.815 92.3084 926.815 82.2526C926.815 71.7778 935.335 64.3755 947.765 64.3755C954.888 64.3755 961.731 66.8895 964.106 68.4258L961.592 79.0403C958.659 77.085 954.329 74.99 947.625 74.99C942.458 74.99 939.106 77.7833 939.106 81.8336C939.106 85.7442 941.899 87.5599 948.044 89.7945C960.474 94.2638 967.597 99.99 967.597 110.884Z" fill="white"></path>
<path d="M168.538 88.0979C168.538 90.0532 168.399 91.8688 168.119 93.2654L160.996 100.388H122.868C123.287 108.21 130.55 119.243 145.354 119.243C153.455 119.243 159.32 117.008 163.79 114.075L162.393 126.366C157.924 128.74 152.198 130.416 143.678 130.416C125.661 130.416 109.74 117.008 109.74 97.3157C109.74 75.8074 126.499 64.0756 141.164 64.0756C158.622 64.0756 168.538 76.366 168.538 88.0979ZM155.689 88.3772C155.689 82.0923 150.242 74.9694 141.862 74.9694C133.901 74.9694 125.382 81.2543 123.706 90.0532H155.549C155.689 89.4945 155.689 88.9358 155.689 88.3772Z" fill="white"></path>
<path d="M211.475 65.6119L209.798 75.8074C208.666 75.8074 209.035 75.8074 207.22 75.8074C198.979 75.8074 186.864 82.2319 186.864 96.8967V128.88H174.154V65.6119H186.864V78.461H187.003C189.378 69.3828 195.842 65.6119 204.641 65.6119C206.457 65.6119 210.21 65.6119 211.475 65.6119Z" fill="white"></path>
<path d="M255.287 65.6119L253.053 75.8074H232.941V109.467C232.941 116.729 236.712 119.243 243.416 119.243C245.651 119.243 247.606 118.964 249.142 118.405L248.025 128.461C246.349 129.299 243.556 129.578 241.042 129.578C229.589 129.578 220.371 123.014 220.371 110.724V75.8074H207.941V65.6119H220.371V52.7627L232.941 46.1985V65.6119H255.287Z" fill="white"></path>
<path d="M313.44 88.0979C313.44 90.0532 313.301 91.8688 313.021 93.2654L305.898 100.388H267.77C268.189 108.21 275.452 119.243 290.256 119.243C298.357 119.243 304.222 117.008 308.692 114.075L307.295 126.366C302.826 128.74 297.1 130.416 288.58 130.416C270.563 130.416 254.641 117.008 254.641 97.3157C254.641 75.8074 271.401 64.0756 286.066 64.0756C303.524 64.0756 313.44 76.366 313.44 88.0979ZM300.591 88.3772C300.591 82.0923 295.144 74.9694 286.764 74.9694C278.803 74.9694 270.284 81.2543 268.608 90.0532H300.451C300.591 89.4945 300.591 88.9358 300.591 88.3772ZM302.267 39.0756C302.267 39.7739 301.429 40.8912 300.312 42.0085C295.424 47.3158 289.837 51.5057 283.552 55.2767L276.708 52.3437C282.016 48.2935 288.859 41.5896 293.189 35.584C294.167 34.1873 295.703 33.489 296.681 33.489C298.496 33.489 302.267 37.3996 302.267 39.0756Z" fill="white"></path>
<path fill-rule="evenodd" clip-rule="evenodd" d="M140.988 37.2348C138.903 40.5299 134.784 45.473 128.177 50.0045C117.515 56.6202 102.465 58.2268 80.819 55.5557C62.6819 53.3174 50.5518 52.6502 44.9814 53.3664C38.7223 54.1693 30.1993 59.5788 29.026 63.1869C27.6805 67.3241 28.6349 73.0201 30.1521 75.3113C31.0863 76.7223 32.6236 78.5746 35.9165 75.3113C39.8412 71.4216 45.8053 71.8374 64.0367 73.897C86.3711 76.9431 93.7297 77.3251 101.135 75.1328C102.191 74.8201 103.063 74.5574 103.063 74.5574C103.063 74.5574 99.7676 78.4282 93.3975 82.1355C87.7214 85.202 78.681 86.4865 61.2146 85.8428C27.6805 84.6071 50.7484 101.084 51.5723 110.118C51.6504 110.975 53.22 115.913 50.7484 121.144C49.9245 120.033 37.1548 104.38 32.2117 97.8833C18.2062 78.4282 13.3569 69.2018 15.7347 56.7952C17.5763 47.1907 25.6209 40.531 34.9333 38.4713C39.6264 37.4333 44.3821 37.4146 70.1089 41.3985C101.628 46.279 118.341 47.0325 127.884 43.8256C132.959 42.1199 138.078 38.4706 140.275 36.8234C141.784 35.5878 142.196 35.1759 142.196 35.1759C142.196 35.1759 141.962 35.695 140.988 37.2348Z" fill="white"></path>
</svg>