<svg width="461" height="221" viewBox="0 0 461 221" fill="none" xmlns="http://www.w3.org/2000/svg">
<rect width="460.079" height="220.038" fill="#033059"></rect>
<path d="M42.3828 179.696V166.654H47.7484C48.9035 166.654 49.891 166.84 50.7107 167.213C51.5429 167.586 52.1825 168.12 52.6297 168.815C53.0768 169.511 53.3004 170.337 53.3004 171.293C53.3004 172.249 53.0768 173.075 52.6297 173.771C52.1825 174.467 51.5429 175.001 50.7107 175.373C49.891 175.746 48.9035 175.932 47.7484 175.932H43.7242L44.8048 174.796V179.696H42.3828ZM44.8048 175.056L43.7242 173.883H47.6366C48.7048 173.883 49.5059 173.659 50.04 173.212C50.5865 172.753 50.8597 172.113 50.8597 171.293C50.8597 170.461 50.5865 169.821 50.04 169.374C49.5059 168.927 48.7048 168.703 47.6366 168.703H43.7242L44.8048 167.511V175.056Z" fill="#D3E7F7"></path>
<path d="M66.4831 179.882C65.4646 179.882 64.5269 179.714 63.6699 179.379C62.8129 179.043 62.0677 178.578 61.4342 177.981C60.8008 177.373 60.3102 176.665 59.9624 175.858C59.6146 175.038 59.4407 174.144 59.4407 173.175C59.4407 172.206 59.6146 171.318 59.9624 170.511C60.3102 169.691 60.8008 168.983 61.4342 168.387C62.0677 167.778 62.8129 167.306 63.6699 166.971C64.5269 166.635 65.4584 166.468 66.4645 166.468C67.483 166.468 68.4145 166.635 69.2591 166.971C70.1161 167.306 70.8613 167.778 71.4947 168.387C72.1282 168.983 72.6188 169.691 72.9666 170.511C73.3143 171.318 73.4882 172.206 73.4882 173.175C73.4882 174.144 73.3143 175.038 72.9666 175.858C72.6188 176.677 72.1282 177.385 71.4947 177.981C70.8613 178.578 70.1161 179.043 69.2591 179.379C68.4145 179.714 67.4892 179.882 66.4831 179.882ZM66.4645 177.758C67.1228 177.758 67.7314 177.646 68.2903 177.423C68.8492 177.199 69.3336 176.882 69.7435 176.472C70.1533 176.05 70.4701 175.566 70.6936 175.019C70.9296 174.46 71.0476 173.845 71.0476 173.175C71.0476 172.504 70.9296 171.895 70.6936 171.349C70.4701 170.79 70.1533 170.306 69.7435 169.896C69.3336 169.474 68.8492 169.151 68.2903 168.927C67.7314 168.703 67.1228 168.592 66.4645 168.592C65.8062 168.592 65.1976 168.703 64.6387 168.927C64.0922 169.151 63.6078 169.474 63.1855 169.896C62.7756 170.306 62.4527 170.79 62.2167 171.349C61.9931 171.895 61.8814 172.504 61.8814 173.175C61.8814 173.833 61.9931 174.442 62.2167 175.001C62.4527 175.56 62.7756 176.05 63.1855 176.472C63.5954 176.882 64.0798 177.199 64.6387 177.423C65.1976 177.646 65.8062 177.758 66.4645 177.758Z" fill="#D3E7F7"></path>
<path d="M80.5268 179.696V166.654H85.8924C87.0475 166.654 88.0349 166.84 88.8547 167.213C89.6869 167.586 90.3265 168.12 90.7737 168.815C91.2208 169.511 91.4444 170.337 91.4444 171.293C91.4444 172.249 91.2208 173.075 90.7737 173.771C90.3265 174.454 89.6869 174.982 88.8547 175.355C88.0349 175.715 87.0475 175.895 85.8924 175.895H81.8682L82.9488 174.796V179.696H80.5268ZM89.0596 179.696L85.762 174.963H88.3517L91.6679 179.696H89.0596ZM82.9488 175.056L81.8682 173.901H85.7806C86.8488 173.901 87.6499 173.672 88.184 173.212C88.7305 172.753 89.0037 172.113 89.0037 171.293C89.0037 170.461 88.7305 169.821 88.184 169.374C87.6499 168.927 86.8488 168.703 85.7806 168.703H81.8682L82.9488 167.511V175.056Z" fill="#D3E7F7"></path>
<path d="M101.089 179.696V168.703H96.7667V166.654H107.833V168.703H103.511V179.696H101.089Z" fill="#D3E7F7"></path>
<path d="M123.743 179.696V166.654H126.165V177.646H132.983V179.696H123.743Z" fill="#D3E7F7"></path>
<path d="M145.241 179.882C144.223 179.882 143.285 179.714 142.428 179.379C141.571 179.043 140.826 178.578 140.192 177.981C139.559 177.373 139.068 176.665 138.72 175.858C138.373 175.038 138.199 174.144 138.199 173.175C138.199 172.206 138.373 171.318 138.72 170.511C139.068 169.691 139.559 168.983 140.192 168.387C140.826 167.778 141.571 167.306 142.428 166.971C143.285 166.635 144.216 166.468 145.223 166.468C146.241 166.468 147.172 166.635 148.017 166.971C148.874 167.306 149.619 167.778 150.253 168.387C150.886 168.983 151.377 169.691 151.725 170.511C152.072 171.318 152.246 172.206 152.246 173.175C152.246 174.144 152.072 175.038 151.725 175.858C151.377 176.677 150.886 177.385 150.253 177.981C149.619 178.578 148.874 179.043 148.017 179.379C147.172 179.714 146.247 179.882 145.241 179.882ZM145.223 177.758C145.881 177.758 146.489 177.646 147.048 177.423C147.607 177.199 148.092 176.882 148.501 176.472C148.911 176.05 149.228 175.566 149.452 175.019C149.688 174.46 149.806 173.845 149.806 173.175C149.806 172.504 149.688 171.895 149.452 171.349C149.228 170.79 148.911 170.306 148.501 169.896C148.092 169.474 147.607 169.151 147.048 168.927C146.489 168.703 145.881 168.592 145.223 168.592C144.564 168.592 143.956 168.703 143.397 168.927C142.85 169.151 142.366 169.474 141.944 169.896C141.534 170.306 141.211 170.79 140.975 171.349C140.751 171.895 140.639 172.504 140.639 173.175C140.639 173.833 140.751 174.442 140.975 175.001C141.211 175.56 141.534 176.05 141.944 176.472C142.353 176.882 142.838 177.199 143.397 177.423C143.956 177.646 144.564 177.758 145.223 177.758Z" fill="#D3E7F7"></path>
<path d="M159.285 179.696V166.654H161.707V179.696H159.285Z" fill="#D3E7F7"></path>
<path d="M173.748 179.882C172.73 179.882 171.755 179.739 170.823 179.453C169.892 179.155 169.153 178.776 168.606 178.317L169.445 176.435C169.966 176.845 170.612 177.187 171.382 177.46C172.152 177.733 172.941 177.87 173.748 177.87C174.432 177.87 174.984 177.795 175.407 177.646C175.829 177.497 176.139 177.298 176.338 177.05C176.537 176.789 176.636 176.497 176.636 176.174C176.636 175.777 176.493 175.46 176.208 175.224C175.922 174.976 175.549 174.783 175.09 174.647C174.643 174.498 174.14 174.361 173.581 174.237C173.034 174.113 172.482 173.97 171.923 173.808C171.376 173.634 170.873 173.417 170.414 173.156C169.966 172.883 169.6 172.523 169.314 172.076C169.029 171.628 168.886 171.057 168.886 170.362C168.886 169.654 169.072 169.008 169.445 168.424C169.83 167.828 170.407 167.356 171.177 167.008C171.96 166.648 172.947 166.468 174.14 166.468C174.922 166.468 175.698 166.567 176.469 166.766C177.239 166.965 177.909 167.25 178.481 167.623L177.717 169.505C177.133 169.157 176.531 168.902 175.91 168.741C175.289 168.567 174.692 168.48 174.121 168.48C173.45 168.48 172.904 168.561 172.482 168.722C172.072 168.884 171.767 169.095 171.569 169.356C171.382 169.616 171.289 169.914 171.289 170.25C171.289 170.647 171.426 170.97 171.699 171.219C171.985 171.455 172.351 171.641 172.798 171.777C173.258 171.914 173.767 172.051 174.326 172.187C174.885 172.312 175.438 172.454 175.984 172.616C176.543 172.777 177.046 172.988 177.493 173.249C177.953 173.51 178.319 173.864 178.592 174.311C178.878 174.758 179.021 175.324 179.021 176.007C179.021 176.702 178.828 177.348 178.443 177.944C178.071 178.528 177.493 179 176.711 179.36C175.928 179.708 174.941 179.882 173.748 179.882Z" fill="#D3E7F7"></path>
<path d="M185.894 179.696V166.654H188.316V179.696H185.894Z" fill="#D3E7F7"></path>
<path d="M196.315 179.696V166.654H201.68C202.835 166.654 203.823 166.84 204.643 167.213C205.475 167.586 206.114 168.12 206.561 168.815C207.009 169.511 207.232 170.337 207.232 171.293C207.232 172.249 207.009 173.075 206.561 173.771C206.114 174.454 205.475 174.982 204.643 175.355C203.823 175.715 202.835 175.895 201.68 175.895H197.656L198.737 174.796V179.696H196.315ZM204.847 179.696L201.55 174.963H204.139L207.456 179.696H204.847ZM198.737 175.056L197.656 173.901H201.568C202.637 173.901 203.438 173.672 203.972 173.212C204.518 172.753 204.792 172.113 204.792 171.293C204.792 170.461 204.518 169.821 203.972 169.374C203.438 168.927 202.637 168.703 201.568 168.703H197.656L198.737 167.511V175.056Z" fill="#D3E7F7"></path>
<path d="M218.456 179.882C217.438 179.882 216.463 179.739 215.531 179.453C214.6 179.155 213.861 178.776 213.314 178.317L214.152 176.435C214.674 176.845 215.32 177.187 216.09 177.46C216.86 177.733 217.649 177.87 218.456 177.87C219.139 177.87 219.692 177.795 220.114 177.646C220.537 177.497 220.847 177.298 221.046 177.05C221.244 176.789 221.344 176.497 221.344 176.174C221.344 175.777 221.201 175.46 220.915 175.224C220.63 174.976 220.257 174.783 219.798 174.647C219.35 174.498 218.847 174.361 218.288 174.237C217.742 174.113 217.189 173.97 216.63 173.808C216.084 173.634 215.581 173.417 215.121 173.156C214.674 172.883 214.308 172.523 214.022 172.076C213.736 171.628 213.594 171.057 213.594 170.362C213.594 169.654 213.78 169.008 214.152 168.424C214.537 167.828 215.115 167.356 215.885 167.008C216.668 166.648 217.655 166.468 218.847 166.468C219.63 166.468 220.406 166.567 221.176 166.766C221.946 166.965 222.617 167.25 223.188 167.623L222.424 169.505C221.841 169.157 221.238 168.902 220.617 168.741C219.996 168.567 219.4 168.48 218.829 168.48C218.158 168.48 217.612 168.561 217.189 168.722C216.779 168.884 216.475 169.095 216.276 169.356C216.09 169.616 215.997 169.914 215.997 170.25C215.997 170.647 216.133 170.97 216.407 171.219C216.692 171.455 217.059 171.641 217.506 171.777C217.966 171.914 218.475 172.051 219.034 172.187C219.593 172.312 220.145 172.454 220.692 172.616C221.251 172.777 221.754 172.988 222.201 173.249C222.66 173.51 223.027 173.864 223.3 174.311C223.586 174.758 223.729 175.324 223.729 176.007C223.729 176.702 223.536 177.348 223.151 177.944C222.778 178.528 222.201 179 221.418 179.36C220.636 179.708 219.648 179.882 218.456 179.882Z" fill="#D3E7F7"></path>
<path d="M240.222 179.696V166.654H245.923C247.339 166.654 248.581 166.927 249.649 167.474C250.717 168.02 251.549 168.778 252.145 169.747C252.742 170.716 253.04 171.858 253.04 173.175C253.04 174.479 252.742 175.622 252.145 176.603C251.549 177.572 250.717 178.329 249.649 178.876C248.581 179.422 247.339 179.696 245.923 179.696H240.222ZM242.644 177.646H245.811C246.792 177.646 247.637 177.46 248.345 177.087C249.065 176.715 249.618 176.193 250.003 175.522C250.4 174.852 250.599 174.069 250.599 173.175C250.599 172.268 250.4 171.486 250.003 170.827C249.618 170.157 249.065 169.635 248.345 169.262C247.637 168.89 246.792 168.703 245.811 168.703H242.644V177.646Z" fill="#D3E7F7"></path>
<path d="M262.321 172.076H268.804V174.069H262.321V172.076ZM262.507 177.665H269.866V179.696H260.085V166.654H269.605V168.685H262.507V177.665Z" fill="#D3E7F7"></path>
<path d="M286.658 179.696V166.654H289.08V177.646H295.899V179.696H286.658Z" fill="#D3E7F7"></path>
<path d="M300.456 179.696L306.324 166.654H308.709L314.596 179.696H312.063L307.014 167.94H307.983L302.952 179.696H300.456ZM303.157 176.677L303.809 174.777H310.852L311.504 176.677H303.157Z" fill="#D3E7F7"></path>
<path d="M330.347 179.696V166.654H332.34L338.041 176.174H336.998L342.606 166.654H344.599L344.618 179.696H342.326L342.307 170.25H342.792L338.022 178.205H336.942L332.098 170.25H332.657V179.696H330.347Z" fill="#D3E7F7"></path>
<path d="M350.767 179.696L356.636 166.654H359.021L364.908 179.696H362.374L357.325 167.94H358.294L353.264 179.696H350.767ZM353.469 176.677L354.121 174.777H361.163L361.815 176.677H353.469Z" fill="#D3E7F7"></path>
<path d="M371.038 179.696V166.654H376.403C377.558 166.654 378.546 166.84 379.366 167.213C380.198 167.586 380.837 168.12 381.285 168.815C381.732 169.511 381.955 170.337 381.955 171.293C381.955 172.249 381.732 173.075 381.285 173.771C380.837 174.454 380.198 174.982 379.366 175.355C378.546 175.715 377.558 175.895 376.403 175.895H372.379L373.46 174.796V179.696H371.038ZM379.571 179.696L376.273 174.963H378.863L382.179 179.696H379.571ZM373.46 175.056L372.379 173.901H376.292C377.36 173.901 378.161 173.672 378.695 173.212C379.241 172.753 379.515 172.113 379.515 171.293C379.515 170.461 379.241 169.821 378.695 169.374C378.161 168.927 377.36 168.703 376.292 168.703H372.379L373.46 167.511V175.056Z" fill="#D3E7F7"></path>
<path d="M389.136 179.696V166.654H391.13L399.309 176.696H398.321V166.654H400.725V179.696H398.731L390.552 169.654H391.54V179.696H389.136Z" fill="#D3E7F7"></path>
<path d="M410.926 172.076H417.41V174.069H410.926V172.076ZM411.113 177.665H418.472V179.696H408.691V166.654H418.211V168.685H411.113V177.665Z" fill="#D3E7F7"></path>
<path d="M84.6989 101.33L83.2693 108.562C80.6623 106.88 75.4484 105.114 69.9822 105.114C59.7225 105.114 48.8742 111.757 48.8742 125.381C48.8742 138.92 59.4702 145.564 69.9822 145.564C76.2052 145.564 80.41 144.386 83.6898 142.536L82.9329 149.937C79.5691 151.703 75.7848 152.46 69.0571 152.46C55.77 152.46 40.6328 143.209 40.6328 125.213C40.6328 106.964 55.9382 97.8816 69.0571 97.8816C76.2893 97.8816 81.4192 99.4794 84.6989 101.33Z" fill="#D3E7F7"></path>
<path d="M126.389 133.034C126.389 144.807 117.559 152.964 106.206 152.964C94.8534 152.964 85.9393 144.807 85.9393 133.034C85.9393 121.176 94.8534 113.019 106.206 113.019C117.559 113.019 126.389 121.176 126.389 133.034ZM118.652 133.202C118.652 125.213 112.85 119.915 106.206 119.915C99.4787 119.915 93.6761 125.213 93.6761 133.202C93.6761 141.107 99.4787 146.405 106.206 146.405C112.85 146.405 118.652 141.107 118.652 133.202Z" fill="#D3E7F7"></path>
<path d="M163.037 152.039H155.384V127.567C155.384 123.615 152.945 119.578 146.554 119.578C140.415 119.578 137.387 123.615 137.387 127.567V152.039H129.735V113.944H136.715V118.905H136.799C138.481 115.542 141.929 113.019 148.572 113.019C156.898 113.019 163.037 118.317 163.037 126.81V152.039Z" fill="#D3E7F7"></path>
<path d="M208.016 148.339L202.802 153.553C200.279 152.88 195.233 150.357 195.233 143.041C195.233 143.041 195.233 111.887 195.233 105.676C195.233 99.4663 190.019 98.5543 187.328 98.5543C181.358 98.5543 178.414 102.17 178.414 109.066V113.944H186.908V120.083H178.414V152.039H170.762V120.083H164.286V113.944H170.762V108.646C170.762 97.8816 176.901 92.1631 186.824 92.1631C194.056 92.1631 202.886 95.0197 202.886 104.124V142.032C202.886 145.564 205.661 147.918 208.016 148.339Z" fill="#D3E7F7"></path>
<path d="M243.404 152.039H236.424V147.078H236.34C234.658 150.441 231.21 152.964 224.566 152.964C216.241 152.964 210.102 147.666 210.102 139.173V113.944H217.755V138.416C217.755 142.368 220.193 146.405 226.585 146.405C232.724 146.405 235.751 142.368 235.751 138.416V113.944H243.404V152.039Z" fill="#D3E7F7"></path>
<path d="M282.16 127.483C282.16 128.661 282.076 129.754 281.908 130.595L277.619 134.884H254.661C254.913 139.593 259.286 146.237 268.2 146.237C273.078 146.237 276.61 144.891 279.301 143.125L278.46 150.525C275.769 151.955 272.321 152.964 267.191 152.964C256.343 152.964 246.756 144.891 246.756 133.034C246.756 120.083 256.847 113.019 265.677 113.019C276.189 113.019 282.16 120.419 282.16 127.483ZM274.423 127.651C274.423 123.867 271.143 119.578 266.098 119.578C261.304 119.578 256.174 123.363 255.165 128.661H274.339C274.423 128.324 274.423 127.988 274.423 127.651Z" fill="#D3E7F7"></path>
<path d="M318.843 152.039H311.191V127.567C311.191 123.615 308.752 119.578 302.361 119.578C296.222 119.578 293.194 123.615 293.194 127.567V152.039H285.542V113.944H292.521V118.905H292.606C294.287 115.542 297.735 113.019 304.379 113.019C312.704 113.019 318.843 118.317 318.843 126.81V152.039Z" fill="#D3E7F7"></path>
<path d="M354.572 116.214L353.143 123.194C349.695 121.008 346.667 120.335 343.051 120.335C336.239 120.335 329.932 125.213 329.932 133.202C329.932 141.107 336.407 145.984 343.219 145.984C346.835 145.984 349.695 145.311 353.143 143.63L352.386 150.694C349.61 151.955 346.247 152.544 342.546 152.544C332.287 152.544 322.195 145.227 322.195 133.034C322.195 120.756 332.287 113.439 342.546 113.439C347.508 113.439 351.376 114.448 354.572 116.214Z" fill="#D3E7F7"></path>
<path d="M390.433 127.483C390.433 128.661 390.349 129.754 390.181 130.595L385.892 134.884H362.934C363.186 139.593 367.559 146.237 376.473 146.237C381.351 146.237 384.883 144.891 387.574 143.125L386.733 150.525C384.042 151.955 380.594 152.964 375.464 152.964C364.616 152.964 355.029 144.891 355.029 133.034C355.029 120.083 365.12 113.019 373.95 113.019C384.462 113.019 390.433 120.419 390.433 127.483ZM382.696 127.651C382.696 123.867 379.416 119.578 374.371 119.578C369.577 119.578 364.447 123.363 363.438 128.661H382.612C382.696 128.324 382.696 127.988 382.696 127.651Z" fill="#D3E7F7"></path>
<path d="M417.614 141.443C417.614 147.498 412.988 152.544 403.906 152.544C399.533 152.544 395.917 151.45 393.31 149.769L392.385 141.779C395.16 144.05 399.533 146.068 404.074 146.068C407.606 146.068 409.961 144.134 409.961 141.695C409.961 139.088 408.111 137.659 404.663 136.397C397.262 133.706 393.058 130.258 393.058 124.204C393.058 117.896 398.187 113.439 405.672 113.439C409.961 113.439 414.082 114.953 415.511 115.878L413.997 122.269C412.231 121.092 409.625 119.831 405.588 119.831C402.476 119.831 400.458 121.512 400.458 123.951C400.458 126.306 402.14 127.399 405.84 128.745C413.325 131.436 417.614 134.884 417.614 141.443Z" fill="#D3E7F7"></path>
<path d="M237.807 72.793C237.807 73.9703 237.722 75.0636 237.554 75.9045L233.265 80.1934H210.307C210.56 84.9028 214.933 91.5463 223.847 91.5463C228.724 91.5463 232.256 90.2008 234.947 88.4348L234.106 95.8352C231.415 97.2648 227.967 98.274 222.838 98.274C211.989 98.274 202.402 90.2008 202.402 78.3433C202.402 65.3926 212.494 58.3286 221.324 58.3286C231.836 58.3286 237.807 65.729 237.807 72.793ZM230.07 72.9612C230.07 69.1769 226.79 64.888 221.744 64.888C216.951 64.888 211.821 68.6723 210.812 73.9703H229.986C230.07 73.6339 230.07 73.2976 230.07 72.9612Z" fill="#D3E7F7"></path>
<path d="M263.66 59.2536L262.65 65.3926C261.968 65.3926 262.191 65.3926 261.098 65.3926C256.136 65.3926 248.841 69.261 248.841 78.091V97.3489H241.188V59.2536H248.841V66.9904H248.925C250.355 61.5242 254.247 59.2536 259.545 59.2536C260.638 59.2536 262.898 59.2536 263.66 59.2536Z" fill="#D3E7F7"></path>
<path d="M290.04 59.2536L288.695 65.3926H276.585V85.6596C276.585 90.0326 278.856 91.5463 282.892 91.5463C284.238 91.5463 285.415 91.3781 286.34 91.0417L285.667 97.0966C284.658 97.6012 282.976 97.7694 281.463 97.7694C274.567 97.7694 269.017 93.8169 269.017 86.4165V65.3926H261.532V59.2536H269.017V51.5168L276.585 47.5643V59.2536H290.04Z" fill="#D3E7F7"></path>
<path d="M325.056 72.793C325.056 73.9703 324.972 75.0636 324.803 75.9045L320.515 80.1934H297.557C297.809 84.9028 302.182 91.5463 311.096 91.5463C315.973 91.5463 319.505 90.2008 322.197 88.4348L321.356 95.8352C318.664 97.2648 315.217 98.274 310.087 98.274C299.238 98.274 289.652 90.2008 289.652 78.3433C289.652 65.3926 299.743 58.3286 308.573 58.3286C319.085 58.3286 325.056 65.729 325.056 72.793ZM317.319 72.9612C317.319 69.1769 314.039 64.888 308.993 64.888C304.2 64.888 299.07 68.6723 298.061 73.9703H317.235C317.319 73.6339 317.319 73.2976 317.319 72.9612ZM318.328 43.2754C318.328 43.6959 317.824 44.3687 317.151 45.0414C314.207 48.2371 310.844 50.76 307.059 53.0305L302.939 51.2645C306.134 48.8258 310.255 44.7892 312.862 41.1731C313.451 40.3321 314.376 39.9116 314.964 39.9116C316.058 39.9116 318.328 42.2663 318.328 43.2754Z" fill="#D3E7F7"></path>
<path fill-rule="evenodd" clip-rule="evenodd" d="M221.264 42.0853C220.007 44.0717 217.524 47.0514 213.542 49.783C207.114 53.771 198.042 54.7395 184.994 53.1294C174.06 51.7801 166.748 51.3779 163.39 51.8096C159.617 52.2936 154.48 55.5545 153.772 57.7295C152.961 60.2234 153.537 63.657 154.451 65.0381C155.014 65.8887 155.941 67.0053 157.926 65.0381C160.292 62.6934 163.887 62.944 174.877 64.1856C188.341 66.0218 192.776 66.2521 197.24 64.9305C197.877 64.7421 198.403 64.5837 198.403 64.5837C198.403 64.5837 196.416 66.917 192.576 69.1518C189.154 71.0004 183.705 71.7746 173.176 71.3866C152.961 70.6417 166.867 80.5742 167.363 86.02C167.411 86.5362 168.357 89.5134 166.867 92.6663C166.37 91.9966 158.673 82.5607 155.693 78.6447C147.25 66.917 144.327 61.3553 145.76 53.8765C146.87 48.0868 151.72 44.0723 157.333 42.8307C160.162 42.205 163.029 42.1938 178.538 44.5952C197.538 47.5373 207.612 47.9915 213.365 46.0583C216.424 45.0301 219.51 42.8303 220.834 41.8374C221.744 41.0926 221.992 40.8442 221.992 40.8442C221.992 40.8442 221.851 41.1572 221.264 42.0853Z" fill="#D3E7F7"></path>
</svg>