<svg width="968" height="177" viewBox="0 0 968 177" fill="none" xmlns="http://www.w3.org/2000/svg">
<path d="M176.608 176.357V154.698H185.519C187.437 154.698 189.077 155.007 190.439 155.626C191.821 156.245 192.883 157.132 193.626 158.287C194.368 159.442 194.74 160.814 194.74 162.402C194.74 163.991 194.368 165.362 193.626 166.518C192.883 167.673 191.821 168.56 190.439 169.179C189.077 169.797 187.437 170.107 185.519 170.107H178.836L180.63 168.219V176.357H176.608ZM180.63 168.653L178.836 166.703H185.333C187.107 166.703 188.438 166.332 189.325 165.589C190.232 164.826 190.686 163.764 190.686 162.402C190.686 161.02 190.232 159.958 189.325 159.215C188.438 158.473 187.107 158.102 185.333 158.102H178.836L180.63 156.121V168.653Z" fill="white"></path>
<path d="M216.633 176.666C214.942 176.666 213.384 176.388 211.961 175.831C210.538 175.274 209.3 174.5 208.248 173.51C207.196 172.5 206.381 171.324 205.804 169.983C205.226 168.622 204.937 167.136 204.937 165.527C204.937 163.919 205.226 162.444 205.804 161.103C206.381 159.741 207.196 158.566 208.248 157.576C209.3 156.565 210.538 155.781 211.961 155.224C213.384 154.667 214.932 154.389 216.602 154.389C218.294 154.389 219.841 154.667 221.244 155.224C222.667 155.781 223.905 156.565 224.957 157.576C226.009 158.566 226.823 159.741 227.401 161.103C227.978 162.444 228.267 163.919 228.267 165.527C228.267 167.136 227.978 168.622 227.401 169.983C226.823 171.344 226.009 172.52 224.957 173.51C223.905 174.5 222.667 175.274 221.244 175.831C219.841 176.388 218.304 176.666 216.633 176.666ZM216.602 173.139C217.696 173.139 218.706 172.953 219.635 172.582C220.563 172.211 221.367 171.685 222.048 171.004C222.729 170.303 223.255 169.498 223.626 168.591C224.018 167.662 224.214 166.641 224.214 165.527C224.214 164.414 224.018 163.403 223.626 162.495C223.255 161.567 222.729 160.762 222.048 160.082C221.367 159.38 220.563 158.844 219.635 158.473C218.706 158.102 217.696 157.916 216.602 157.916C215.509 157.916 214.498 158.102 213.57 158.473C212.662 158.844 211.858 159.38 211.157 160.082C210.476 160.762 209.94 161.567 209.548 162.495C209.176 163.403 208.991 164.414 208.991 165.527C208.991 166.621 209.176 167.631 209.548 168.56C209.94 169.488 210.476 170.303 211.157 171.004C211.837 171.685 212.642 172.211 213.57 172.582C214.498 172.953 215.509 173.139 216.602 173.139Z" fill="white"></path>
<path d="M239.957 176.357V154.698H248.868C250.786 154.698 252.426 155.007 253.788 155.626C255.17 156.245 256.232 157.132 256.975 158.287C257.717 159.442 258.089 160.814 258.089 162.402C258.089 163.991 257.717 165.362 256.975 166.518C256.232 167.652 255.17 168.529 253.788 169.148C252.426 169.746 250.786 170.045 248.868 170.045H242.185L243.979 168.219V176.357H239.957ZM254.128 176.357L248.651 168.498H252.952L258.46 176.357H254.128ZM243.979 168.653L242.185 166.734H248.682C250.456 166.734 251.787 166.353 252.674 165.589C253.581 164.826 254.035 163.764 254.035 162.402C254.035 161.02 253.581 159.958 252.674 159.215C251.787 158.473 250.456 158.102 248.682 158.102H242.185L243.979 156.121V168.653Z" fill="white"></path>
<path d="M274.106 176.357V158.102H266.928V154.698H285.307V158.102H278.129V176.357H274.106Z" fill="white"></path>
<path d="M311.729 176.357V154.698H315.751V172.953H327.076V176.357H311.729Z" fill="white"></path>
<path d="M347.433 176.666C345.742 176.666 344.184 176.388 342.761 175.831C341.338 175.274 340.1 174.5 339.048 173.51C337.996 172.5 337.181 171.324 336.604 169.983C336.026 168.622 335.737 167.136 335.737 165.527C335.737 163.919 336.026 162.444 336.604 161.103C337.181 159.741 337.996 158.566 339.048 157.576C340.1 156.565 341.338 155.781 342.761 155.224C344.184 154.667 345.732 154.389 347.402 154.389C349.094 154.389 350.641 154.667 352.044 155.224C353.467 155.781 354.705 156.565 355.757 157.576C356.809 158.566 357.623 159.741 358.201 161.103C358.779 162.444 359.067 163.919 359.067 165.527C359.067 167.136 358.779 168.622 358.201 169.983C357.623 171.344 356.809 172.52 355.757 173.51C354.705 174.5 353.467 175.274 352.044 175.831C350.641 176.388 349.104 176.666 347.433 176.666ZM347.402 173.139C348.496 173.139 349.506 172.953 350.435 172.582C351.363 172.211 352.167 171.685 352.848 171.004C353.529 170.303 354.055 169.498 354.426 168.591C354.818 167.662 355.014 166.641 355.014 165.527C355.014 164.414 354.818 163.403 354.426 162.495C354.055 161.567 353.529 160.762 352.848 160.082C352.167 159.38 351.363 158.844 350.435 158.473C349.506 158.102 348.496 157.916 347.402 157.916C346.309 157.916 345.298 158.102 344.37 158.473C343.463 158.844 342.658 159.38 341.957 160.082C341.276 160.762 340.74 161.567 340.348 162.495C339.976 163.403 339.791 164.414 339.791 165.527C339.791 166.621 339.976 167.631 340.348 168.56C340.74 169.488 341.276 170.303 341.957 171.004C342.637 171.685 343.442 172.211 344.37 172.582C345.298 172.953 346.309 173.139 347.402 173.139Z" fill="white"></path>
<path d="M370.757 176.357V154.698H374.779V176.357H370.757Z" fill="white"></path>
<path d="M394.778 176.666C393.086 176.666 391.467 176.429 389.92 175.955C388.373 175.46 387.146 174.831 386.238 174.067L387.63 170.942C388.497 171.623 389.569 172.19 390.848 172.644C392.127 173.098 393.437 173.325 394.778 173.325C395.912 173.325 396.83 173.201 397.532 172.953C398.233 172.706 398.749 172.376 399.079 171.963C399.409 171.53 399.574 171.045 399.574 170.509C399.574 169.849 399.337 169.323 398.862 168.931C398.388 168.518 397.769 168.199 397.006 167.972C396.263 167.724 395.428 167.497 394.499 167.291C393.592 167.085 392.674 166.848 391.746 166.579C390.838 166.291 390.002 165.93 389.239 165.497C388.497 165.043 387.888 164.445 387.414 163.702C386.939 162.959 386.702 162.01 386.702 160.855C386.702 159.68 387.012 158.607 387.63 157.637C388.27 156.647 389.229 155.863 390.508 155.286C391.807 154.688 393.447 154.389 395.428 154.389C396.727 154.389 398.016 154.554 399.295 154.884C400.574 155.214 401.688 155.688 402.637 156.307L401.368 159.432C400.399 158.854 399.398 158.432 398.367 158.163C397.336 157.875 396.345 157.73 395.397 157.73C394.283 157.73 393.375 157.864 392.674 158.132C391.993 158.401 391.488 158.751 391.158 159.184C390.848 159.618 390.694 160.113 390.694 160.67C390.694 161.33 390.92 161.866 391.374 162.279C391.849 162.671 392.457 162.98 393.2 163.207C393.963 163.434 394.809 163.661 395.737 163.888C396.665 164.094 397.583 164.331 398.491 164.599C399.419 164.867 400.254 165.218 400.997 165.651C401.76 166.084 402.369 166.672 402.823 167.415C403.297 168.157 403.534 169.096 403.534 170.231C403.534 171.386 403.214 172.458 402.575 173.448C401.956 174.418 400.997 175.202 399.697 175.8C398.398 176.378 396.758 176.666 394.778 176.666Z" fill="white"></path>
<path d="M414.949 176.357V154.698H418.971V176.357H414.949Z" fill="white"></path>
<path d="M432.255 176.357V154.698H441.166C443.085 154.698 444.725 155.007 446.086 155.626C447.468 156.245 448.531 157.132 449.273 158.287C450.016 159.442 450.387 160.814 450.387 162.402C450.387 163.991 450.016 165.362 449.273 166.518C448.531 167.652 447.468 168.529 446.086 169.148C444.725 169.746 443.085 170.045 441.166 170.045H434.483L436.278 168.219V176.357H432.255ZM446.427 176.357L440.95 168.498H445.251L450.758 176.357H446.427ZM436.278 168.653L434.483 166.734H440.981C442.755 166.734 444.085 166.353 444.972 165.589C445.88 164.826 446.334 163.764 446.334 162.402C446.334 161.02 445.88 159.958 444.972 159.215C444.085 158.473 442.755 158.102 440.981 158.102H434.483L436.278 156.121V168.653Z" fill="white"></path>
<path d="M469.028 176.666C467.336 176.666 465.717 176.429 464.17 175.955C462.623 175.46 461.395 174.831 460.488 174.067L461.88 170.942C462.746 171.623 463.819 172.19 465.098 172.644C466.377 173.098 467.687 173.325 469.028 173.325C470.162 173.325 471.08 173.201 471.781 172.953C472.483 172.706 472.998 172.376 473.328 171.963C473.658 171.53 473.823 171.045 473.823 170.509C473.823 169.849 473.586 169.323 473.112 168.931C472.637 168.518 472.019 168.199 471.255 167.972C470.513 167.724 469.677 167.497 468.749 167.291C467.841 167.085 466.924 166.848 465.995 166.579C465.088 166.291 464.252 165.93 463.489 165.497C462.746 165.043 462.138 164.445 461.663 163.702C461.189 162.959 460.952 162.01 460.952 160.855C460.952 159.68 461.261 158.607 461.88 157.637C462.52 156.647 463.479 155.863 464.758 155.286C466.057 154.688 467.697 154.389 469.677 154.389C470.977 154.389 472.266 154.554 473.545 154.884C474.824 155.214 475.938 155.688 476.887 156.307L475.618 159.432C474.649 158.854 473.648 158.432 472.617 158.163C471.585 157.875 470.595 157.73 469.646 157.73C468.532 157.73 467.625 157.864 466.924 158.132C466.243 158.401 465.737 158.751 465.407 159.184C465.098 159.618 464.943 160.113 464.943 160.67C464.943 161.33 465.17 161.866 465.624 162.279C466.098 162.671 466.707 162.98 467.45 163.207C468.213 163.434 469.058 163.661 469.987 163.888C470.915 164.094 471.833 164.331 472.741 164.599C473.669 164.867 474.504 165.218 475.247 165.651C476.01 166.084 476.619 166.672 477.072 167.415C477.547 168.157 477.784 169.096 477.784 170.231C477.784 171.386 477.464 172.458 476.825 173.448C476.206 174.418 475.247 175.202 473.947 175.8C472.648 176.378 471.008 176.666 469.028 176.666Z" fill="white"></path>
<path d="M505.176 176.357V154.698H514.644C516.995 154.698 519.058 155.152 520.832 156.059C522.606 156.967 523.988 158.225 524.978 159.834C525.968 161.443 526.463 163.341 526.463 165.527C526.463 167.693 525.968 169.591 524.978 171.221C523.988 172.83 522.606 174.088 520.832 174.996C519.058 175.903 516.995 176.357 514.644 176.357H505.176ZM509.198 172.953H514.458C516.088 172.953 517.49 172.644 518.666 172.025C519.862 171.406 520.78 170.54 521.42 169.426C522.08 168.312 522.41 167.013 522.41 165.527C522.41 164.022 522.08 162.722 521.42 161.629C520.78 160.515 519.862 159.649 518.666 159.03C517.49 158.411 516.088 158.102 514.458 158.102H509.198V172.953Z" fill="white"></path>
<path d="M541.877 163.702H552.645V167.013H541.877V163.702ZM542.187 172.984H554.409V176.357H538.164V154.698H553.976V158.071H542.187V172.984Z" fill="white"></path>
<path d="M582.296 176.357V154.698H586.318V172.953H597.643V176.357H582.296Z" fill="white"></path>
<path d="M605.211 176.357L614.958 154.698H618.918L628.696 176.357H624.488L616.103 156.833H617.712L609.358 176.357H605.211ZM609.698 171.344L610.781 168.188H622.477L623.56 171.344H609.698Z" fill="white"></path>
<path d="M654.854 176.357V154.698H658.164L667.632 170.509H665.9L675.213 154.698H678.524L678.555 176.357H674.749L674.718 160.67H675.522L667.601 173.882H665.807L657.762 160.67H658.69V176.357H654.854Z" fill="white"></path>
<path d="M688.768 176.357L698.514 154.698H702.475L712.252 176.357H708.044L699.659 156.833H701.268L692.914 176.357H688.768ZM693.254 171.344L694.337 168.188H706.033L707.116 171.344H693.254Z" fill="white"></path>
<path d="M722.433 176.357V154.698H731.344C733.262 154.698 734.902 155.007 736.264 155.626C737.646 156.245 738.708 157.132 739.45 158.287C740.193 159.442 740.564 160.814 740.564 162.402C740.564 163.991 740.193 165.362 739.45 166.518C738.708 167.652 737.646 168.529 736.264 169.148C734.902 169.746 733.262 170.045 731.344 170.045H724.66L726.455 168.219V176.357H722.433ZM736.604 176.357L731.127 168.498H735.428L740.936 176.357H736.604ZM726.455 168.653L724.66 166.734H731.158C732.932 166.734 734.263 166.353 735.15 165.589C736.057 164.826 736.511 163.764 736.511 162.402C736.511 161.02 736.057 159.958 735.15 159.215C734.263 158.473 732.932 158.102 731.158 158.102H724.66L726.455 156.121V168.653Z" fill="white"></path>
<path d="M752.491 176.357V154.698H755.801L769.385 171.375H767.745V154.698H771.736V176.357H768.425L754.842 159.68H756.482V176.357H752.491Z" fill="white"></path>
<path d="M788.679 163.702H799.446V167.013H788.679V163.702ZM788.988 172.984H801.21V176.357H784.966V154.698H800.777V158.071H788.988V172.984Z" fill="white"></path>
<path d="M414.698 44.2638L412.324 56.275C407.994 53.4817 399.335 50.5487 390.257 50.5487C373.218 50.5487 355.201 61.5822 355.201 84.2079C355.201 106.694 372.799 117.727 390.257 117.727C400.592 117.727 407.575 115.772 413.022 112.699L411.765 124.99C406.178 127.923 399.893 129.18 388.72 129.18C366.653 129.18 341.514 113.817 341.514 83.9286C341.514 53.6214 366.933 38.5376 388.72 38.5376C400.731 38.5376 409.251 41.1912 414.698 44.2638Z" fill="white"></path>
<path d="M483.937 96.9174C483.937 116.47 469.272 130.018 450.417 130.018C431.562 130.018 416.758 116.47 416.758 96.9174C416.758 77.2247 431.562 63.6772 450.417 63.6772C469.272 63.6772 483.937 77.2247 483.937 96.9174ZM471.087 97.1967C471.087 83.9286 461.451 75.1297 450.417 75.1297C439.244 75.1297 429.607 83.9286 429.607 97.1967C429.607 110.325 439.244 119.124 450.417 119.124C461.451 119.124 471.087 110.325 471.087 97.1967Z" fill="white"></path>
<path d="M544.8 128.482H532.09V87.8392C532.09 81.275 528.04 74.5711 517.426 74.5711C507.23 74.5711 502.202 81.275 502.202 87.8392V128.482H489.493V65.2135H501.085V73.4537H501.224C504.018 67.8672 509.744 63.6772 520.778 63.6772C534.604 63.6772 544.8 72.4761 544.8 86.5822V128.482Z" fill="white"></path>
<path d="M619.501 122.336L610.842 130.996C606.652 129.878 598.272 125.688 598.272 113.537C598.272 113.537 598.272 61.797 598.272 51.4832C598.272 41.1694 589.613 39.6549 585.143 39.6549C575.227 39.6549 570.339 45.6605 570.339 57.113V65.2135H584.445V75.409H570.339V128.482H557.629V75.409H546.875V65.2135H557.629V56.4147C557.629 38.5376 567.825 29.0404 584.305 29.0404C596.316 29.0404 610.981 33.7846 610.981 48.9047V111.861C610.981 117.727 615.59 121.638 619.501 122.336Z" fill="white"></path>
<path d="M678.272 128.482H666.68V120.241H666.54C663.747 125.828 658.021 130.018 646.987 130.018C633.161 130.018 622.965 121.219 622.965 107.113V65.2135H635.675V105.856C635.675 112.42 639.725 119.124 650.339 119.124C660.535 119.124 665.563 112.42 665.563 105.856V65.2135H678.272V128.482Z" fill="white"></path>
<path d="M742.638 87.6995C742.638 89.6548 742.498 91.4705 742.219 92.8671L735.096 99.99H696.968C697.387 107.811 704.649 118.845 719.454 118.845C727.554 118.845 733.42 116.61 737.889 113.677L736.493 125.968C732.023 128.342 726.297 130.018 717.778 130.018C699.761 130.018 683.839 116.61 683.839 96.9174C683.839 75.409 700.599 63.6772 715.264 63.6772C732.722 63.6772 742.638 75.9677 742.638 87.6995ZM729.789 87.9788C729.789 81.6939 724.342 74.5711 715.962 74.5711C708.001 74.5711 699.482 80.856 697.806 89.6548H729.649C729.789 89.0962 729.789 88.5375 729.789 87.9788Z" fill="white"></path>
<path d="M803.561 128.482H790.852V87.8392C790.852 81.275 786.801 74.5711 776.187 74.5711C765.991 74.5711 760.963 81.275 760.963 87.8392V128.482H748.254V65.2135H759.846V73.4537H759.986C762.779 67.8672 768.505 63.6772 779.539 63.6772C793.366 63.6772 803.561 72.4761 803.561 86.5822V128.482Z" fill="white"></path>
<path d="M862.899 68.9845L860.525 80.5766C854.798 76.9453 849.771 75.828 843.765 75.828C832.452 75.828 821.977 83.9286 821.977 97.1967C821.977 110.325 832.731 118.426 844.044 118.426C850.05 118.426 854.798 117.308 860.525 114.515L859.268 126.247C854.659 128.342 849.072 129.32 842.927 129.32C825.888 129.32 809.128 117.169 809.128 96.9174C809.128 76.5264 825.888 64.3755 842.927 64.3755C851.167 64.3755 857.592 66.0515 862.899 68.9845Z" fill="white"></path>
<path d="M922.456 87.6995C922.456 89.6548 922.316 91.4705 922.037 92.8671L914.914 99.99H876.786C877.205 107.811 884.467 118.845 899.272 118.845C907.372 118.845 913.238 116.61 917.707 113.677L916.311 125.968C911.842 128.342 906.115 130.018 897.596 130.018C879.579 130.018 863.657 116.61 863.657 96.9174C863.657 75.409 880.417 63.6772 895.082 63.6772C912.54 63.6772 922.456 75.9677 922.456 87.6995ZM909.607 87.9788C909.607 81.6939 904.16 74.5711 895.78 74.5711C887.819 74.5711 879.3 80.856 877.624 89.6548H909.467C909.607 89.0962 909.607 88.5375 909.607 87.9788Z" fill="white"></path>
<path d="M967.597 110.884C967.597 120.94 959.916 129.32 944.832 129.32C937.569 129.32 931.564 127.504 927.234 124.711L925.698 111.442C930.307 115.213 937.569 118.565 945.111 118.565C950.977 118.565 954.888 115.353 954.888 111.303C954.888 106.973 951.815 104.599 946.089 102.504C933.798 98.0347 926.815 92.3084 926.815 82.2526C926.815 71.7778 935.335 64.3755 947.765 64.3755C954.888 64.3755 961.731 66.8895 964.106 68.4258L961.592 79.0403C958.659 77.085 954.329 74.99 947.625 74.99C942.458 74.99 939.106 77.7833 939.106 81.8336C939.106 85.7442 941.899 87.5599 948.044 89.7945C960.474 94.2638 967.597 99.99 967.597 110.884Z" fill="white"></path>
<path d="M168.538 88.0979C168.538 90.0532 168.399 91.8688 168.119 93.2654L160.996 100.388H122.868C123.287 108.21 130.55 119.243 145.354 119.243C153.455 119.243 159.32 117.008 163.79 114.075L162.393 126.366C157.924 128.74 152.198 130.416 143.678 130.416C125.661 130.416 109.74 117.008 109.74 97.3157C109.74 75.8074 126.499 64.0756 141.164 64.0756C158.622 64.0756 168.538 76.366 168.538 88.0979ZM155.689 88.3772C155.689 82.0923 150.242 74.9694 141.862 74.9694C133.901 74.9694 125.382 81.2543 123.706 90.0532H155.549C155.689 89.4945 155.689 88.9358 155.689 88.3772Z" fill="white"></path>
<path d="M211.475 65.6119L209.798 75.8074C208.666 75.8074 209.035 75.8074 207.22 75.8074C198.979 75.8074 186.864 82.2319 186.864 96.8967V128.88H174.154V65.6119H186.864V78.461H187.003C189.378 69.3828 195.842 65.6119 204.641 65.6119C206.457 65.6119 210.21 65.6119 211.475 65.6119Z" fill="white"></path>
<path d="M255.287 65.6119L253.053 75.8074H232.941V109.467C232.941 116.729 236.712 119.243 243.416 119.243C245.651 119.243 247.606 118.964 249.142 118.405L248.025 128.461C246.349 129.299 243.556 129.578 241.042 129.578C229.589 129.578 220.371 123.014 220.371 110.724V75.8074H207.941V65.6119H220.371V52.7627L232.941 46.1985V65.6119H255.287Z" fill="white"></path>
<path d="M313.44 88.0979C313.44 90.0532 313.301 91.8688 313.021 93.2654L305.898 100.388H267.77C268.189 108.21 275.452 119.243 290.256 119.243C298.357 119.243 304.222 117.008 308.692 114.075L307.295 126.366C302.826 128.74 297.1 130.416 288.58 130.416C270.563 130.416 254.641 117.008 254.641 97.3157C254.641 75.8074 271.401 64.0756 286.066 64.0756C303.524 64.0756 313.44 76.366 313.44 88.0979ZM300.591 88.3772C300.591 82.0923 295.144 74.9694 286.764 74.9694C278.803 74.9694 270.284 81.2543 268.608 90.0532H300.451C300.591 89.4945 300.591 88.9358 300.591 88.3772ZM302.267 39.0756C302.267 39.7739 301.429 40.8912 300.312 42.0085C295.424 47.3158 289.837 51.5057 283.552 55.2767L276.708 52.3437C282.016 48.2935 288.859 41.5896 293.189 35.584C294.167 34.1873 295.703 33.489 296.681 33.489C298.496 33.489 302.267 37.3996 302.267 39.0756Z" fill="white"></path>
<path fill-rule="evenodd" clip-rule="evenodd" d="M140.988 37.2348C138.903 40.5299 134.784 45.473 128.177 50.0045C117.515 56.6202 102.465 58.2268 80.819 55.5557C62.6819 53.3174 50.5518 52.6502 44.9814 53.3664C38.7223 54.1693 30.1993 59.5788 29.026 63.1869C27.6805 67.3241 28.6349 73.0201 30.1521 75.3113C31.0863 76.7223 32.6236 78.5746 35.9165 75.3113C39.8412 71.4216 45.8053 71.8374 64.0367 73.897C86.3711 76.9431 93.7297 77.3251 101.135 75.1328C102.191 74.8201 103.063 74.5574 103.063 74.5574C103.063 74.5574 99.7676 78.4282 93.3975 82.1355C87.7214 85.202 78.681 86.4865 61.2146 85.8428C27.6805 84.6071 50.7484 101.084 51.5723 110.118C51.6504 110.975 53.22 115.913 50.7484 121.144C49.9245 120.033 37.1548 104.38 32.2117 97.8833C18.2062 78.4282 13.3569 69.2018 15.7347 56.7952C17.5763 47.1907 25.6209 40.531 34.9333 38.4713C39.6264 37.4333 44.3821 37.4146 70.1089 41.3985C101.628 46.279 118.341 47.0325 127.884 43.8256C132.959 42.1199 138.078 38.4706 140.275 36.8234C141.784 35.5878 142.196 35.1759 142.196 35.1759C142.196 35.1759 141.962 35.695 140.988 37.2348Z" fill="white"></path>
</svg>