<svg width="593" height="284" viewBox="0 0 593 284" fill="none" xmlns="http://www.w3.org/2000/svg">
<rect width="593" height="283.609" fill="white"></rect>
<path d="M109.168 130.604L107.326 139.926C103.965 137.758 97.2452 135.482 90.1997 135.482C76.976 135.482 62.9935 144.045 62.9935 161.604C62.9935 179.055 76.6508 187.618 90.1997 187.618C98.2207 187.618 103.64 186.101 107.868 183.716L106.892 193.255C102.556 195.531 97.6787 196.506 89.0074 196.506C71.8816 196.506 52.3711 184.583 52.3711 161.387C52.3711 137.866 72.0983 126.16 89.0074 126.16C98.3291 126.16 104.941 128.22 109.168 130.604Z" fill="#033059"></path>
<path d="M162.903 171.468C162.903 186.643 151.522 197.157 136.889 197.157C122.257 197.157 110.767 186.643 110.767 171.468C110.767 156.185 122.257 145.671 136.889 145.671C151.522 145.671 162.903 156.185 162.903 171.468ZM152.931 171.685C152.931 161.387 145.452 154.559 136.889 154.559C128.218 154.559 120.739 161.387 120.739 171.685C120.739 181.873 128.218 188.702 136.889 188.702C145.452 188.702 152.931 181.873 152.931 171.685Z" fill="#033059"></path>
<path d="M210.138 195.964H200.275V164.422C200.275 159.328 197.131 154.125 188.894 154.125C180.981 154.125 177.079 159.328 177.079 164.422V195.964H167.215V146.863H176.212V153.258H176.32C178.488 148.922 182.932 145.671 191.495 145.671C202.226 145.671 210.138 152.499 210.138 163.447V195.964Z" fill="#033059"></path>
<path d="M268.112 191.195L261.392 197.915C258.14 197.048 251.637 193.796 251.637 184.366C251.637 184.366 251.637 144.211 251.637 136.207C251.637 128.203 244.917 127.027 241.448 127.027C233.752 127.027 229.959 131.688 229.959 140.576V146.863H240.906V154.776H229.959V195.964H220.095V154.776H211.749V146.863H220.095V140.034C220.095 126.16 228.008 118.79 240.798 118.79C250.119 118.79 261.501 122.471 261.501 134.206V183.066C261.501 187.618 265.078 190.653 268.112 191.195Z" fill="#033059"></path>
<path d="M313.724 195.964H304.728V189.569H304.619C302.451 193.905 298.007 197.157 289.444 197.157C278.714 197.157 270.801 190.328 270.801 179.38V146.863H280.665V178.405C280.665 183.499 283.808 188.702 292.046 188.702C299.958 188.702 303.86 183.499 303.86 178.405V146.863H313.724V195.964Z" fill="#033059"></path>
<path d="M363.677 164.314C363.677 165.831 363.569 167.241 363.352 168.324L357.824 173.852H328.233C328.559 179.922 334.195 188.485 345.684 188.485C351.971 188.485 356.523 186.751 359.992 184.475L358.908 194.013C355.44 195.856 350.996 197.157 344.384 197.157C330.401 197.157 318.045 186.751 318.045 171.468C318.045 154.776 331.051 145.671 342.433 145.671C355.982 145.671 363.677 155.209 363.677 164.314ZM353.705 164.531C353.705 159.653 349.478 154.125 342.975 154.125C336.796 154.125 330.184 159.003 328.884 165.831H353.597C353.705 165.398 353.705 164.964 353.705 164.531Z" fill="#033059"></path>
<path d="M410.959 195.964H401.095V164.422C401.095 159.328 397.952 154.125 389.714 154.125C381.802 154.125 377.899 159.328 377.899 164.422V195.964H368.036V146.863H377.032V153.258H377.141C379.309 148.922 383.753 145.671 392.316 145.671C403.046 145.671 410.959 152.499 410.959 163.447V195.964Z" fill="#033059"></path>
<path d="M457.01 149.79L455.167 158.786C450.723 155.968 446.821 155.101 442.16 155.101C433.381 155.101 425.251 161.387 425.251 171.685C425.251 181.873 433.597 188.16 442.377 188.16C447.038 188.16 450.723 187.293 455.167 185.125L454.192 194.23C450.615 195.856 446.279 196.615 441.51 196.615C428.286 196.615 415.279 187.185 415.279 171.468C415.279 155.643 428.286 146.213 441.51 146.213C447.905 146.213 452.891 147.513 457.01 149.79Z" fill="#033059"></path>
<path d="M503.231 164.314C503.231 165.831 503.123 167.241 502.906 168.324L497.378 173.852H467.787C468.112 179.922 473.749 188.485 485.238 188.485C491.525 188.485 496.078 186.751 499.546 184.475L498.462 194.013C494.994 195.856 490.55 197.157 483.938 197.157C469.955 197.157 457.599 186.751 457.599 171.468C457.599 154.776 470.606 145.671 481.987 145.671C495.536 145.671 503.231 155.209 503.231 164.314ZM493.259 164.531C493.259 159.653 489.032 154.125 482.529 154.125C476.35 154.125 469.738 159.003 468.438 165.831H493.151C493.259 165.398 493.259 164.964 493.259 164.531Z" fill="#033059"></path>
<path d="M538.265 182.307C538.265 190.111 532.303 196.615 520.597 196.615C514.96 196.615 510.3 195.206 506.94 193.038L505.747 182.741C509.324 185.667 514.96 188.268 520.814 188.268C525.366 188.268 528.401 185.775 528.401 182.632C528.401 179.272 526.016 177.429 521.572 175.803C512.034 172.335 506.614 167.891 506.614 160.087C506.614 151.957 513.226 146.213 522.873 146.213C528.401 146.213 533.712 148.164 535.555 149.356L533.604 157.594C531.328 156.076 527.967 154.45 522.765 154.45C518.754 154.45 516.153 156.618 516.153 159.762C516.153 162.796 518.321 164.206 523.09 165.94C532.737 169.408 538.265 173.852 538.265 182.307Z" fill="#033059"></path>
<path d="M54.6289 231.611V214.802H61.5447C63.0335 214.802 64.3062 215.042 65.3628 215.522C66.4354 216.002 67.2598 216.691 67.8361 217.587C68.4125 218.484 68.7006 219.548 68.7006 220.781C68.7006 222.014 68.4125 223.078 67.8361 223.975C67.2598 224.871 66.4354 225.56 65.3628 226.04C64.3062 226.52 63.0335 226.76 61.5447 226.76H56.3579L57.7506 225.295V231.611H54.6289ZM57.7506 225.632L56.3579 224.119H61.4006C62.7774 224.119 63.8099 223.831 64.4983 223.254C65.2027 222.662 65.5549 221.838 65.5549 220.781C65.5549 219.708 65.2027 218.884 64.4983 218.308C63.8099 217.731 62.7774 217.443 61.4006 217.443H56.3579L57.7506 215.906V225.632Z" fill="#033059"></path>
<path d="M85.692 231.851C84.3793 231.851 83.1706 231.635 82.066 231.203C80.9614 230.77 80.0009 230.17 79.1844 229.402C78.368 228.617 77.7356 227.705 77.2874 226.664C76.8391 225.608 76.615 224.455 76.615 223.206C76.615 221.958 76.8391 220.813 77.2874 219.772C77.7356 218.716 78.368 217.803 79.1844 217.035C80.0009 216.25 80.9614 215.642 82.066 215.21C83.1706 214.778 84.3713 214.562 85.668 214.562C86.9807 214.562 88.1813 214.778 89.2699 215.21C90.3745 215.642 91.3351 216.25 92.1515 217.035C92.968 217.803 93.6003 218.716 94.0486 219.772C94.4968 220.813 94.7209 221.958 94.7209 223.206C94.7209 224.455 94.4968 225.608 94.0486 226.664C93.6003 227.721 92.968 228.633 92.1515 229.402C91.3351 230.17 90.3745 230.77 89.2699 231.203C88.1813 231.635 86.9887 231.851 85.692 231.851ZM85.668 229.113C86.5164 229.113 87.3009 228.969 88.0213 228.681C88.7416 228.393 89.366 227.985 89.8943 227.457C90.4226 226.912 90.8308 226.288 91.119 225.584C91.4231 224.863 91.5752 224.071 91.5752 223.206C91.5752 222.342 91.4231 221.557 91.119 220.853C90.8308 220.133 90.4226 219.508 89.8943 218.98C89.366 218.436 88.7416 218.019 88.0213 217.731C87.3009 217.443 86.5164 217.299 85.668 217.299C84.8195 217.299 84.0351 217.443 83.3147 217.731C82.6103 218.019 81.986 218.436 81.4417 218.98C80.9134 219.508 80.4971 220.133 80.193 220.853C79.9048 221.557 79.7607 222.342 79.7607 223.206C79.7607 224.055 79.9048 224.839 80.193 225.56C80.4971 226.28 80.9134 226.912 81.4417 227.457C81.9699 227.985 82.5943 228.393 83.3147 228.681C84.0351 228.969 84.8195 229.113 85.668 229.113Z" fill="#033059"></path>
<path d="M103.793 231.611V214.802H110.709C112.198 214.802 113.47 215.042 114.527 215.522C115.599 216.002 116.424 216.691 117 217.587C117.577 218.484 117.865 219.548 117.865 220.781C117.865 222.014 117.577 223.078 117 223.975C116.424 224.855 115.599 225.536 114.527 226.016C113.47 226.48 112.198 226.712 110.709 226.712H105.522L106.915 225.295V231.611H103.793ZM114.791 231.611L110.541 225.512H113.879L118.153 231.611H114.791ZM106.915 225.632L105.522 224.143H110.565C111.941 224.143 112.974 223.847 113.662 223.254C114.367 222.662 114.719 221.838 114.719 220.781C114.719 219.708 114.367 218.884 113.662 218.308C112.974 217.731 111.941 217.443 110.565 217.443H105.522L106.915 215.906V225.632Z" fill="#033059"></path>
<path d="M130.296 231.611V217.443H124.725V214.802H138.989V217.443H133.418V231.611H130.296Z" fill="#033059"></path>
<path d="M159.494 231.611V214.802H162.616V228.969H171.405V231.611H159.494Z" fill="#033059"></path>
<path d="M187.204 231.851C185.891 231.851 184.682 231.635 183.578 231.203C182.473 230.77 181.513 230.17 180.696 229.402C179.88 228.617 179.247 227.705 178.799 226.664C178.351 225.608 178.127 224.455 178.127 223.206C178.127 221.958 178.351 220.813 178.799 219.772C179.247 218.716 179.88 217.803 180.696 217.035C181.513 216.25 182.473 215.642 183.578 215.21C184.682 214.778 185.883 214.562 187.18 214.562C188.493 214.562 189.693 214.778 190.782 215.21C191.886 215.642 192.847 216.25 193.663 217.035C194.48 217.803 195.112 218.716 195.56 219.772C196.009 220.813 196.233 221.958 196.233 223.206C196.233 224.455 196.009 225.608 195.56 226.664C195.112 227.721 194.48 228.633 193.663 229.402C192.847 230.17 191.886 230.77 190.782 231.203C189.693 231.635 188.501 231.851 187.204 231.851ZM187.18 229.113C188.028 229.113 188.813 228.969 189.533 228.681C190.254 228.393 190.878 227.985 191.406 227.457C191.934 226.912 192.343 226.288 192.631 225.584C192.935 224.863 193.087 224.071 193.087 223.206C193.087 222.342 192.935 221.557 192.631 220.853C192.343 220.133 191.934 219.508 191.406 218.98C190.878 218.436 190.254 218.019 189.533 217.731C188.813 217.443 188.028 217.299 187.18 217.299C186.331 217.299 185.547 217.443 184.827 217.731C184.122 218.019 183.498 218.436 182.954 218.98C182.425 219.508 182.009 220.133 181.705 220.853C181.417 221.557 181.273 222.342 181.273 223.206C181.273 224.055 181.417 224.839 181.705 225.56C182.009 226.28 182.425 226.912 182.954 227.457C183.482 227.985 184.106 228.393 184.827 228.681C185.547 228.969 186.331 229.113 187.18 229.113Z" fill="#033059"></path>
<path d="M205.305 231.611V214.802H208.427V231.611H205.305Z" fill="#033059"></path>
<path d="M223.947 231.851C222.634 231.851 221.378 231.667 220.177 231.299C218.976 230.914 218.024 230.426 217.32 229.834L218.4 227.409C219.072 227.937 219.905 228.377 220.897 228.729C221.89 229.081 222.907 229.258 223.947 229.258C224.828 229.258 225.54 229.162 226.084 228.969C226.629 228.777 227.029 228.521 227.285 228.201C227.541 227.865 227.669 227.489 227.669 227.072C227.669 226.56 227.485 226.152 227.117 225.848C226.749 225.528 226.268 225.279 225.676 225.103C225.1 224.911 224.451 224.735 223.731 224.575C223.027 224.415 222.314 224.231 221.594 224.023C220.889 223.799 220.241 223.518 219.649 223.182C219.072 222.83 218.6 222.366 218.232 221.789C217.864 221.213 217.68 220.477 217.68 219.58C217.68 218.668 217.92 217.835 218.4 217.083C218.896 216.314 219.641 215.706 220.633 215.258C221.642 214.794 222.915 214.562 224.451 214.562C225.46 214.562 226.461 214.69 227.453 214.946C228.446 215.202 229.31 215.57 230.046 216.05L229.062 218.476C228.31 218.027 227.533 217.699 226.733 217.491C225.932 217.267 225.164 217.155 224.427 217.155C223.563 217.155 222.859 217.259 222.314 217.467C221.786 217.675 221.394 217.947 221.138 218.284C220.897 218.62 220.777 219.004 220.777 219.436C220.777 219.948 220.953 220.365 221.306 220.685C221.674 220.989 222.146 221.229 222.722 221.405C223.315 221.581 223.971 221.757 224.692 221.934C225.412 222.094 226.124 222.278 226.829 222.486C227.549 222.694 228.197 222.966 228.774 223.302C229.366 223.638 229.838 224.095 230.191 224.671C230.559 225.247 230.743 225.976 230.743 226.856C230.743 227.753 230.495 228.585 229.998 229.354C229.518 230.106 228.774 230.714 227.765 231.179C226.757 231.627 225.484 231.851 223.947 231.851Z" fill="#033059"></path>
<path d="M239.601 231.611V214.802H242.723V231.611H239.601Z" fill="#033059"></path>
<path d="M253.033 231.611V214.802H259.949C261.437 214.802 262.71 215.042 263.767 215.522C264.839 216.002 265.664 216.691 266.24 217.587C266.816 218.484 267.105 219.548 267.105 220.781C267.105 222.014 266.816 223.078 266.24 223.975C265.664 224.855 264.839 225.536 263.767 226.016C262.71 226.48 261.437 226.712 259.949 226.712H254.762L256.155 225.295V231.611H253.033ZM264.031 231.611L259.781 225.512H263.118L267.393 231.611H264.031ZM256.155 225.632L254.762 224.143H259.805C261.181 224.143 262.214 223.847 262.902 223.254C263.607 222.662 263.959 221.838 263.959 220.781C263.959 219.708 263.607 218.884 262.902 218.308C262.214 217.731 261.181 217.443 259.805 217.443H254.762L256.155 215.906V225.632Z" fill="#033059"></path>
<path d="M281.571 231.851C280.258 231.851 279.002 231.667 277.801 231.299C276.6 230.914 275.648 230.426 274.944 229.834L276.024 227.409C276.697 227.937 277.529 228.377 278.522 228.729C279.514 229.081 280.531 229.258 281.571 229.258C282.452 229.258 283.164 229.162 283.708 228.969C284.253 228.777 284.653 228.521 284.909 228.201C285.165 227.865 285.293 227.489 285.293 227.072C285.293 226.56 285.109 226.152 284.741 225.848C284.373 225.528 283.892 225.279 283.3 225.103C282.724 224.911 282.075 224.735 281.355 224.575C280.651 224.415 279.938 224.231 279.218 224.023C278.514 223.799 277.865 223.518 277.273 223.182C276.697 222.83 276.224 222.366 275.856 221.789C275.488 221.213 275.304 220.477 275.304 219.58C275.304 218.668 275.544 217.835 276.024 217.083C276.52 216.314 277.265 215.706 278.257 215.258C279.266 214.794 280.539 214.562 282.075 214.562C283.084 214.562 284.085 214.69 285.077 214.946C286.07 215.202 286.934 215.57 287.671 216.05L286.686 218.476C285.934 218.027 285.157 217.699 284.357 217.491C283.556 217.267 282.788 217.155 282.051 217.155C281.187 217.155 280.483 217.259 279.938 217.467C279.41 217.675 279.018 217.947 278.762 218.284C278.522 218.62 278.401 219.004 278.401 219.436C278.401 219.948 278.578 220.365 278.93 220.685C279.298 220.989 279.77 221.229 280.347 221.405C280.939 221.581 281.595 221.757 282.316 221.934C283.036 222.094 283.748 222.278 284.453 222.486C285.173 222.694 285.822 222.966 286.398 223.302C286.99 223.638 287.462 224.095 287.815 224.671C288.183 225.247 288.367 225.976 288.367 226.856C288.367 227.753 288.119 228.585 287.623 229.354C287.142 230.106 286.398 230.714 285.389 231.179C284.381 231.627 283.108 231.851 281.571 231.851Z" fill="#033059"></path>
<path d="M309.625 231.611V214.802H316.973C318.798 214.802 320.399 215.154 321.776 215.858C323.153 216.563 324.225 217.539 324.994 218.788C325.762 220.037 326.146 221.509 326.146 223.206C326.146 224.887 325.762 226.36 324.994 227.625C324.225 228.873 323.153 229.85 321.776 230.554C320.399 231.259 318.798 231.611 316.973 231.611H309.625ZM312.747 228.969H316.829C318.094 228.969 319.182 228.729 320.095 228.249C321.023 227.769 321.736 227.096 322.232 226.232C322.744 225.367 323 224.359 323 223.206C323 222.038 322.744 221.029 322.232 220.181C321.736 219.316 321.023 218.644 320.095 218.163C319.182 217.683 318.094 217.443 316.829 217.443H312.747V228.969Z" fill="#033059"></path>
<path d="M338.109 221.789H346.465V224.359H338.109V221.789ZM338.349 228.993H347.834V231.611H335.227V214.802H347.498V217.419H338.349V228.993Z" fill="#033059"></path>
<path d="M369.477 231.611V214.802H372.599V228.969H381.387V231.611H369.477Z" fill="#033059"></path>
<path d="M387.261 231.611L394.825 214.802H397.899L405.487 231.611H402.222L395.714 216.459H396.963L390.479 231.611H387.261ZM390.743 227.721L391.584 225.271H400.661L401.501 227.721H390.743Z" fill="#033059"></path>
<path d="M425.788 231.611V214.802H428.357L435.705 227.072H434.361L441.588 214.802H444.158L444.182 231.611H441.228L441.204 219.436H441.829L435.681 229.69H434.288L428.045 219.436H428.765V231.611H425.788Z" fill="#033059"></path>
<path d="M452.108 231.611L459.672 214.802H462.746L470.334 231.611H467.068L460.561 216.459H461.809L455.326 231.611H452.108ZM455.59 227.721L456.43 225.271H465.507L466.348 227.721H455.59Z" fill="#033059"></path>
<path d="M478.235 231.611V214.802H485.151C486.64 214.802 487.912 215.042 488.969 215.522C490.041 216.002 490.866 216.691 491.442 217.587C492.018 218.484 492.307 219.548 492.307 220.781C492.307 222.014 492.018 223.078 491.442 223.975C490.866 224.855 490.041 225.536 488.969 226.016C487.912 226.48 486.64 226.712 485.151 226.712H479.964L481.357 225.295V231.611H478.235ZM489.233 231.611L484.983 225.512H488.32L492.595 231.611H489.233ZM481.357 225.632L479.964 224.143H485.007C486.383 224.143 487.416 223.847 488.104 223.254C488.809 222.662 489.161 221.838 489.161 220.781C489.161 219.708 488.809 218.884 488.104 218.308C487.416 217.731 486.383 217.443 485.007 217.443H479.964L481.357 215.906V225.632Z" fill="#033059"></path>
<path d="M501.562 231.611V214.802H504.132L514.674 227.745H513.401V214.802H516.499V231.611H513.929L503.387 218.668H504.66V231.611H501.562Z" fill="#033059"></path>
<path d="M529.648 221.789H538.004V224.359H529.648V221.789ZM529.888 228.993H539.373V231.611H526.766V214.802H539.037V217.419H529.888V228.993Z" fill="#033059"></path>
<path d="M306.504 93.8225C306.504 95.34 306.396 96.749 306.179 97.833L300.651 103.361H271.06C271.385 109.431 277.021 117.994 288.511 117.994C294.798 117.994 299.35 116.26 302.819 113.983L301.735 123.522C298.266 125.364 293.822 126.665 287.21 126.665C273.228 126.665 260.871 116.26 260.871 100.976C260.871 84.284 273.878 75.1791 285.259 75.1791C298.808 75.1791 306.504 84.7176 306.504 93.8225ZM296.532 94.0393C296.532 89.1616 292.305 83.6337 285.801 83.6337C279.623 83.6337 273.011 88.5113 271.71 95.34H296.424C296.532 94.9064 296.532 94.4728 296.532 94.0393Z" fill="#033059"></path>
<path d="M339.827 76.3714L338.525 84.284C337.646 84.284 337.933 84.284 336.524 84.284C330.129 84.284 320.726 89.27 320.726 100.651V125.473H310.862V76.3714H320.726V86.3435H320.834C322.677 79.298 327.694 76.3714 334.523 76.3714C335.932 76.3714 338.844 76.3714 339.827 76.3714Z" fill="#033059"></path>
<path d="M373.829 76.3714L372.094 84.284H356.486V110.406C356.486 116.043 359.413 117.994 364.615 117.994C366.35 117.994 367.867 117.777 369.059 117.343L368.192 125.148C366.892 125.798 364.724 126.015 362.773 126.015C353.885 126.015 346.731 120.92 346.731 111.382V84.284H337.084V76.3714H346.731V66.3994L356.486 61.305V76.3714H373.829Z" fill="#033059"></path>
<path d="M418.96 93.8225C418.96 95.34 418.852 96.749 418.635 97.833L413.107 103.361H383.516C383.841 109.431 389.478 117.994 400.967 117.994C407.254 117.994 411.806 116.26 415.275 113.983L414.191 123.522C410.722 125.364 406.278 126.665 399.666 126.665C385.684 126.665 373.327 116.26 373.327 100.976C373.327 84.284 386.334 75.1791 397.715 75.1791C411.264 75.1791 418.96 84.7176 418.96 93.8225ZM408.988 94.0393C408.988 89.1616 404.761 83.6337 398.257 83.6337C392.079 83.6337 385.467 88.5113 384.166 95.34H408.88C408.988 94.9064 408.988 94.4728 408.988 94.0393ZM410.289 55.7771C410.289 56.319 409.638 57.1862 408.771 58.0533C404.978 62.1722 400.642 65.4239 395.764 68.3505L390.453 66.0743C394.572 62.9309 399.883 57.7281 403.243 53.0673C404.002 51.9834 405.194 51.4414 405.953 51.4414C407.362 51.4414 410.289 54.4764 410.289 55.7771Z" fill="#033059"></path>
<path fill-rule="evenodd" clip-rule="evenodd" d="M285.19 54.2442C283.57 56.8044 280.37 60.645 275.237 64.1658C266.953 69.306 255.259 70.5542 238.441 68.4789C224.349 66.7398 214.925 66.2214 210.597 66.7779C205.734 67.4017 199.112 71.6047 198.2 74.408C197.155 77.6225 197.896 82.0481 199.075 83.8282C199.801 84.9246 200.995 86.3637 203.554 83.8282C206.603 80.8061 211.237 81.1291 225.402 82.7294C242.755 85.0961 248.472 85.3929 254.226 83.6895C255.046 83.4466 255.724 83.2425 255.724 83.2425C255.724 83.2425 253.164 86.25 248.214 89.1304C243.804 91.513 236.78 92.511 223.209 92.0109C197.155 91.0507 215.077 103.853 215.718 110.872C215.778 111.537 216.998 115.375 215.077 119.438C214.437 118.575 204.516 106.413 200.675 101.366C189.793 86.25 186.026 79.0814 187.873 69.4419C189.304 61.9796 195.554 56.8052 202.79 55.2049C206.436 54.3985 210.131 54.3839 230.12 57.4792C254.609 61.2712 267.594 61.8567 275.009 59.365C278.952 58.0397 282.93 55.2044 284.637 53.9246C285.809 52.9646 286.129 52.6445 286.129 52.6445C286.129 52.6445 285.947 53.0479 285.19 54.2442Z" fill="#033059"></path>
</svg>