<svg xmlns="http://www.w3.org/2000/svg" width="346.643" height="12.364" viewBox="0 0 346.643 12.364" fill="none">
  <path d="M 0 12.192 L 0 0.172 L 4.946 0.172 C 6.01 0.172 6.92 0.343 7.676 0.687 C 8.443 1.03 9.032 1.523 9.445 2.164 C 9.857 2.805 10.063 3.566 10.063 4.448 C 10.063 5.329 9.857 6.09 9.445 6.731 C 9.032 7.372 8.443 7.865 7.676 8.208 C 6.92 8.552 6.01 8.723 4.946 8.723 L 1.236 8.723 L 2.232 7.676 L 2.232 12.192 L 0 12.192 Z M 2.232 7.916 L 1.236 6.834 L 4.842 6.834 C 5.827 6.834 6.565 6.628 7.058 6.216 C 7.561 5.793 7.813 5.203 7.813 4.448 C 7.813 3.681 7.561 3.091 7.058 2.679 C 6.565 2.267 5.827 2.061 4.842 2.061 L 1.236 2.061 L 2.232 0.962 L 2.232 7.916 Z" fill="currentColor" fill-rule="nonzero"></path>
  <path d="M 22.213 12.364 C 21.275 12.364 20.41 12.209 19.62 11.9 C 18.831 11.591 18.144 11.162 17.56 10.612 C 16.976 10.051 16.524 9.399 16.203 8.655 C 15.883 7.899 15.722 7.075 15.722 6.182 C 15.722 5.289 15.883 4.47 16.203 3.726 C 16.524 2.971 16.976 2.318 17.56 1.769 C 18.144 1.208 18.831 0.773 19.62 0.464 C 20.41 0.155 21.269 0 22.196 0 C 23.135 0 23.994 0.155 24.772 0.464 C 25.562 0.773 26.249 1.208 26.833 1.769 C 27.417 2.318 27.869 2.971 28.189 3.726 C 28.51 4.47 28.67 5.289 28.67 6.182 C 28.67 7.075 28.51 7.899 28.189 8.655 C 27.869 9.41 27.417 10.063 26.833 10.612 C 26.249 11.162 25.562 11.591 24.772 11.9 C 23.994 12.209 23.141 12.364 22.213 12.364 Z M 22.196 10.406 C 22.803 10.406 23.364 10.303 23.879 10.097 C 24.394 9.891 24.841 9.599 25.218 9.221 C 25.596 8.832 25.888 8.386 26.094 7.882 C 26.312 7.367 26.421 6.8 26.421 6.182 C 26.421 5.564 26.312 5.003 26.094 4.499 C 25.888 3.984 25.596 3.537 25.218 3.16 C 24.841 2.77 24.394 2.473 23.879 2.267 C 23.364 2.061 22.803 1.958 22.196 1.958 C 21.589 1.958 21.029 2.061 20.513 2.267 C 20.01 2.473 19.563 2.77 19.174 3.16 C 18.796 3.537 18.499 3.984 18.281 4.499 C 18.075 5.003 17.972 5.564 17.972 6.182 C 17.972 6.789 18.075 7.35 18.281 7.865 C 18.499 8.38 18.796 8.832 19.174 9.221 C 19.552 9.599 19.998 9.891 20.513 10.097 C 21.029 10.303 21.589 10.406 22.196 10.406 Z" fill="currentColor" fill-rule="nonzero"></path>
  <path d="M 35.158 12.192 L 35.158 0.172 L 40.103 0.172 C 41.168 0.172 42.078 0.343 42.833 0.687 C 43.6 1.03 44.19 1.523 44.602 2.164 C 45.014 2.805 45.22 3.566 45.22 4.448 C 45.22 5.329 45.014 6.09 44.602 6.731 C 44.19 7.361 43.6 7.848 42.833 8.191 C 42.078 8.523 41.168 8.689 40.103 8.689 L 36.394 8.689 L 37.39 7.676 L 37.39 12.192 L 35.158 12.192 Z M 43.022 12.192 L 39.983 7.83 L 42.37 7.83 L 45.426 12.192 L 43.022 12.192 Z M 37.39 7.916 L 36.394 6.852 L 40 6.852 C 40.985 6.852 41.723 6.64 42.215 6.216 C 42.719 5.793 42.971 5.203 42.971 4.448 C 42.971 3.681 42.719 3.091 42.215 2.679 C 41.723 2.267 40.985 2.061 40 2.061 L 36.394 2.061 L 37.39 0.962 L 37.39 7.916 Z" fill="currentColor" fill-rule="nonzero"></path>
  <path d="M 54.11 12.192 L 54.11 2.061 L 50.126 2.061 L 50.126 0.172 L 60.326 0.172 L 60.326 2.061 L 56.342 2.061 L 56.342 12.192 L 54.11 12.192 Z" fill="currentColor" fill-rule="nonzero"></path>
  <path d="M 74.99 12.192 L 74.99 0.172 L 77.222 0.172 L 77.222 10.303 L 83.507 10.303 L 83.507 12.192 L 74.99 12.192 Z" fill="currentColor" fill-rule="nonzero"></path>
  <path d="M 94.805 12.364 C 93.866 12.364 93.002 12.209 92.212 11.9 C 91.422 11.591 90.735 11.162 90.152 10.612 C 89.568 10.051 89.116 9.399 88.795 8.655 C 88.474 7.899 88.314 7.075 88.314 6.182 C 88.314 5.289 88.474 4.47 88.795 3.726 C 89.116 2.971 89.568 2.318 90.152 1.769 C 90.735 1.208 91.422 0.773 92.212 0.464 C 93.002 0.155 93.861 0 94.788 0 C 95.727 0 96.585 0.155 97.364 0.464 C 98.154 0.773 98.841 1.208 99.424 1.769 C 100.008 2.318 100.46 2.971 100.781 3.726 C 101.102 4.47 101.262 5.289 101.262 6.182 C 101.262 7.075 101.102 7.899 100.781 8.655 C 100.46 9.41 100.008 10.063 99.424 10.612 C 98.841 11.162 98.154 11.591 97.364 11.9 C 96.585 12.209 95.732 12.364 94.805 12.364 Z M 94.788 10.406 C 95.395 10.406 95.956 10.303 96.471 10.097 C 96.986 9.891 97.432 9.599 97.81 9.221 C 98.188 8.832 98.48 8.386 98.686 7.882 C 98.904 7.367 99.012 6.8 99.012 6.182 C 99.012 5.564 98.904 5.003 98.686 4.499 C 98.48 3.984 98.188 3.537 97.81 3.16 C 97.432 2.77 96.986 2.473 96.471 2.267 C 95.956 2.061 95.395 1.958 94.788 1.958 C 94.181 1.958 93.62 2.061 93.105 2.267 C 92.601 2.473 92.155 2.77 91.766 3.16 C 91.388 3.537 91.09 3.984 90.873 4.499 C 90.667 5.003 90.564 5.564 90.564 6.182 C 90.564 6.789 90.667 7.35 90.873 7.865 C 91.09 8.38 91.388 8.832 91.766 9.221 C 92.144 9.599 92.59 9.891 93.105 10.097 C 93.62 10.303 94.181 10.406 94.788 10.406 Z" fill="currentColor" fill-rule="nonzero"></path>
  <path d="M 107.749 12.192 L 107.749 0.172 L 109.982 0.172 L 109.982 12.192 L 107.749 12.192 Z" fill="currentColor" fill-rule="nonzero"></path>
  <path d="M 121.081 12.364 C 120.142 12.364 119.243 12.232 118.385 11.969 C 117.526 11.694 116.845 11.345 116.341 10.921 L 117.114 9.187 C 117.595 9.565 118.19 9.88 118.9 10.131 C 119.609 10.383 120.336 10.509 121.081 10.509 C 121.71 10.509 122.22 10.441 122.609 10.303 C 122.998 10.166 123.284 9.983 123.467 9.754 C 123.651 9.513 123.742 9.244 123.742 8.947 C 123.742 8.58 123.611 8.288 123.347 8.071 C 123.084 7.842 122.74 7.664 122.317 7.538 C 121.905 7.401 121.441 7.275 120.926 7.161 C 120.422 7.046 119.913 6.915 119.398 6.766 C 118.894 6.605 118.43 6.405 118.007 6.165 C 117.595 5.913 117.257 5.581 116.994 5.169 C 116.73 4.757 116.599 4.23 116.599 3.589 C 116.599 2.936 116.77 2.341 117.114 1.803 C 117.469 1.254 118.001 0.819 118.711 0.498 C 119.432 0.166 120.342 0 121.441 0 C 122.162 0 122.878 0.092 123.588 0.275 C 124.297 0.458 124.916 0.721 125.442 1.065 L 124.738 2.799 C 124.2 2.478 123.645 2.244 123.072 2.095 C 122.5 1.935 121.951 1.855 121.424 1.855 C 120.806 1.855 120.302 1.929 119.913 2.078 C 119.535 2.227 119.255 2.421 119.071 2.662 C 118.9 2.902 118.814 3.177 118.814 3.486 C 118.814 3.852 118.94 4.15 119.192 4.379 C 119.455 4.596 119.793 4.768 120.205 4.894 C 120.628 5.02 121.098 5.146 121.613 5.272 C 122.128 5.386 122.637 5.518 123.141 5.667 C 123.656 5.816 124.12 6.01 124.532 6.251 C 124.956 6.491 125.293 6.817 125.545 7.229 C 125.809 7.642 125.94 8.162 125.94 8.792 C 125.94 9.433 125.763 10.028 125.408 10.578 C 125.064 11.116 124.532 11.551 123.811 11.883 C 123.09 12.204 122.18 12.364 121.081 12.364 Z" fill="currentColor" fill-rule="nonzero"></path>
  <path d="M 132.275 12.192 L 132.275 0.172 L 134.507 0.172 L 134.507 12.192 L 132.275 12.192 Z" fill="currentColor" fill-rule="nonzero"></path>
  <path d="M 141.88 12.192 L 141.88 0.172 L 146.825 0.172 C 147.89 0.172 148.8 0.343 149.556 0.687 C 150.323 1.03 150.912 1.523 151.325 2.164 C 151.737 2.805 151.943 3.566 151.943 4.448 C 151.943 5.329 151.737 6.09 151.325 6.731 C 150.912 7.361 150.323 7.848 149.556 8.191 C 148.8 8.523 147.89 8.689 146.825 8.689 L 143.116 8.689 L 144.112 7.676 L 144.112 12.192 L 141.88 12.192 Z M 149.745 12.192 L 146.705 7.83 L 149.092 7.83 L 152.149 12.192 L 149.745 12.192 Z M 144.112 7.916 L 143.116 6.852 L 146.722 6.852 C 147.707 6.852 148.445 6.64 148.938 6.216 C 149.441 5.793 149.693 5.203 149.693 4.448 C 149.693 3.681 149.441 3.091 148.938 2.679 C 148.445 2.267 147.707 2.061 146.722 2.061 L 143.116 2.061 L 144.112 0.962 L 144.112 7.916 Z" fill="currentColor" fill-rule="nonzero"></path>
  <path d="M 162.288 12.364 C 161.349 12.364 160.45 12.232 159.592 11.969 C 158.733 11.694 158.052 11.345 157.548 10.921 L 158.321 9.187 C 158.802 9.565 159.397 9.88 160.107 10.131 C 160.817 10.383 161.544 10.509 162.288 10.509 C 162.918 10.509 163.427 10.441 163.816 10.303 C 164.205 10.166 164.492 9.983 164.675 9.754 C 164.858 9.513 164.95 9.244 164.95 8.947 C 164.95 8.58 164.818 8.288 164.555 8.071 C 164.291 7.842 163.948 7.664 163.524 7.538 C 163.112 7.401 162.648 7.275 162.133 7.161 C 161.63 7.046 161.12 6.915 160.605 6.766 C 160.101 6.605 159.638 6.405 159.214 6.165 C 158.802 5.913 158.464 5.581 158.201 5.169 C 157.938 4.757 157.806 4.23 157.806 3.589 C 157.806 2.936 157.978 2.341 158.321 1.803 C 158.676 1.254 159.208 0.819 159.918 0.498 C 160.639 0.166 161.549 0 162.648 0 C 163.37 0 164.085 0.092 164.795 0.275 C 165.505 0.458 166.123 0.721 166.65 1.065 L 165.945 2.799 C 165.407 2.478 164.852 2.244 164.28 2.095 C 163.707 1.935 163.158 1.855 162.631 1.855 C 162.013 1.855 161.509 1.929 161.12 2.078 C 160.742 2.227 160.462 2.421 160.279 2.662 C 160.107 2.902 160.021 3.177 160.021 3.486 C 160.021 3.852 160.147 4.15 160.399 4.379 C 160.662 4.596 161 4.768 161.412 4.894 C 161.836 5.02 162.305 5.146 162.82 5.272 C 163.335 5.386 163.845 5.518 164.348 5.667 C 164.864 5.816 165.327 6.01 165.739 6.251 C 166.163 6.491 166.501 6.817 166.753 7.229 C 167.016 7.642 167.148 8.162 167.148 8.792 C 167.148 9.433 166.97 10.028 166.615 10.578 C 166.272 11.116 165.739 11.551 165.018 11.883 C 164.297 12.204 163.387 12.364 162.288 12.364 Z" fill="currentColor" fill-rule="nonzero"></path>
  <path d="M 182.349 12.192 L 182.349 0.172 L 187.604 0.172 C 188.909 0.172 190.054 0.424 191.038 0.927 C 192.023 1.431 192.79 2.129 193.339 3.022 C 193.889 3.915 194.164 4.968 194.164 6.182 C 194.164 7.384 193.889 8.437 193.339 9.342 C 192.79 10.234 192.023 10.933 191.038 11.437 C 190.054 11.94 188.909 12.192 187.604 12.192 L 182.349 12.192 Z M 184.582 10.303 L 187.501 10.303 C 188.405 10.303 189.184 10.131 189.836 9.788 C 190.5 9.445 191.01 8.964 191.365 8.346 C 191.731 7.727 191.914 7.006 191.914 6.182 C 191.914 5.346 191.731 4.625 191.365 4.018 C 191.01 3.4 190.5 2.919 189.836 2.576 C 189.184 2.232 188.405 2.061 187.501 2.061 L 184.582 2.061 L 184.582 10.303 Z" fill="currentColor" fill-rule="nonzero"></path>
  <path d="M 202.718 5.169 L 208.694 5.169 L 208.694 7.006 L 202.718 7.006 L 202.718 5.169 Z M 202.89 10.32 L 209.673 10.32 L 209.673 12.192 L 200.658 12.192 L 200.658 0.172 L 209.433 0.172 L 209.433 2.043 L 202.89 2.043 L 202.89 10.32 Z" fill="currentColor" fill-rule="nonzero"></path>
  <path d="M 225.15 12.192 L 225.15 0.172 L 227.382 0.172 L 227.382 10.303 L 233.667 10.303 L 233.667 12.192 L 225.15 12.192 Z" fill="currentColor" fill-rule="nonzero"></path>
  <path d="M 237.868 12.192 L 243.277 0.172 L 245.475 0.172 L 250.901 12.192 L 248.566 12.192 L 243.912 1.357 L 244.805 1.357 L 240.169 12.192 L 237.868 12.192 Z M 240.357 9.41 L 240.958 7.659 L 247.449 7.659 L 248.051 9.41 L 240.357 9.41 Z" fill="currentColor" fill-rule="nonzero"></path>
  <path d="M 265.418 12.192 L 265.418 0.172 L 267.255 0.172 L 272.51 8.947 L 271.548 8.947 L 276.717 0.172 L 278.555 0.172 L 278.572 12.192 L 276.46 12.192 L 276.442 3.486 L 276.889 3.486 L 272.493 10.818 L 271.497 10.818 L 267.032 3.486 L 267.547 3.486 L 267.547 12.192 L 265.418 12.192 Z" fill="currentColor" fill-rule="nonzero"></path>
  <path d="M 284.24 12.192 L 289.649 0.172 L 291.847 0.172 L 297.273 12.192 L 294.938 12.192 L 290.284 1.357 L 291.177 1.357 L 286.541 12.192 L 284.24 12.192 Z M 286.73 9.41 L 287.331 7.659 L 293.822 7.659 L 294.423 9.41 L 286.73 9.41 Z" fill="currentColor" fill-rule="nonzero"></path>
  <path d="M 302.923 12.192 L 302.923 0.172 L 307.869 0.172 C 308.934 0.172 309.844 0.343 310.599 0.687 C 311.366 1.03 311.956 1.523 312.368 2.164 C 312.78 2.805 312.986 3.566 312.986 4.448 C 312.986 5.329 312.78 6.09 312.368 6.731 C 311.956 7.361 311.366 7.848 310.599 8.191 C 309.844 8.523 308.934 8.689 307.869 8.689 L 304.16 8.689 L 305.156 7.676 L 305.156 12.192 L 302.923 12.192 Z M 310.788 12.192 L 307.749 7.83 L 310.136 7.83 L 313.192 12.192 L 310.788 12.192 Z M 305.156 7.916 L 304.16 6.852 L 307.766 6.852 C 308.75 6.852 309.489 6.64 309.981 6.216 C 310.485 5.793 310.737 5.203 310.737 4.448 C 310.737 3.681 310.485 3.091 309.981 2.679 C 309.489 2.267 308.75 2.061 307.766 2.061 L 304.16 2.061 L 305.156 0.962 L 305.156 7.916 Z" fill="currentColor" fill-rule="nonzero"></path>
  <path d="M 319.605 12.192 L 319.605 0.172 L 321.442 0.172 L 328.981 9.427 L 328.071 9.427 L 328.071 0.172 L 330.286 0.172 L 330.286 12.192 L 328.449 12.192 L 320.91 2.936 L 321.82 2.936 L 321.82 12.192 L 319.605 12.192 Z" fill="currentColor" fill-rule="nonzero"></path>
  <path d="M 339.689 5.169 L 345.665 5.169 L 345.665 7.006 L 339.689 7.006 L 339.689 5.169 Z M 339.86 10.32 L 346.643 10.32 L 346.643 12.192 L 337.628 12.192 L 337.628 0.172 L 346.403 0.172 L 346.403 2.043 L 339.86 2.043 L 339.86 10.32 Z" fill="currentColor" fill-rule="nonzero"></path>
</svg>