<svg xmlns="http://www.w3.org/2000/svg" width="531.766" height="569.031" viewBox="0 0 531.766 569.031" fill="none">
  <path d="M 2.394 12.057 C 6.901 31.597 18.068 62.495 40.887 95.345 C 78.727 144.933 143.315 176.903 243.415 198.386 C 327.289 216.385 382.183 232.503 405.914 244.934 C 432.581 258.892 462.653 299.127 462.653 318.747 C 462.653 341.246 450.174 367.731 440.116 376.573 C 433.922 382.018 424.409 388.668 414.488 367.354 C 402.662 341.948 375.545 334.454 291.51 315.426 C 187.808 294.686 154.539 284.796 124.786 262.172 C 120.542 258.945 117.045 256.259 117.045 256.259 C 117.045 256.259 126.1 280.565 149.061 308.985 C 169.863 333.143 208.2 353.919 286.786 378.687 C 437.664 426.241 311.282 470.381 294.557 513.491 C 292.972 517.578 278.853 539.357 282.279 569.031 C 287.548 564.885 366.954 508.327 398.323 484.285 C 488.721 411.006 523.62 373.387 530.987 308.57 C 536.685 258.391 510.548 212.774 472.124 187.752 C 452.759 175.141 431.642 167.444 311.501 145.891 C 164.31 119.484 88.916 96.46 51.126 65.428 C 31.027 48.922 13.543 22.788 6.158 11.174 C 1.236 2.685 0 0 0 0 C 0 0 0.288 2.927 2.394 12.057 Z" fill="currentColor" fill-rule="evenodd"></path>
</svg>