<svg xmlns="http://www.w3.org/2000/svg" width="113.050" height="53.793" viewBox="0 0 113.050 53.793" fill="none">
  <path d="M 32.632 30.307 C 32.632 31.392 32.555 32.4 32.4 33.175 L 28.447 37.128 L 7.286 37.128 C 7.519 41.469 11.549 47.592 19.765 47.592 C 24.261 47.592 27.517 46.352 29.997 44.724 L 29.222 51.545 C 26.741 52.863 23.563 53.793 18.835 53.793 C 8.836 53.793 0 46.352 0 35.423 C 0 23.486 9.301 16.975 17.44 16.975 C 27.129 16.975 32.632 23.796 32.632 30.307 Z M 25.501 30.462 C 25.501 26.974 22.478 23.021 17.828 23.021 C 13.409 23.021 8.681 26.509 7.751 31.392 L 25.424 31.392 C 25.501 31.082 25.501 30.772 25.501 30.462 Z" fill="currentColor" fill-rule="nonzero"></path>
  <path d="M 56.462 17.828 L 55.531 23.486 C 54.902 23.486 55.107 23.486 54.1 23.486 C 49.527 23.486 42.803 27.051 42.803 35.19 L 42.803 52.94 L 35.749 52.94 L 35.749 17.828 L 42.803 17.828 L 42.803 24.959 L 42.88 24.959 C 44.198 19.92 47.786 17.828 52.669 17.828 C 53.676 17.828 55.759 17.828 56.462 17.828 Z" fill="currentColor" fill-rule="nonzero"></path>
  <path d="M 80.777 17.828 L 79.536 23.486 L 68.375 23.486 L 68.375 42.166 C 68.375 46.197 70.468 47.592 74.188 47.592 C 75.428 47.592 76.513 47.437 77.366 47.127 L 76.746 52.708 C 75.816 53.173 74.266 53.328 72.87 53.328 C 66.514 53.328 61.399 49.685 61.399 42.864 L 61.399 23.486 L 54.5 23.486 L 54.5 17.828 L 61.399 17.828 L 61.399 10.697 L 68.375 7.054 L 68.375 17.828 L 80.777 17.828 Z" fill="currentColor" fill-rule="nonzero"></path>
  <path d="M 113.05 30.307 C 113.05 31.392 112.973 32.4 112.818 33.175 L 108.865 37.128 L 87.704 37.128 C 87.937 41.469 91.967 47.592 100.184 47.592 C 104.679 47.592 107.935 46.352 110.415 44.724 L 109.64 51.545 C 107.16 52.863 103.982 53.793 99.253 53.793 C 89.254 53.793 80.418 46.352 80.418 35.423 C 80.418 23.486 89.719 16.975 97.858 16.975 C 107.547 16.975 113.05 23.796 113.05 30.307 Z M 105.919 30.462 C 105.919 26.974 102.896 23.021 98.246 23.021 C 93.828 23.021 89.099 26.509 88.169 31.392 L 105.842 31.392 C 105.919 31.082 105.919 30.772 105.919 30.462 Z M 106.849 3.1 C 106.849 3.488 106.384 4.108 105.764 4.728 C 103.051 7.674 99.951 9.999 96.463 12.092 L 92.665 10.464 C 95.61 8.216 99.408 4.496 101.811 1.163 C 102.354 0.388 103.206 0 103.749 0 C 104.757 0 106.849 2.17 106.849 3.1 Z" fill="currentColor" fill-rule="nonzero"></path>
</svg>