<svg xmlns="http://www.w3.org/2000/svg" width="1920" height="128.503" viewBox="0 0 1920 128.503" fill="none">
  <path d="M 245.5 0.13 C 175.134 2.603 140.746 38.713 70.5 43.503 C 43.032 45.376 0 43.503 0 43.503 L 0 128.503 L 1920 128.503 L 1920 40.003 C 1920 40.003 1889.523 39.664 1870 40.003 C 1825.415 40.776 1800.567 45.017 1756 46.5 C 1615.172 51.186 1521.486 30.888 1395.5 31.5 C 1220.931 32.348 1119.743 64.428 949 53 C 830.857 45.093 765.867 -3.028 648.5 12.629 C 606.386 18.248 584.519 30.841 542.5 37.129 C 508.004 42.292 488.38 44.726 453.5 44.63 C 370.433 44.402 328.516 -2.787 245.5 0.13 Z" fill="currentColor" fill-rule="nonzero"></path>
</svg>