<svg xmlns="http://www.w3.org/2000/svg" width="63.125" height="61.067" viewBox="0 0 63.125 61.067" fill="none">
  <path d="M 0.284 1.294 C 0.819 3.391 2.145 6.707 4.854 10.232 C 9.346 15.554 17.013 18.985 28.895 21.29 C 38.852 23.222 45.368 24.952 48.185 26.286 C 51.351 27.784 54.921 32.102 54.921 34.207 C 54.921 36.622 53.44 39.464 52.246 40.413 C 51.51 40.997 50.381 41.711 49.203 39.424 C 47.799 36.697 44.58 35.893 34.605 33.851 C 22.294 31.625 18.345 30.564 14.813 28.136 C 14.309 27.789 13.894 27.501 13.894 27.501 C 13.894 27.501 14.969 30.11 17.695 33.16 C 20.164 35.752 24.715 37.982 34.044 40.64 C 51.955 45.743 36.952 50.48 34.966 55.107 C 34.778 55.545 33.102 57.883 33.509 61.067 C 34.134 60.622 43.561 54.553 47.284 51.972 C 58.015 44.108 62.158 40.071 63.033 33.115 C 63.709 27.73 60.607 22.834 56.045 20.149 C 53.746 18.796 51.24 17.97 36.978 15.657 C 19.505 12.823 10.555 10.352 6.069 7.022 C 3.683 5.25 1.608 2.446 0.731 1.199 C 0.147 0.288 0 0 0 0 C 0 0 0.034 0.314 0.284 1.294 Z" fill="currentColor" fill-rule="evenodd"></path>
</svg>